<?xml version="1.0" encoding="UTF-8" standalone="no"?><!-- Generator: Gravit.io --><svg xmlns="http://www.w3.org/2000/svg" xmlns:xlink="http://www.w3.org/1999/xlink" style="isolation:isolate" viewBox="0 0 364.1 101.9" width="364.1pt" height="101.9pt"><defs><clipPath id="_clipPath_qh1x3VpcBxKdQVlzWSwk4JQBvUSccYTn"><rect width="364.1" height="101.9"/></clipPath></defs><g clip-path="url(#_clipPath_qh1x3VpcBxKdQVlzWSwk4JQBvUSccYTn)"><g><g><linearGradient id="_lgradient_21" x1="0" y1="0" x2="0.9999926729191095" y2="0.540035169988278" gradientTransform="matrix(8.17,0,0,5.224,15.692,10.233)" gradientUnits="userSpaceOnUse"><stop offset="0%" stop-opacity="1" style="stop-color:rgb(133,96,151)"/><stop offset="100%" stop-opacity="1" style="stop-color:rgb(82,59,92)"/></linearGradient><path d=" M 15.692 10.233 C 18.383 11.387 21.106 11.379 23.862 10.233 L 23.862 14.685 C 21.075 15.708 18.351 15.719 15.692 14.685 L 15.692 10.233 Z " fill-rule="evenodd" fill="url(#_lgradient_21)"/><linearGradient id="_lgradient_22" x1="-0.0005640582108075165" y1="0" x2="0.5445754879429253" y2="1.1641137530091825" gradientTransform="matrix(23.879,0,0,50.587,7.782,40.458)" gradientUnits="userSpaceOnUse"><stop offset="0%" stop-opacity="1" style="stop-color:rgb(76,55,86)"/><stop offset="100%" stop-opacity="1" style="stop-color:rgb(43,31,49)"/></linearGradient><path d=" M 31.661 40.458 C 31.074 54.464 30.487 69.966 29.899 83.972 C 29.312 93.495 10.131 93.309 9.544 83.972 C 8.956 69.966 7.782 40.458 7.782 40.458 L 31.661 40.458" fill-rule="evenodd" fill="url(#_lgradient_22)"/><path d=" M 8.806 53.15 C 16.055 56.69 23.317 56.615 30.591 53.15 L 30.075 68.926 C 23.213 72.267 16.308 72.339 9.357 68.926 L 8.806 53.15 L 8.806 53.15 Z " fill-rule="evenodd" fill="rgb(109,79,123)"/><radialGradient id="_rgradient_6" fx="0.09259066277615746" fy="0.44850411368735976" cx="0.5" cy="0.5" r="1" gradientTransform="matrix(22.978,0,0,8.004,8.243,36.456)" gradientUnits="userSpaceOnUse"><stop offset="0%" stop-opacity="1" style="stop-color:rgb(89,64,101)"/><stop offset="100%" stop-opacity="1" style="stop-color:rgb(41,29,46)"/></radialGradient><linearGradient id="_lgradient_23" x1="4.440892098500626e-16" y1="0.5" x2="1.0000000000000004" y2="0.5"><stop offset="0%" stop-opacity="1" style="stop-color:rgb(89,64,101)"/><stop offset="100%" stop-opacity="1" style="stop-color:rgb(41,29,46)"/></linearGradient><ellipse vector-effect="non-scaling-stroke" cx="19.73132166705533" cy="40.45777787716779" rx="11.488805877063076" ry="4.001806340567249" fill="url(#_rgradient_6)" stroke-width="2.99" stroke="url(#_lgradient_23)" stroke-linejoin="miter" stroke-linecap="round" stroke-miterlimit="4"/><mask id="_mask_EkhEI6pXym1gdSj9xFPqBNIB9Ft1yF68" x="-200%" y="-200%" width="400%" height="400%"><rect x="-200%" y="-200%" width="400%" height="400%" style="fill:white;"/><path d=" M 16.076 8.618 C 18.324 10.8 20.794 10.742 23.478 8.618" fill-rule="evenodd" fill="black" stroke="none"/></mask><path d=" M 16.076 8.618 C 18.324 10.8 20.794 10.742 23.478 8.618" fill-rule="evenodd" fill="none"/><path d=" M 16.076 8.618 C 18.324 10.8 20.794 10.742 23.478 8.618" fill-rule="evenodd" fill="none" mask="url(#_mask_EkhEI6pXym1gdSj9xFPqBNIB9Ft1yF68)" vector-effect="non-scaling-stroke" stroke-width="5.32" stroke="rgb(255,255,255)" stroke-linejoin="round" stroke-linecap="butt" stroke-miterlimit="4"/><mask id="_mask_Ssdydh5VJXGU5bI9XPEA6jzwKSfDjTUF" x="-200%" y="-200%" width="400%" height="400%"><rect x="-200%" y="-200%" width="400%" height="400%" style="fill:white;"/><path d=" M 16.076 7.821 C 18.324 10.003 20.794 9.946 23.478 7.821" fill-rule="evenodd" fill="black" stroke="none"/></mask><path d=" M 16.076 7.821 C 18.324 10.003 20.794 9.946 23.478 7.821" fill-rule="evenodd" fill="none"/><path d=" M 16.076 7.821 C 18.324 10.003 20.794 9.946 23.478 7.821" fill-rule="evenodd" fill="none" mask="url(#_mask_Ssdydh5VJXGU5bI9XPEA6jzwKSfDjTUF)" vector-effect="non-scaling-stroke" stroke-width="5.32" stroke="rgb(145,145,145)" stroke-linejoin="round" stroke-linecap="butt" stroke-miterlimit="4"/><mask id="_mask_Lgiv3Tp0tjT1oW6nX30tz3hD1dZoZzPJ" x="-200%" y="-200%" width="400%" height="400%"><rect x="-200%" y="-200%" width="400%" height="400%" style="fill:white;"/><path d=" M 31.22 39.486 C 31.22 41.695 26.072 43.488 19.731 43.488 C 13.39 43.488 8.243 41.695 8.243 39.486" fill-rule="evenodd" fill="black" stroke="none"/></mask><path d=" M 31.22 39.486 C 31.22 41.695 26.072 43.488 19.731 43.488 C 13.39 43.488 8.243 41.695 8.243 39.486" fill-rule="evenodd" fill="none"/><radialGradient id="_rgradient_7" fx="4.440892098500626e-16" fy="0" cx="0.5" cy="0.5" r="1"><stop offset="0%" stop-opacity="0" style="stop-color:rgb(255,255,255)"/><stop offset="40%" stop-opacity="0.109804" style="stop-color:rgb(255,255,255)"/><stop offset="85%" stop-opacity="0.403922" style="stop-color:rgb(255,255,255)"/><stop offset="93%" stop-opacity="0.113725" style="stop-color:rgb(255,255,255)"/><stop offset="100%" stop-opacity="0" style="stop-color:rgb(255,255,255)"/></radialGradient><path d=" M 31.22 39.486 C 31.22 41.695 26.072 43.488 19.731 43.488 C 13.39 43.488 8.243 41.695 8.243 39.486" fill-rule="evenodd" fill="none" mask="url(#_mask_Lgiv3Tp0tjT1oW6nX30tz3hD1dZoZzPJ)" vector-effect="non-scaling-stroke" stroke-width="6.7" stroke="url(#_rgradient_7)" stroke-linejoin="round" stroke-linecap="round" stroke-miterlimit="4"/><mask id="_mask_UYDapcr5CxL2CPguUMhAt7JP41SDFdQw" x="-200%" y="-200%" width="400%" height="400%"><rect x="-200%" y="-200%" width="400%" height="400%" style="fill:white;"/><path d=" M 8.189 41.477 C 8.84 55.593 9.275 69.709 9.926 83.608 C 10.577 93.163 28.82 92.946 29.471 83.608 C 30.123 69.492 30.557 55.376 31.208 41.477 C 31.643 31.488 23.825 32.356 23.825 25.624 C 23.825 18.892 23.825 14.114 23.825 8.251 C 23.825 7.816 23.39 7.382 22.956 7.382 C 20.785 7.382 18.83 7.382 16.658 7.382 C 16.224 7.382 15.79 7.816 15.79 8.251 C 15.79 14.114 15.79 18.675 15.79 25.19 C 15.79 32.574 7.754 31.488 8.189 41.477" fill-rule="evenodd" fill="black" stroke="none"/></mask><path d=" M 8.189 41.477 C 8.84 55.593 9.275 69.709 9.926 83.608 C 10.577 93.163 28.82 92.946 29.471 83.608 C 30.123 69.492 30.557 55.376 31.208 41.477 C 31.643 31.488 23.825 32.356 23.825 25.624 C 23.825 18.892 23.825 14.114 23.825 8.251 C 23.825 7.816 23.39 7.382 22.956 7.382 C 20.785 7.382 18.83 7.382 16.658 7.382 C 16.224 7.382 15.79 7.816 15.79 8.251 C 15.79 14.114 15.79 18.675 15.79 25.19 C 15.79 32.574 7.754 31.488 8.189 41.477" fill-rule="evenodd" fill="none"/><path d=" M 8.189 41.477 C 8.84 55.593 9.275 69.709 9.926 83.608 C 10.577 93.163 28.82 92.946 29.471 83.608 C 30.123 69.492 30.557 55.376 31.208 41.477 C 31.643 31.488 23.825 32.356 23.825 25.624 C 23.825 18.892 23.825 14.114 23.825 8.251 C 23.825 7.816 23.39 7.382 22.956 7.382 C 20.785 7.382 18.83 7.382 16.658 7.382 C 16.224 7.382 15.79 7.816 15.79 8.251 C 15.79 14.114 15.79 18.675 15.79 25.19 C 15.79 32.574 7.754 31.488 8.189 41.477" fill-rule="evenodd" fill="none" mask="url(#_mask_UYDapcr5CxL2CPguUMhAt7JP41SDFdQw)" vector-effect="non-scaling-stroke" stroke-width="4" stroke="rgb(145,145,145)" stroke-linejoin="miter" stroke-linecap="butt" stroke-miterlimit="10"/><linearGradient id="_lgradient_24" x1="-0.016906811061448757" y1="0.20326053031429253" x2="0.9547764525003121" y2="2.0098119514213826" gradientTransform="matrix(23.054,0,0,83.311,8.172,7.382)" gradientUnits="userSpaceOnUse"><stop offset="0%" stop-opacity="0" style="stop-color:rgb(0,0,0)"/><stop offset="100%" stop-opacity="1" style="stop-color:rgb(89,64,101)"/></linearGradient><path d=" M 8.189 41.477 C 8.84 55.593 9.275 69.709 9.926 83.608 C 10.577 93.163 28.82 92.946 29.471 83.608 C 30.123 69.492 30.557 55.376 31.208 41.477 C 31.643 31.488 23.825 32.356 23.825 25.624 C 23.825 18.892 23.825 14.114 23.825 8.251 C 23.825 7.816 23.39 7.382 22.956 7.382 C 20.785 7.382 18.83 7.382 16.658 7.382 C 16.224 7.382 15.79 7.816 15.79 8.251 C 15.79 14.114 15.79 18.675 15.79 25.19 C 15.79 32.574 7.754 31.488 8.189 41.477" fill-rule="evenodd" fill="url(#_lgradient_24)"/><mask id="_mask_nQY45MQcUx5Zm3IPCgwvmhxeRYlsNwnD" x="-200%" y="-200%" width="400%" height="400%"><rect x="-200%" y="-200%" width="400%" height="400%" style="fill:white;"/><path d=" M 12.177 86.771 C 16.31 91.815 28.726 90.287 28.643 82.843 C 29.238 69.174 29.635 55.505 30.231 42.046" fill-rule="evenodd" fill="black" stroke="none"/></mask><path d=" M 12.177 86.771 C 16.31 91.815 28.726 90.287 28.643 82.843 C 29.238 69.174 29.635 55.505 30.231 42.046" fill-rule="evenodd" fill="none"/><linearGradient id="_lgradient_25" x1="-0.16613889948107463" y1="0.1535918020565532" x2="1.000882006731104" y2="0.1535918020565532"><stop offset="0%" stop-opacity="0" style="stop-color:rgb(255,255,255)"/><stop offset="77%" stop-opacity="0.121569" style="stop-color:rgb(255,255,255)"/><stop offset="87%" stop-opacity="0.231373" style="stop-color:rgb(255,255,255)"/><stop offset="100%" stop-opacity="0" style="stop-color:rgb(145,145,145)"/></linearGradient><path d=" M 12.177 86.771 C 16.31 91.815 28.726 90.287 28.643 82.843 C 29.238 69.174 29.635 55.505 30.231 42.046" fill-rule="evenodd" fill="none" mask="url(#_mask_nQY45MQcUx5Zm3IPCgwvmhxeRYlsNwnD)" vector-effect="non-scaling-stroke" stroke-width="6.7" stroke="url(#_lgradient_25)" stroke-linejoin="miter" stroke-linecap="round" stroke-miterlimit="4"/><linearGradient id="_lgradient_26" x1="-0.06812683051063129" y1="0.5167690298403382" x2="0.8929920624814311" y2="0.5167690298403382" gradientTransform="matrix(7.051,0,0,45.265,10.307,39.857)" gradientUnits="userSpaceOnUse"><stop offset="0%" stop-opacity="0.270588" style="stop-color:rgb(255,255,255)"/><stop offset="100%" stop-opacity="0" style="stop-color:rgb(0,0,0)"/></linearGradient><path d=" M 10.307 39.857 C 10.307 39.857 11.654 40.741 12.936 40.977 C 14.428 41.251 16.393 41.319 16.393 41.319 L 17.358 82.114 C 17.358 82.114 16.885 85.243 14.955 85.119 C 12.988 84.992 12.142 83.18 11.987 81.672 C 11.212 74.128 10.307 39.857 10.307 39.857 L 10.307 39.857 Z " fill-rule="evenodd" fill="url(#_lgradient_26)"/><linearGradient id="_lgradient_27" x1="-0.08356196695245721" y1="0.3240000719138676" x2="2.3650707767145196" y2="1.4444756765806788" gradientTransform="matrix(4.838,0,0,13.368,14.861,19.895)" gradientUnits="userSpaceOnUse"><stop offset="0%" stop-opacity="0.75" style="stop-color:rgb(255,255,255)"/><stop offset="100%" stop-opacity="0" style="stop-color:rgb(166,166,166)"/></linearGradient><path d=" M 17.298 19.895 C 17.298 19.895 17.698 26.143 17.298 28.238 C 16.993 29.83 14.549 31.691 14.894 32.465 C 15.239 33.239 18.622 33.586 19.367 32.881 C 20.113 32.177 19.367 29.785 19.367 28.238 C 19.367 26.073 19.367 20.702 19.367 20.702 C 18.58 20.601 17.912 20.295 17.298 19.895 L 17.298 19.895 Z " fill-rule="evenodd" fill="url(#_lgradient_27)"/></g><g><linearGradient id="_lgradient_28" x1="0" y1="0" x2="0.9999926729191079" y2="0.540035169988277" gradientTransform="matrix(8.17,0,0,5.224,53.215,10.233)" gradientUnits="userSpaceOnUse"><stop offset="0%" stop-opacity="1" style="stop-color:rgb(133,96,151)"/><stop offset="100%" stop-opacity="1" style="stop-color:rgb(82,59,92)"/></linearGradient><path d=" M 53.215 10.233 C 55.906 11.387 58.63 11.379 61.385 10.233 L 61.385 14.685 C 58.598 15.708 55.874 15.719 53.215 14.685 L 53.215 10.233 Z " fill-rule="evenodd" fill="url(#_lgradient_28)"/><linearGradient id="_lgradient_29" x1="-0.0005640582108075165" y1="0" x2="0.5445754879429254" y2="1.1641137530091827" gradientTransform="matrix(23.879,0,0,50.587,45.339,40.458)" gradientUnits="userSpaceOnUse"><stop offset="0%" stop-opacity="1" style="stop-color:rgb(76,55,86)"/><stop offset="100%" stop-opacity="1" style="stop-color:rgb(43,31,49)"/></linearGradient><path d=" M 69.218 40.458 C 68.631 54.464 68.044 69.966 67.457 83.972 C 66.869 93.495 47.688 93.309 47.101 83.972 C 46.514 69.966 45.339 40.458 45.339 40.458 L 69.218 40.458" fill-rule="evenodd" fill="url(#_lgradient_29)"/><path d=" M 46.379 53.15 C 53.628 56.69 60.89 56.615 68.164 53.15 L 67.648 68.926 C 60.786 72.267 53.881 72.339 46.93 68.926 L 46.379 53.15 Z " fill-rule="evenodd" fill="rgb(109,79,123)"/><radialGradient id="_rgradient_8" fx="0.09259066277615746" fy="0.44850411368735976" cx="0.5" cy="0.5" r="1" gradientTransform="matrix(22.978,0,0,8.004,45.8,36.456)" gradientUnits="userSpaceOnUse"><stop offset="0%" stop-opacity="1" style="stop-color:rgb(89,64,101)"/><stop offset="100%" stop-opacity="1" style="stop-color:rgb(41,29,46)"/></radialGradient><linearGradient id="_lgradient_30" x1="4.440892098500626e-16" y1="0.5" x2="1.0000000000000013" y2="0.5"><stop offset="0%" stop-opacity="1" style="stop-color:rgb(89,64,101)"/><stop offset="100%" stop-opacity="1" style="stop-color:rgb(41,29,46)"/></linearGradient><ellipse vector-effect="non-scaling-stroke" cx="57.288738107447095" cy="40.45777787716779" rx="11.48880587706308" ry="4.001806340567249" fill="url(#_rgradient_8)" stroke-width="2.99" stroke="url(#_lgradient_30)" stroke-linejoin="miter" stroke-linecap="round" stroke-miterlimit="4"/><mask id="_mask_bEFlHRXSRZZ82xrV0qTPMHLq30cgXi8m" x="-200%" y="-200%" width="400%" height="400%"><rect x="-200%" y="-200%" width="400%" height="400%" style="fill:white;"/><path d=" M 53.633 8.618 C 55.881 10.8 58.351 10.742 61.036 8.618" fill-rule="evenodd" fill="black" stroke="none"/></mask><path d=" M 53.633 8.618 C 55.881 10.8 58.351 10.742 61.036 8.618" fill-rule="evenodd" fill="none"/><path d=" M 53.633 8.618 C 55.881 10.8 58.351 10.742 61.036 8.618" fill-rule="evenodd" fill="none" mask="url(#_mask_bEFlHRXSRZZ82xrV0qTPMHLq30cgXi8m)" vector-effect="non-scaling-stroke" stroke-width="5.32" stroke="rgb(255,255,255)" stroke-linejoin="round" stroke-linecap="butt" stroke-miterlimit="4"/><mask id="_mask_jY81hXUdeEpN9bk83KgZ0EpnLMr7dnYz" x="-200%" y="-200%" width="400%" height="400%"><rect x="-200%" y="-200%" width="400%" height="400%" style="fill:white;"/><path d=" M 53.633 7.821 C 55.881 10.003 58.351 9.946 61.036 7.821" fill-rule="evenodd" fill="black" stroke="none"/></mask><path d=" M 53.633 7.821 C 55.881 10.003 58.351 9.946 61.036 7.821" fill-rule="evenodd" fill="none"/><path d=" M 53.633 7.821 C 55.881 10.003 58.351 9.946 61.036 7.821" fill-rule="evenodd" fill="none" mask="url(#_mask_jY81hXUdeEpN9bk83KgZ0EpnLMr7dnYz)" vector-effect="non-scaling-stroke" stroke-width="5.32" stroke="rgb(145,145,145)" stroke-linejoin="round" stroke-linecap="butt" stroke-miterlimit="4"/><mask id="_mask_deQ2m24EfQKRq8lYREuQLTaDP08cHHDl" x="-200%" y="-200%" width="400%" height="400%"><rect x="-200%" y="-200%" width="400%" height="400%" style="fill:white;"/><path d=" M 68.778 39.486 C 68.778 41.695 63.629 43.488 57.289 43.488 C 50.948 43.488 45.8 41.695 45.8 39.486" fill-rule="evenodd" fill="black" stroke="none"/></mask><path d=" M 68.778 39.486 C 68.778 41.695 63.629 43.488 57.289 43.488 C 50.948 43.488 45.8 41.695 45.8 39.486" fill-rule="evenodd" fill="none"/><radialGradient id="_rgradient_9" fx="8.881784197001252e-16" fy="0" cx="0.5" cy="0.5" r="1"><stop offset="0%" stop-opacity="0" style="stop-color:rgb(255,255,255)"/><stop offset="40%" stop-opacity="0.109804" style="stop-color:rgb(255,255,255)"/><stop offset="85%" stop-opacity="0.403922" style="stop-color:rgb(255,255,255)"/><stop offset="93%" stop-opacity="0.113725" style="stop-color:rgb(255,255,255)"/><stop offset="100%" stop-opacity="0" style="stop-color:rgb(255,255,255)"/></radialGradient><path d=" M 68.778 39.486 C 68.778 41.695 63.629 43.488 57.289 43.488 C 50.948 43.488 45.8 41.695 45.8 39.486" fill-rule="evenodd" fill="none" mask="url(#_mask_deQ2m24EfQKRq8lYREuQLTaDP08cHHDl)" vector-effect="non-scaling-stroke" stroke-width="6.7" stroke="url(#_rgradient_9)" stroke-linejoin="round" stroke-linecap="round" stroke-miterlimit="4"/><mask id="_mask_cKR4PZwKlCg3QVxHOUU5sDTreFMKyjdr" x="-200%" y="-200%" width="400%" height="400%"><rect x="-200%" y="-200%" width="400%" height="400%" style="fill:white;"/><path d=" M 45.746 41.477 C 46.398 55.593 46.832 69.709 47.484 83.608 C 48.135 93.163 66.377 92.946 67.029 83.608 C 67.68 69.492 68.115 55.376 68.766 41.477 C 69.2 31.488 61.382 32.356 61.382 25.624 C 61.382 18.892 61.382 14.114 61.382 8.251 C 61.382 7.816 60.948 7.382 60.514 7.382 C 58.342 7.382 56.387 7.382 54.216 7.382 C 53.781 7.382 53.347 7.816 53.347 8.251 C 53.347 14.114 53.347 18.675 53.347 25.19 C 53.347 32.574 45.312 31.488 45.746 41.477" fill-rule="evenodd" fill="black" stroke="none"/></mask><path d=" M 45.746 41.477 C 46.398 55.593 46.832 69.709 47.484 83.608 C 48.135 93.163 66.377 92.946 67.029 83.608 C 67.68 69.492 68.115 55.376 68.766 41.477 C 69.2 31.488 61.382 32.356 61.382 25.624 C 61.382 18.892 61.382 14.114 61.382 8.251 C 61.382 7.816 60.948 7.382 60.514 7.382 C 58.342 7.382 56.387 7.382 54.216 7.382 C 53.781 7.382 53.347 7.816 53.347 8.251 C 53.347 14.114 53.347 18.675 53.347 25.19 C 53.347 32.574 45.312 31.488 45.746 41.477" fill-rule="evenodd" fill="none"/><path d=" M 45.746 41.477 C 46.398 55.593 46.832 69.709 47.484 83.608 C 48.135 93.163 66.377 92.946 67.029 83.608 C 67.68 69.492 68.115 55.376 68.766 41.477 C 69.2 31.488 61.382 32.356 61.382 25.624 C 61.382 18.892 61.382 14.114 61.382 8.251 C 61.382 7.816 60.948 7.382 60.514 7.382 C 58.342 7.382 56.387 7.382 54.216 7.382 C 53.781 7.382 53.347 7.816 53.347 8.251 C 53.347 14.114 53.347 18.675 53.347 25.19 C 53.347 32.574 45.312 31.488 45.746 41.477" fill-rule="evenodd" fill="none" mask="url(#_mask_cKR4PZwKlCg3QVxHOUU5sDTreFMKyjdr)" vector-effect="non-scaling-stroke" stroke-width="4" stroke="rgb(145,145,145)" stroke-linejoin="miter" stroke-linecap="butt" stroke-miterlimit="10"/><linearGradient id="_lgradient_31" x1="-0.01690681106144787" y1="0.20326053031429253" x2="0.954776452500313" y2="2.0098119514213826" gradientTransform="matrix(23.054,0,0,83.311,45.745,7.382)" gradientUnits="userSpaceOnUse"><stop offset="0%" stop-opacity="0" style="stop-color:rgb(0,0,0)"/><stop offset="100%" stop-opacity="1" style="stop-color:rgb(89,64,101)"/></linearGradient><path d=" M 45.762 41.477 C 46.413 55.593 46.848 69.709 47.499 83.608 C 48.15 93.163 66.393 92.946 67.044 83.608 C 67.696 69.492 68.13 55.376 68.781 41.477 C 69.216 31.488 61.398 32.356 61.398 25.624 C 61.398 18.892 61.398 14.114 61.398 8.251 C 61.398 7.816 60.963 7.382 60.529 7.382 C 58.357 7.382 56.403 7.382 54.231 7.382 C 53.797 7.382 53.363 7.816 53.363 8.251 C 53.363 14.114 53.363 18.675 53.363 25.19 C 53.363 32.574 45.327 31.488 45.762 41.477" fill-rule="evenodd" fill="url(#_lgradient_31)"/><mask id="_mask_WqPPGZgsreBE4OsXNvfyg9dZipoSR0eQ" x="-200%" y="-200%" width="400%" height="400%"><rect x="-200%" y="-200%" width="400%" height="400%" style="fill:white;"/><path d=" M 49.734 86.771 C 53.867 91.815 66.283 90.287 66.2 82.843 C 66.796 69.174 67.193 55.505 67.788 42.046" fill-rule="evenodd" fill="black" stroke="none"/></mask><path d=" M 49.734 86.771 C 53.867 91.815 66.283 90.287 66.2 82.843 C 66.796 69.174 67.193 55.505 67.788 42.046" fill-rule="evenodd" fill="none"/><linearGradient id="_lgradient_32" x1="-0.16613889948107552" y1="0.1535918020565532" x2="1.0008820067311044" y2="0.1535918020565532"><stop offset="0%" stop-opacity="0" style="stop-color:rgb(255,255,255)"/><stop offset="77%" stop-opacity="0.121569" style="stop-color:rgb(255,255,255)"/><stop offset="87%" stop-opacity="0.231373" style="stop-color:rgb(255,255,255)"/><stop offset="100%" stop-opacity="0" style="stop-color:rgb(145,145,145)"/></linearGradient><path d=" M 49.734 86.771 C 53.867 91.815 66.283 90.287 66.2 82.843 C 66.796 69.174 67.193 55.505 67.788 42.046" fill-rule="evenodd" fill="none" mask="url(#_mask_WqPPGZgsreBE4OsXNvfyg9dZipoSR0eQ)" vector-effect="non-scaling-stroke" stroke-width="6.7" stroke="url(#_lgradient_32)" stroke-linejoin="miter" stroke-linecap="round" stroke-miterlimit="4"/><linearGradient id="_lgradient_33" x1="-0.06812972238729742" y1="0.5167690298403382" x2="0.8930299685881664" y2="0.5167690298403382" gradientTransform="matrix(7.051,0,0,45.265,47.864,39.857)" gradientUnits="userSpaceOnUse"><stop offset="0%" stop-opacity="0.270588" style="stop-color:rgb(255,255,255)"/><stop offset="100%" stop-opacity="0" style="stop-color:rgb(0,0,0)"/></linearGradient><path d=" M 47.864 39.857 C 47.864 39.857 49.211 40.741 50.493 40.977 C 51.986 41.251 53.951 41.319 53.951 41.319 L 54.915 82.114 C 54.915 82.114 54.443 85.243 52.512 85.119 C 50.545 84.992 49.699 83.18 49.544 81.672 C 48.769 74.128 47.864 39.857 47.864 39.857 Z " fill-rule="evenodd" fill="url(#_lgradient_33)"/><linearGradient id="_lgradient_34" x1="-0.08356426451802434" y1="0.3240000719138676" x2="2.3651340078801115" y2="1.4445056620265806" gradientTransform="matrix(4.838,0,0,13.368,52.418,19.895)" gradientUnits="userSpaceOnUse"><stop offset="0%" stop-opacity="0.75" style="stop-color:rgb(255,255,255)"/><stop offset="100%" stop-opacity="0" style="stop-color:rgb(166,166,166)"/></linearGradient><path d=" M 54.855 19.895 C 54.855 19.895 55.256 26.143 54.855 28.238 C 54.551 29.83 52.106 31.691 52.451 32.465 C 52.796 33.239 56.179 33.586 56.925 32.881 C 57.67 32.177 56.925 29.785 56.925 28.238 C 56.925 26.073 56.925 20.702 56.925 20.702 C 56.137 20.601 55.469 20.295 54.855 19.895 L 54.855 19.895 Z " fill-rule="evenodd" fill="url(#_lgradient_34)"/></g><g><linearGradient id="_lgradient_35" x1="1.7763568394002505e-15" y1="0.011605398356935304" x2="0.9999737816668315" y2="0.6175012460284188" gradientTransform="matrix(9.133,0,0,6.731,33.597,5.936)" gradientUnits="userSpaceOnUse"><stop offset="0%" stop-opacity="1" style="stop-color:rgb(255,13,13)"/><stop offset="100%" stop-opacity="1" style="stop-color:rgb(163,0,0)"/></linearGradient><path d=" M 33.597 5.936 L 33.597 11.233 C 36.599 13.136 39.643 13.156 42.73 11.233 L 42.73 5.936 C 39.693 8.008 36.649 8 33.597 5.936 L 33.597 5.936 Z " fill-rule="evenodd" fill="url(#_lgradient_35)"/><linearGradient id="_lgradient_36" x1="-0.0005648568652705244" y1="0" x2="0.5237967333665174" y2="1.173618446443895" gradientTransform="matrix(26.495,0,0,58.829,25.128,40.171)" gradientUnits="userSpaceOnUse"><stop offset="0%" stop-opacity="1" style="stop-color:rgb(223,2,3)"/><stop offset="100%" stop-opacity="1" style="stop-color:rgb(105,3,7)"/></linearGradient><path d=" M 51.622 40.171 C 50.971 56.459 50.319 74.487 49.668 90.775 C 49.016 101.85 27.734 101.633 27.082 90.775 C 26.431 74.487 25.128 40.171 25.128 40.171 L 51.622 40.171 Z " fill-rule="evenodd" fill="url(#_lgradient_36)"/><path d=" M 25.639 53.147 C 34.122 57.29 42.62 57.201 51.133 53.147 L 50.529 71.61 C 42.499 75.519 34.418 75.604 26.283 71.61 L 25.639 53.147 L 25.639 53.147 Z " fill-rule="evenodd" fill="rgb(255,13,13)"/><radialGradient id="_rgradient_10" fx="0.09260607199042026" fy="0.4485175895555997" cx="0.5" cy="0.5" r="1" gradientTransform="matrix(25.495,0,0,9.308,25.639,35.517)" gradientUnits="userSpaceOnUse"><stop offset="0%" stop-opacity="1" style="stop-color:rgb(253,0,0)"/><stop offset="100%" stop-opacity="1" style="stop-color:rgb(106,0,0)"/></radialGradient><linearGradient id="_lgradient_37" x1="0.000011740120688497058" y1="0.5" x2="1.0000035220362071" y2="0.5"><stop offset="0%" stop-opacity="1" style="stop-color:rgb(253,0,0)"/><stop offset="100%" stop-opacity="1" style="stop-color:rgb(106,0,0)"/></linearGradient><ellipse vector-effect="non-scaling-stroke" cx="38.38596491132263" cy="40.17133594239422" rx="12.747414378340961" ry="4.654007987246089" fill="url(#_rgradient_10)" stroke-width="3.35" stroke="url(#_lgradient_37)" stroke-linejoin="miter" stroke-linecap="round" stroke-miterlimit="4"/><mask id="_mask_ORmTHTmH67mXiTF4xb78T7PQLOj2oIuB" x="-200%" y="-200%" width="400%" height="400%"><rect x="-200%" y="-200%" width="400%" height="400%" style="fill:white;"/><path d=" M 51.133 39.088 C 51.133 41.657 45.422 43.742 38.386 43.742 C 31.351 43.742 25.639 41.657 25.639 39.088" fill-rule="evenodd" fill="black" stroke="none"/></mask><path d=" M 51.133 39.088 C 51.133 41.657 45.422 43.742 38.386 43.742 C 31.351 43.742 25.639 41.657 25.639 39.088" fill-rule="evenodd" fill="none"/><radialGradient id="_rgradient_11" fx="0" fy="0" cx="0.5" cy="0.5" r="1"><stop offset="0%" stop-opacity="0" style="stop-color:rgb(255,255,255)"/><stop offset="40%" stop-opacity="0.159925" style="stop-color:rgb(255,255,255)"/><stop offset="85%" stop-opacity="0.588297" style="stop-color:rgb(255,255,255)"/><stop offset="93%" stop-opacity="0.165637" style="stop-color:rgb(255,255,255)"/><stop offset="100%" stop-opacity="0" style="stop-color:rgb(255,255,255)"/></radialGradient><path d=" M 51.133 39.088 C 51.133 41.657 45.422 43.742 38.386 43.742 C 31.351 43.742 25.639 41.657 25.639 39.088" fill-rule="evenodd" fill="none" mask="url(#_mask_ORmTHTmH67mXiTF4xb78T7PQLOj2oIuB)" vector-effect="non-scaling-stroke" stroke-width="6.7" stroke="url(#_rgradient_11)" stroke-linejoin="round" stroke-linecap="round" stroke-miterlimit="4"/><mask id="_mask_2lZyZ8nH9JgqkXiVbM6wfvm1mOuaGI9F" x="-200%" y="-200%" width="400%" height="400%"><rect x="-200%" y="-200%" width="400%" height="400%" style="fill:white;"/><path d=" M 33.723 3.984 C 36.549 6.728 39.653 6.655 43.027 3.984" fill-rule="evenodd" fill="black" stroke="none"/></mask><path d=" M 33.723 3.984 C 36.549 6.728 39.653 6.655 43.027 3.984" fill-rule="evenodd" fill="none"/><path d=" M 33.723 3.984 C 36.549 6.728 39.653 6.655 43.027 3.984" fill-rule="evenodd" fill="none" mask="url(#_mask_2lZyZ8nH9JgqkXiVbM6wfvm1mOuaGI9F)" vector-effect="non-scaling-stroke" stroke-width="6.7" stroke="rgb(255,255,255)" stroke-linejoin="round" stroke-linecap="butt" stroke-miterlimit="4"/><mask id="_mask_am6UvaXgBcIKvX2GvKLDu6mNS0T3F6Jy" x="-200%" y="-200%" width="400%" height="400%"><rect x="-200%" y="-200%" width="400%" height="400%" style="fill:white;"/><path d=" M 33.723 2.983 C 36.549 5.726 39.653 5.653 43.027 2.983" fill-rule="evenodd" fill="black" stroke="none"/></mask><path d=" M 33.723 2.983 C 36.549 5.726 39.653 5.653 43.027 2.983" fill-rule="evenodd" fill="none"/><path d=" M 33.723 2.983 C 36.549 5.726 39.653 5.653 43.027 2.983" fill-rule="evenodd" fill="none" mask="url(#_mask_am6UvaXgBcIKvX2GvKLDu6mNS0T3F6Jy)" vector-effect="non-scaling-stroke" stroke-width="6.7" stroke="rgb(145,145,145)" stroke-linejoin="round" stroke-linecap="butt" stroke-miterlimit="4"/><mask id="_mask_xfhpmagIPWSPowKAgQuekUIPhITkR6JH" x="-200%" y="-200%" width="400%" height="400%"><rect x="-200%" y="-200%" width="400%" height="400%" style="fill:white;"/><path d=" M 51.622 41.912 C 50.971 58.199 50.319 74.487 49.668 90.775 C 49.016 101.85 27.734 101.633 27.082 90.775 C 26.431 74.487 25.779 58.199 25.128 41.912 C 24.694 30.402 33.815 31.27 33.815 23.67 C 33.815 15.852 33.597 10.422 33.597 3.473 C 33.597 2.821 34.032 2.387 34.683 2.387 C 37.072 2.387 39.461 2.387 41.85 2.387 C 42.501 2.387 42.936 2.821 42.936 3.473 C 42.936 10.205 42.719 15.634 42.719 23.235 C 42.936 31.488 52.274 30.184 51.622 41.912" fill-rule="evenodd" fill="black" stroke="none"/></mask><path d=" M 51.622 41.912 C 50.971 58.199 50.319 74.487 49.668 90.775 C 49.016 101.85 27.734 101.633 27.082 90.775 C 26.431 74.487 25.779 58.199 25.128 41.912 C 24.694 30.402 33.815 31.27 33.815 23.67 C 33.815 15.852 33.597 10.422 33.597 3.473 C 33.597 2.821 34.032 2.387 34.683 2.387 C 37.072 2.387 39.461 2.387 41.85 2.387 C 42.501 2.387 42.936 2.821 42.936 3.473 C 42.936 10.205 42.719 15.634 42.719 23.235 C 42.936 31.488 52.274 30.184 51.622 41.912" fill-rule="evenodd" fill="none"/><path d=" M 51.622 41.912 C 50.971 58.199 50.319 74.487 49.668 90.775 C 49.016 101.85 27.734 101.633 27.082 90.775 C 26.431 74.487 25.779 58.199 25.128 41.912 C 24.694 30.402 33.815 31.27 33.815 23.67 C 33.815 15.852 33.597 10.422 33.597 3.473 C 33.597 2.821 34.032 2.387 34.683 2.387 C 37.072 2.387 39.461 2.387 41.85 2.387 C 42.501 2.387 42.936 2.821 42.936 3.473 C 42.936 10.205 42.719 15.634 42.719 23.235 C 42.936 31.488 52.274 30.184 51.622 41.912" fill-rule="evenodd" fill="none" mask="url(#_mask_xfhpmagIPWSPowKAgQuekUIPhITkR6JH)" vector-effect="non-scaling-stroke" stroke-width="4" stroke="rgb(145,145,145)" stroke-linejoin="miter" stroke-linecap="butt" stroke-miterlimit="10"/><linearGradient id="_lgradient_38" x1="-0.3785513643289411" y1="0.3429176373663316" x2="1.6142347134696415" y2="2.0716387840632353" gradientTransform="matrix(26.542,0,0,96.613,25.113,2.387)" gradientUnits="userSpaceOnUse"><stop offset="0%" stop-opacity="0" style="stop-color:rgb(0,0,0)"/><stop offset="100%" stop-opacity="1" style="stop-color:rgb(167,25,70)"/></linearGradient><path d=" M 51.622 41.912 C 50.971 58.199 50.319 74.487 49.668 90.775 C 49.016 101.85 27.734 101.633 27.082 90.775 C 26.431 74.487 25.779 58.199 25.128 41.912 C 24.694 30.402 33.815 31.27 33.815 23.67 C 33.815 15.852 33.597 10.422 33.597 3.473 C 33.597 2.821 34.032 2.387 34.683 2.387 C 37.072 2.387 39.461 2.387 41.85 2.387 C 42.501 2.387 42.936 2.821 42.936 3.473 C 42.936 10.205 42.719 15.634 42.719 23.235 C 42.936 31.488 52.274 30.184 51.622 41.912" fill-rule="evenodd" fill="url(#_lgradient_38)"/><mask id="_mask_rlbNaXMBDwuCsPY38ySw3vs7Oxz2jYld" x="-200%" y="-200%" width="400%" height="400%"><rect x="-200%" y="-200%" width="400%" height="400%" style="fill:white;"/><path d=" M 50.529 42.454 C 49.932 58.303 49.335 74.152 48.737 90.001 C 48.63 99.4 34.195 99.843 29.874 94.855" fill-rule="evenodd" fill="black" stroke="none"/></mask><path d=" M 50.529 42.454 C 49.932 58.303 49.335 74.152 48.737 90.001 C 48.63 99.4 34.195 99.843 29.874 94.855" fill-rule="evenodd" fill="none"/><linearGradient id="_lgradient_39" x1="-0.17712182468953364" y1="0.153819180967377" x2="1.0014476372647048" y2="0.153819180967377"><stop offset="0%" stop-opacity="0" style="stop-color:rgb(255,255,255)"/><stop offset="73%" stop-opacity="0.278431" style="stop-color:rgb(255,255,255)"/><stop offset="88%" stop-opacity="0.403922" style="stop-color:rgb(255,255,255)"/><stop offset="100%" stop-opacity="0" style="stop-color:rgb(255,255,255)"/></linearGradient><path d=" M 50.529 42.454 C 49.932 58.303 49.335 74.152 48.737 90.001 C 48.63 99.4 34.195 99.843 29.874 94.855" fill-rule="evenodd" fill="none" mask="url(#_mask_rlbNaXMBDwuCsPY38ySw3vs7Oxz2jYld)" vector-effect="non-scaling-stroke" stroke-width="6.68" stroke="url(#_lgradient_39)" stroke-linejoin="miter" stroke-linecap="round" stroke-miterlimit="4"/><linearGradient id="_lgradient_40" x1="-0.08354482186208578" y1="0.32398978727852334" x2="2.365104717437937" y2="1.444472102273883" gradientTransform="matrix(6.081,0,0,16.803,32.303,16.23)" gradientUnits="userSpaceOnUse"><stop offset="0%" stop-opacity="0.75" style="stop-color:rgb(255,255,255)"/><stop offset="100%" stop-opacity="0" style="stop-color:rgb(166,166,166)"/></linearGradient><path d=" M 35.366 16.23 C 35.366 16.23 35.869 24.082 35.366 26.716 C 34.983 28.717 31.911 31.057 32.344 32.029 C 32.778 33.002 37.03 33.438 37.967 32.552 C 38.904 31.667 37.967 28.661 37.967 26.716 C 37.967 23.995 37.967 17.244 37.967 17.244 C 36.977 17.117 36.138 16.732 35.366 16.23 L 35.366 16.23 Z " fill-rule="evenodd" fill="url(#_lgradient_40)"/><linearGradient id="_lgradient_41" x1="-0.0681297223872992" y1="0.5167722289895147" x2="0.8930299685881664" y2="0.5167722289895147" gradientTransform="matrix(7.051,0,0,45.265,27.631,42.454)" gradientUnits="userSpaceOnUse"><stop offset="0%" stop-opacity="0.270588" style="stop-color:rgb(255,255,255)"/><stop offset="100%" stop-opacity="0" style="stop-color:rgb(0,0,0)"/></linearGradient><path d=" M 27.631 42.454 C 27.631 42.454 28.979 43.338 30.261 43.574 C 31.753 43.848 33.718 43.917 33.718 43.917 L 34.683 84.711 C 34.683 84.711 34.21 87.84 32.279 87.716 C 30.313 87.59 29.466 85.777 29.311 84.269 C 28.537 76.725 27.631 42.454 27.631 42.454 L 27.631 42.454 Z " fill-rule="evenodd" fill="url(#_lgradient_41)"/></g></g><path d=" M 116.62 48.74 L 116.62 48.74 Q 122.14 49.78 125.62 52.82 L 125.62 52.82 L 125.62 52.82 Q 129.1 55.86 129.1 61.94 L 129.1 61.94 L 129.1 61.94 Q 129.1 70.82 122.74 74.46 L 122.74 74.46 L 122.74 74.46 Q 116.38 78.1 104.94 78.1 L 104.94 78.1 L 87.1 78.1 L 87.1 22.66 L 102.78 22.66 L 102.78 22.66 Q 114.46 22.66 120.62 25.98 L 120.62 25.98 L 120.62 25.98 Q 126.78 29.3 126.78 36.82 L 126.78 36.82 L 126.78 36.82 Q 126.78 41.7 123.86 44.7 L 123.86 44.7 L 123.86 44.7 Q 120.94 47.7 116.62 48.74 L 116.62 48.74 L 116.62 48.74 Z  M 104.06 31.94 L 100.22 31.94 L 100.22 44.82 L 105.1 44.82 L 105.1 44.82 Q 113.42 44.82 113.42 38.1 L 113.42 38.1 L 113.42 38.1 Q 113.42 34.74 111.18 33.34 L 111.18 33.34 L 111.18 33.34 Q 108.94 31.94 104.06 31.94 L 104.06 31.94 L 104.06 31.94 Z  M 105.02 68.58 L 105.02 68.58 Q 110.22 68.58 112.9 67.02 L 112.9 67.02 L 112.9 67.02 Q 115.58 65.46 115.58 61.22 L 115.58 61.22 L 115.58 61.22 Q 115.58 53.54 105.98 53.54 L 105.98 53.54 L 100.22 53.54 L 100.22 68.58 L 105.02 68.58 L 105.02 68.58 Z  M 154.62 34.26 L 154.62 34.26 Q 164.38 34.26 169.9 40.22 L 169.9 40.22 L 169.9 40.22 Q 175.42 46.18 175.42 56.9 L 175.42 56.9 L 175.42 56.9 Q 175.42 63.7 172.9 68.78 L 172.9 68.78 L 172.9 68.78 Q 170.38 73.86 165.7 76.66 L 165.7 76.66 L 165.7 76.66 Q 161.02 79.46 154.62 79.46 L 154.62 79.46 L 154.62 79.46 Q 144.94 79.46 139.38 73.5 L 139.38 73.5 L 139.38 73.5 Q 133.82 67.54 133.82 56.82 L 133.82 56.82 L 133.82 56.82 Q 133.82 50.02 136.34 44.94 L 136.34 44.94 L 136.34 44.94 Q 138.86 39.86 143.54 37.06 L 143.54 37.06 L 143.54 37.06 Q 148.22 34.26 154.62 34.26 L 154.62 34.26 L 154.62 34.26 Z  M 154.62 43.54 L 154.62 43.54 Q 150.78 43.54 148.86 46.78 L 148.86 46.78 L 148.86 46.78 Q 146.94 50.02 146.94 56.82 L 146.94 56.82 L 146.94 56.82 Q 146.94 63.78 148.82 66.98 L 148.82 66.98 L 148.82 66.98 Q 150.7 70.18 154.62 70.18 L 154.62 70.18 L 154.62 70.18 Q 158.46 70.18 160.38 66.94 L 160.38 66.94 L 160.38 66.94 Q 162.3 63.7 162.3 56.9 L 162.3 56.9 L 162.3 56.9 Q 162.3 49.94 160.42 46.74 L 160.42 46.74 L 160.42 46.74 Q 158.54 43.54 154.62 43.54 L 154.62 43.54 L 154.62 43.54 Z  M 205.34 68.1 L 209.58 76.1 L 209.58 76.1 Q 207.26 77.7 204.18 78.58 L 204.18 78.58 L 204.18 78.58 Q 201.1 79.46 198.06 79.46 L 198.06 79.46 L 198.06 79.46 Q 184.14 79.38 184.14 64.1 L 184.14 64.1 L 184.14 44.42 L 178.14 44.42 L 178.14 35.62 L 184.14 35.62 L 184.14 26.42 L 196.78 24.98 L 196.78 35.62 L 206.54 35.62 L 205.18 44.42 L 196.78 44.42 L 196.78 63.94 L 196.78 63.94 Q 196.78 66.9 197.74 68.18 L 197.74 68.18 L 197.74 68.18 Q 198.7 69.46 200.78 69.46 L 200.78 69.46 L 200.78 69.46 Q 202.94 69.46 205.34 68.1 L 205.34 68.1 L 205.34 68.1 Z  M 236.22 68.1 L 240.46 76.1 L 240.46 76.1 Q 238.14 77.7 235.06 78.58 L 235.06 78.58 L 235.06 78.58 Q 231.98 79.46 228.94 79.46 L 228.94 79.46 L 228.94 79.46 Q 215.02 79.38 215.02 64.1 L 215.02 64.1 L 215.02 44.42 L 209.02 44.42 L 209.02 35.62 L 215.02 35.62 L 215.02 26.42 L 227.66 24.98 L 227.66 35.62 L 237.42 35.62 L 236.06 44.42 L 227.66 44.42 L 227.66 63.94 L 227.66 63.94 Q 227.66 66.9 228.62 68.18 L 228.62 68.18 L 228.62 68.18 Q 229.58 69.46 231.66 69.46 L 231.66 69.46 L 231.66 69.46 Q 233.82 69.46 236.22 68.1 L 236.22 68.1 L 236.22 68.1 Z  M 255.98 79.46 L 255.98 79.46 Q 250.46 79.46 247.38 76.3 L 247.38 76.3 L 247.38 76.3 Q 244.3 73.14 244.3 67.3 L 244.3 67.3 L 244.3 18.74 L 256.94 17.38 L 256.94 66.82 L 256.94 66.82 Q 256.94 69.46 259.1 69.46 L 259.1 69.46 L 259.1 69.46 Q 260.22 69.46 261.18 69.06 L 261.18 69.06 L 263.66 78.02 L 263.66 78.02 Q 260.22 79.46 255.98 79.46 L 255.98 79.46 L 255.98 79.46 Z  M 305.5 56.02 L 305.5 56.02 Q 305.5 58.66 305.26 60.58 L 305.26 60.58 L 278.94 60.58 L 278.94 60.58 Q 279.58 65.94 281.98 68.1 L 281.98 68.1 L 281.98 68.1 Q 284.38 70.26 288.62 70.26 L 288.62 70.26 L 288.62 70.26 Q 291.18 70.26 293.58 69.34 L 293.58 69.34 L 293.58 69.34 Q 295.98 68.42 298.78 66.5 L 298.78 66.5 L 303.98 73.54 L 303.98 73.54 Q 296.54 79.46 287.42 79.46 L 287.42 79.46 L 287.42 79.46 Q 277.1 79.46 271.58 73.38 L 271.58 73.38 L 271.58 73.38 Q 266.06 67.3 266.06 57.06 L 266.06 57.06 L 266.06 57.06 Q 266.06 50.58 268.38 45.42 L 268.38 45.42 L 268.38 45.42 Q 270.7 40.26 275.18 37.26 L 275.18 37.26 L 275.18 37.26 Q 279.66 34.26 285.9 34.26 L 285.9 34.26 L 285.9 34.26 Q 295.1 34.26 300.3 40.02 L 300.3 40.02 L 300.3 40.02 Q 305.5 45.78 305.5 56.02 L 305.5 56.02 L 305.5 56.02 Z  M 293.1 52.98 L 293.1 52.42 L 293.1 52.42 Q 292.94 42.66 286.22 42.66 L 286.22 42.66 L 286.22 42.66 Q 282.94 42.66 281.14 45.06 L 281.14 45.06 L 281.14 45.06 Q 279.34 47.46 278.94 52.98 L 278.94 52.98 L 293.1 52.98 L 293.1 52.98 Z  M 327.58 34.26 L 327.58 34.26 Q 332.14 34.26 336.14 35.62 L 336.14 35.62 L 336.14 35.62 Q 340.14 36.98 343.18 39.46 L 343.18 39.46 L 338.54 46.58 L 338.54 46.58 Q 333.34 43.3 328.06 43.3 L 328.06 43.3 L 328.06 43.3 Q 325.58 43.3 324.26 44.14 L 324.26 44.14 L 324.26 44.14 Q 322.94 44.98 322.94 46.5 L 322.94 46.5 L 322.94 46.5 Q 322.94 47.7 323.54 48.46 L 323.54 48.46 L 323.54 48.46 Q 324.14 49.22 325.98 50.02 L 325.98 50.02 L 325.98 50.02 Q 327.82 50.82 331.66 51.94 L 331.66 51.94 L 331.66 51.94 Q 338.3 53.86 341.54 56.94 L 341.54 56.94 L 341.54 56.94 Q 344.78 60.02 344.78 65.46 L 344.78 65.46 L 344.78 65.46 Q 344.78 69.78 342.3 72.94 L 342.3 72.94 L 342.3 72.94 Q 339.82 76.1 335.5 77.78 L 335.5 77.78 L 335.5 77.78 Q 331.18 79.46 325.9 79.46 L 325.9 79.46 L 325.9 79.46 Q 320.54 79.46 315.94 77.78 L 315.94 77.78 L 315.94 77.78 Q 311.34 76.1 308.14 73.14 L 308.14 73.14 L 314.3 66.26 L 314.3 66.26 Q 319.66 70.42 325.58 70.42 L 325.58 70.42 L 325.58 70.42 Q 328.46 70.42 330.1 69.38 L 330.1 69.38 L 330.1 69.38 Q 331.74 68.34 331.74 66.42 L 331.74 66.42 L 331.74 66.42 Q 331.74 64.9 331.1 64.02 L 331.1 64.02 L 331.1 64.02 Q 330.46 63.14 328.62 62.38 L 328.62 62.38 L 328.62 62.38 Q 326.78 61.62 322.78 60.5 L 322.78 60.5 L 322.78 60.5 Q 316.46 58.66 313.34 55.38 L 313.34 55.38 L 313.34 55.38 Q 310.22 52.1 310.22 47.22 L 310.22 47.22 L 310.22 47.22 Q 310.22 43.54 312.34 40.62 L 312.34 40.62 L 312.34 40.62 Q 314.46 37.7 318.42 35.98 L 318.42 35.98 L 318.42 35.98 Q 322.38 34.26 327.58 34.26 L 327.58 34.26 L 327.58 34.26 Z " fill="rgb(0,0,0)"/></g></svg>