<svg width="920" height="393" viewBox="0 0 920 393" fill="none" xmlns="http://www.w3.org/2000/svg">
<path d="M328.392 219V205.336H346.984C350.419 205.336 353.107 204.328 355.048 202.312C356.989 200.296 357.96 197.832 357.96 194.92C357.96 192.904 357.512 191.112 356.616 189.544C355.72 187.976 354.451 186.744 352.808 185.848C351.24 184.952 349.299 184.504 346.984 184.504H328.392V171.176H345.528C348.44 171.176 350.792 170.467 352.584 169.048C354.376 167.555 355.272 165.315 355.272 162.328C355.272 159.416 354.376 157.251 352.584 155.832C350.792 154.339 348.44 153.592 345.528 153.592H328.392V139.928H348.888C353.965 139.928 358.259 140.861 361.768 142.728C365.352 144.595 368.077 147.096 369.944 150.232C371.811 153.368 372.744 156.84 372.744 160.648C372.744 165.501 371.176 169.608 368.04 172.968C364.904 176.328 360.275 178.643 354.152 179.912L354.6 173.976C361.245 175.245 366.36 177.821 369.944 181.704C373.603 185.587 375.432 190.365 375.432 196.04C375.432 200.371 374.349 204.291 372.184 207.8C370.093 211.235 367.032 213.96 363 215.976C359.043 217.992 354.264 219 348.664 219H328.392ZM314.952 219V139.928H332.312V219H314.952Z" fill="black"/>
<path d="M411.342 220.232C405.742 220.232 400.665 219 396.11 216.536C391.63 213.997 388.083 210.563 385.47 206.232C382.857 201.901 381.55 197.048 381.55 191.672C381.55 186.296 382.857 181.48 385.47 177.224C388.083 172.968 391.63 169.608 396.11 167.144C400.59 164.605 405.667 163.336 411.342 163.336C417.017 163.336 422.094 164.568 426.574 167.032C431.054 169.496 434.601 172.893 437.214 177.224C439.827 181.48 441.134 186.296 441.134 191.672C441.134 197.048 439.827 201.901 437.214 206.232C434.601 210.563 431.054 213.997 426.574 216.536C422.094 219 417.017 220.232 411.342 220.232ZM411.342 204.664C413.806 204.664 415.971 204.141 417.838 203.096C419.705 201.976 421.123 200.445 422.094 198.504C423.139 196.488 423.662 194.211 423.662 191.672C423.662 189.133 423.139 186.931 422.094 185.064C421.049 183.123 419.593 181.629 417.726 180.584C415.934 179.464 413.806 178.904 411.342 178.904C408.953 178.904 406.825 179.464 404.958 180.584C403.091 181.629 401.635 183.123 400.59 185.064C399.545 187.005 399.022 189.245 399.022 191.784C399.022 194.248 399.545 196.488 400.59 198.504C401.635 200.445 403.091 201.976 404.958 203.096C406.825 204.141 408.953 204.664 411.342 204.664Z" fill="black"/>
<path d="M457.393 219V142.056H474.529V219H457.393ZM445.073 179.128V164.568H521.345V179.128H445.073ZM491.889 219V142.056H509.025V219H491.889Z" fill="black"/>
<path d="M528.853 219V137.688H545.989V219H528.853Z" fill="black"/>
<path d="M584.936 220.232C579.037 220.232 573.773 219.037 569.144 216.648C564.589 214.184 561.005 210.787 558.392 206.456C555.778 202.125 554.472 197.235 554.472 191.784C554.472 186.333 555.741 181.48 558.28 177.224C560.893 172.893 564.402 169.496 568.808 167.032C573.213 164.568 578.178 163.336 583.704 163.336C589.08 163.336 593.821 164.493 597.928 166.808C602.034 169.123 605.245 172.333 607.56 176.44C609.949 180.547 611.144 185.251 611.144 190.552C611.144 191.523 611.069 192.568 610.92 193.688C610.845 194.733 610.658 195.965 610.36 197.384L563.432 197.496V185.736L603.08 185.624L595.688 190.552C595.613 187.416 595.128 184.84 594.232 182.824C593.336 180.733 591.992 179.165 590.2 178.12C588.482 177 586.354 176.44 583.816 176.44C581.128 176.44 578.776 177.075 576.76 178.344C574.818 179.539 573.288 181.256 572.168 183.496C571.122 185.736 570.6 188.461 570.6 191.672C570.6 194.883 571.16 197.645 572.28 199.96C573.474 202.2 575.117 203.955 577.208 205.224C579.373 206.419 581.912 207.016 584.824 207.016C587.512 207.016 589.938 206.568 592.104 205.672C594.269 204.701 596.173 203.283 597.816 201.416L607.224 210.824C604.536 213.96 601.288 216.312 597.48 217.88C593.672 219.448 589.49 220.232 584.936 220.232Z" fill="black"/>
<path d="M639.239 220.344C636.029 220.344 632.855 219.933 629.719 219.112C626.658 218.291 623.783 217.133 621.095 215.64C618.482 214.072 616.242 212.28 614.375 210.264L624.119 200.408C625.911 202.349 628.039 203.88 630.503 205C632.967 206.045 635.655 206.568 638.567 206.568C640.583 206.568 642.114 206.269 643.159 205.672C644.279 205.075 644.839 204.253 644.839 203.208C644.839 201.864 644.167 200.856 642.823 200.184C641.554 199.437 639.911 198.803 637.895 198.28C635.879 197.683 633.751 197.048 631.511 196.376C629.271 195.704 627.143 194.771 625.127 193.576C623.111 192.381 621.469 190.739 620.199 188.648C618.93 186.483 618.295 183.757 618.295 180.472C618.295 176.963 619.191 173.939 620.983 171.4C622.775 168.787 625.314 166.733 628.599 165.24C631.885 163.747 635.73 163 640.135 163C644.765 163 649.021 163.821 652.903 165.464C656.861 167.032 660.071 169.384 662.535 172.52L652.791 182.376C651.074 180.36 649.133 178.941 646.967 178.12C644.877 177.299 642.823 176.888 640.807 176.888C638.866 176.888 637.41 177.187 636.439 177.784C635.469 178.307 634.983 179.091 634.983 180.136C634.983 181.256 635.618 182.152 636.887 182.824C638.157 183.496 639.799 184.093 641.815 184.616C643.831 185.139 645.959 185.773 648.199 186.52C650.439 187.267 652.567 188.275 654.583 189.544C656.599 190.813 658.242 192.531 659.511 194.696C660.781 196.787 661.415 199.549 661.415 202.984C661.415 208.285 659.399 212.504 655.367 215.64C651.41 218.776 646.034 220.344 639.239 220.344Z" fill="black"/>
<mask id="path-2-outside-1_1_2" maskUnits="userSpaceOnUse" x="561.951" y="174.064" width="186" height="96" fill="black">
<rect fill="white" x="561.951" y="174.064" width="186" height="96"/>
<path d="M623.039 253.632C623.039 254.379 622.703 255.051 622.031 255.648C621.359 256.245 620.612 256.544 619.791 256.544C619.641 256.544 619.417 256.469 619.119 256.32C618.82 256.096 618.596 255.909 618.447 255.76C615.311 252.773 611.988 249.824 608.479 246.912C604.969 244 601.423 241.013 597.839 237.952C594.255 234.891 590.708 231.68 587.199 228.32C583.764 224.96 580.516 221.301 577.455 217.344C578.425 221.376 579.732 225.669 581.375 230.224C583.017 234.704 584.585 238.923 586.079 242.88C587.647 246.837 588.991 250.272 590.111 253.184C591.231 256.021 591.791 257.813 591.791 258.56C591.791 259.456 591.417 260.165 590.671 260.688C589.999 261.285 589.289 261.584 588.543 261.584C588.095 261.584 587.609 261.099 587.087 260.128C586.564 259.232 585.967 258.037 585.295 256.544C584.697 255.051 584.063 253.408 583.391 251.616C582.793 249.749 582.196 247.92 581.599 246.128C581.001 244.261 580.441 242.544 579.919 240.976C579.396 239.333 578.985 237.989 578.687 236.944L575.663 227.872C574.991 225.931 574.319 223.952 573.647 221.936C572.975 219.845 572.34 217.904 571.743 216.112C571.22 214.32 570.772 212.752 570.399 211.408C570.1 210.064 569.951 209.168 569.951 208.72C569.951 207.899 570.063 207.077 570.287 206.256C570.511 205.36 570.921 204.912 571.519 204.912C571.892 204.912 572.153 205.024 572.303 205.248C572.452 205.397 572.601 205.472 572.751 205.472L574.095 204.912C574.468 204.912 575.103 205.397 575.999 206.368C576.969 207.264 578.052 208.459 579.247 209.952C580.516 211.445 581.86 213.125 583.279 214.992C584.697 216.859 586.116 218.688 587.535 220.48C589.028 222.272 590.409 223.952 591.679 225.52C593.023 227.088 594.217 228.32 595.263 229.216C596.905 230.709 598.548 232.128 600.191 233.472C601.833 234.816 603.476 236.197 605.119 237.616C606.836 238.96 608.628 240.416 610.495 241.984C612.361 243.552 614.415 245.344 616.655 247.36C616.729 247.435 616.916 247.472 617.215 247.472C617.364 247.472 617.439 247.285 617.439 246.912C617.439 246.539 617.439 246.091 617.439 245.568C617.439 244.523 617.14 242.656 616.543 239.968C615.945 237.205 615.087 234.032 613.967 230.448C612.921 226.789 611.689 222.907 610.271 218.8C608.852 214.619 607.321 210.624 605.679 206.816C604.111 202.933 602.431 199.424 600.639 196.288C598.921 193.152 597.241 190.725 595.599 189.008C595.151 188.56 594.815 187.888 594.591 186.992C594.441 186.096 594.367 185.349 594.367 184.752C594.367 184.229 594.703 183.669 595.375 183.072C596.121 182.4 596.793 182.064 597.391 182.064C598.287 182.064 599.295 182.96 600.415 184.752C601.535 186.544 602.729 188.896 603.999 191.808C605.268 194.645 606.537 197.856 607.807 201.44C609.151 205.024 610.457 208.645 611.727 212.304C613.22 216.635 614.601 220.928 615.871 225.184C617.215 229.365 618.372 233.285 619.343 236.944C620.388 240.603 621.209 243.888 621.807 246.8C622.479 249.712 622.889 251.989 623.039 253.632Z"/>
<path d="M658.616 246.24C658.691 246.389 658.728 246.613 658.728 246.912C658.728 247.36 658.392 248.032 657.72 248.928C657.496 249.227 657.011 249.712 656.264 250.384C655.517 251.056 654.509 251.728 653.24 252.4C651.971 253.072 650.403 253.669 648.536 254.192C646.744 254.715 644.616 254.976 642.152 254.976C640.435 254.976 638.755 254.603 637.112 253.856C635.469 253.035 634.013 251.877 632.744 250.384C631.475 248.816 630.429 246.912 629.608 244.672C628.787 242.357 628.376 239.669 628.376 236.608C628.376 233.696 628.749 230.971 629.496 228.432C630.243 225.893 631.176 223.653 632.296 221.712C633.491 219.771 634.797 218.24 636.216 217.12C637.635 216 639.016 215.44 640.36 215.44C641.555 215.44 642.749 215.701 643.944 216.224C645.213 216.672 646.333 217.269 647.304 218.016C648.349 218.763 649.171 219.621 649.768 220.592C650.365 221.488 650.664 222.421 650.664 223.392C650.664 224.512 650.141 225.669 649.096 226.864C648.125 228.059 646.931 229.179 645.512 230.224C644.093 231.195 642.675 232.016 641.256 232.688C639.837 233.285 638.717 233.584 637.896 233.584C637.448 233.584 637.037 233.397 636.664 233.024C636.365 232.576 636.216 232.053 636.216 231.456C636.216 230.411 636.664 229.589 637.56 228.992C638.531 228.395 639.576 227.872 640.696 227.424C641.816 226.901 642.824 226.304 643.72 225.632C644.691 224.96 645.176 224.027 645.176 222.832C645.176 222.683 644.989 222.309 644.616 221.712C644.243 221.115 643.235 220.816 641.592 220.816C640.845 220.816 639.987 221.264 639.016 222.16C638.045 222.981 637.112 224.139 636.216 225.632C635.32 227.051 634.573 228.768 633.976 230.784C633.379 232.725 633.08 234.853 633.08 237.168C633.08 239.109 633.416 240.864 634.088 242.432C634.835 244 635.768 245.344 636.888 246.464C638.008 247.509 639.315 248.331 640.808 248.928C642.301 249.525 643.832 249.824 645.4 249.824C646.52 249.824 647.715 249.6 648.984 249.152C650.328 248.629 651.56 248.107 652.68 247.584C653.875 246.987 654.883 246.464 655.704 246.016C656.6 245.493 657.16 245.232 657.384 245.232C657.608 245.232 657.832 245.344 658.056 245.568C658.355 245.792 658.541 246.016 658.616 246.24Z"/>
<path d="M699.231 247.584C699.231 249.003 698.783 249.973 697.887 250.496C697.066 251.019 696.17 251.28 695.199 251.28C693.482 251.28 691.54 250.533 689.375 249.04C687.21 247.472 684.932 245.717 682.543 243.776C682.468 243.925 682.244 244.747 681.871 246.24C681.572 247.659 681.124 249.227 680.527 250.944C680.004 252.661 679.332 254.229 678.511 255.648C677.69 257.067 676.756 257.776 675.711 257.776C674.964 257.776 674.367 257.515 673.919 256.992C673.471 256.395 673.247 255.984 673.247 255.76C673.247 255.237 673.508 254.267 674.031 252.848C674.554 251.355 675.114 249.787 675.711 248.144C676.308 246.427 676.868 244.821 677.391 243.328C677.914 241.835 678.175 240.752 678.175 240.08C678.175 239.781 677.578 238.848 676.383 237.28C675.188 235.712 673.882 233.883 672.463 231.792C671.044 229.627 669.738 227.349 668.543 224.96C667.348 222.571 666.751 220.368 666.751 218.352C666.751 217.829 666.975 217.307 667.423 216.784C667.871 216.261 668.282 216 668.655 216C669.103 216 669.7 216.187 670.447 216.56C671.268 216.859 671.754 217.307 671.903 217.904C672.65 220.368 673.62 223.019 674.815 225.856C676.01 228.619 677.802 231.307 680.191 233.92C680.415 233.099 680.676 231.979 680.975 230.56C681.274 229.141 681.61 227.611 681.983 225.968C682.356 224.325 682.73 222.683 683.103 221.04C683.551 219.397 683.962 217.904 684.335 216.56C684.783 215.216 685.194 214.133 685.567 213.312C685.94 212.491 686.314 212.08 686.687 212.08C687.06 212.08 687.62 212.229 688.367 212.528C689.188 212.752 689.599 213.275 689.599 214.096C689.599 214.096 689.487 214.731 689.263 216C689.039 217.195 688.74 218.651 688.367 220.368C687.994 222.085 687.583 223.952 687.135 225.968C686.687 227.909 686.239 229.664 685.791 231.232C685.716 231.456 685.567 231.867 685.343 232.464C685.194 233.061 685.007 233.696 684.783 234.368C684.634 235.04 684.484 235.675 684.335 236.272C684.186 236.795 684.111 237.131 684.111 237.28C684.111 237.952 684.634 238.773 685.679 239.744C686.799 240.64 688.031 241.536 689.375 242.432C690.719 243.253 691.988 243.963 693.183 244.56C694.452 245.157 695.236 245.456 695.535 245.456C695.759 245.456 696.058 245.419 696.431 245.344C696.804 245.269 697.103 245.232 697.327 245.232C697.924 245.232 698.372 245.568 698.671 246.24C699.044 246.912 699.231 247.36 699.231 247.584Z"/>
<path d="M737.332 207.376C736.361 208.496 734.98 209.616 733.188 210.736C731.396 211.781 729.604 212.752 727.812 213.648C726.02 214.544 724.452 215.328 723.108 216C721.764 216.597 721.092 217.008 721.092 217.232C721.092 217.456 721.241 218.128 721.54 219.248C721.839 220.368 722.175 221.712 722.548 223.28C722.996 224.773 723.444 226.341 723.892 227.984C724.34 229.627 724.713 231.083 725.012 232.352C725.161 233.099 725.348 234.069 725.572 235.264C725.796 236.459 725.983 237.653 726.132 238.848C726.356 240.043 726.543 241.125 726.692 242.096C726.841 242.992 726.916 243.477 726.916 243.552C726.916 244.672 726.729 245.829 726.356 247.024C725.983 248.219 725.385 248.816 724.564 248.816C724.116 248.816 723.705 248.629 723.332 248.256C722.959 247.883 722.623 247.472 722.324 247.024C722.025 246.501 721.801 246.016 721.652 245.568C721.503 245.12 721.428 244.784 721.428 244.56C721.428 244.411 721.428 244.187 721.428 243.888C721.503 243.589 721.54 243.253 721.54 242.88C721.54 241.461 721.316 239.408 720.868 236.72C720.719 235.899 720.42 234.629 719.972 232.912C719.524 231.195 719.076 229.44 718.628 227.648C718.105 225.557 717.508 223.28 716.836 220.816C716.537 219.771 716.351 219.248 716.276 219.248C715.753 219.248 714.857 219.584 713.588 220.256C712.393 220.853 711.012 221.637 709.444 222.608C707.876 223.504 706.233 224.512 704.516 225.632C702.799 226.677 701.193 227.685 699.7 228.656C698.207 229.552 696.937 230.336 695.892 231.008C694.772 231.605 694.1 231.904 693.876 231.904C692.905 231.904 692.121 231.568 691.524 230.896C690.927 230.224 690.628 229.477 690.628 228.656C690.628 228.208 691.263 227.573 692.532 226.752C693.727 225.856 695.257 224.885 697.124 223.84C698.916 222.795 700.895 221.712 703.06 220.592C705.151 219.472 707.092 218.464 708.884 217.568C710.751 216.672 712.281 215.925 713.476 215.328C714.745 214.731 715.38 214.432 715.38 214.432C714.708 210.997 714.148 207.936 713.7 205.248C713.327 202.933 712.953 200.805 712.58 198.864C712.281 196.923 712.132 195.877 712.132 195.728C712.132 194.757 712.319 194.048 712.692 193.6C713.14 193.077 713.625 192.816 714.148 192.816C714.969 192.816 715.492 193.376 715.716 194.496C716.537 198.528 717.284 202.112 717.956 205.248C718.703 208.384 719.412 210.923 720.084 212.864C720.756 212.715 721.913 212.304 723.556 211.632C725.199 210.885 726.916 210.101 728.708 209.28C730.5 208.459 732.105 207.749 733.524 207.152C735.017 206.48 735.876 206.144 736.1 206.144C736.548 206.144 736.809 206.293 736.884 206.592C737.033 206.891 737.183 207.152 737.332 207.376Z"/>
</mask>
<path d="M623.039 253.632C623.039 254.379 622.703 255.051 622.031 255.648C621.359 256.245 620.612 256.544 619.791 256.544C619.641 256.544 619.417 256.469 619.119 256.32C618.82 256.096 618.596 255.909 618.447 255.76C615.311 252.773 611.988 249.824 608.479 246.912C604.969 244 601.423 241.013 597.839 237.952C594.255 234.891 590.708 231.68 587.199 228.32C583.764 224.96 580.516 221.301 577.455 217.344C578.425 221.376 579.732 225.669 581.375 230.224C583.017 234.704 584.585 238.923 586.079 242.88C587.647 246.837 588.991 250.272 590.111 253.184C591.231 256.021 591.791 257.813 591.791 258.56C591.791 259.456 591.417 260.165 590.671 260.688C589.999 261.285 589.289 261.584 588.543 261.584C588.095 261.584 587.609 261.099 587.087 260.128C586.564 259.232 585.967 258.037 585.295 256.544C584.697 255.051 584.063 253.408 583.391 251.616C582.793 249.749 582.196 247.92 581.599 246.128C581.001 244.261 580.441 242.544 579.919 240.976C579.396 239.333 578.985 237.989 578.687 236.944L575.663 227.872C574.991 225.931 574.319 223.952 573.647 221.936C572.975 219.845 572.34 217.904 571.743 216.112C571.22 214.32 570.772 212.752 570.399 211.408C570.1 210.064 569.951 209.168 569.951 208.72C569.951 207.899 570.063 207.077 570.287 206.256C570.511 205.36 570.921 204.912 571.519 204.912C571.892 204.912 572.153 205.024 572.303 205.248C572.452 205.397 572.601 205.472 572.751 205.472L574.095 204.912C574.468 204.912 575.103 205.397 575.999 206.368C576.969 207.264 578.052 208.459 579.247 209.952C580.516 211.445 581.86 213.125 583.279 214.992C584.697 216.859 586.116 218.688 587.535 220.48C589.028 222.272 590.409 223.952 591.679 225.52C593.023 227.088 594.217 228.32 595.263 229.216C596.905 230.709 598.548 232.128 600.191 233.472C601.833 234.816 603.476 236.197 605.119 237.616C606.836 238.96 608.628 240.416 610.495 241.984C612.361 243.552 614.415 245.344 616.655 247.36C616.729 247.435 616.916 247.472 617.215 247.472C617.364 247.472 617.439 247.285 617.439 246.912C617.439 246.539 617.439 246.091 617.439 245.568C617.439 244.523 617.14 242.656 616.543 239.968C615.945 237.205 615.087 234.032 613.967 230.448C612.921 226.789 611.689 222.907 610.271 218.8C608.852 214.619 607.321 210.624 605.679 206.816C604.111 202.933 602.431 199.424 600.639 196.288C598.921 193.152 597.241 190.725 595.599 189.008C595.151 188.56 594.815 187.888 594.591 186.992C594.441 186.096 594.367 185.349 594.367 184.752C594.367 184.229 594.703 183.669 595.375 183.072C596.121 182.4 596.793 182.064 597.391 182.064C598.287 182.064 599.295 182.96 600.415 184.752C601.535 186.544 602.729 188.896 603.999 191.808C605.268 194.645 606.537 197.856 607.807 201.44C609.151 205.024 610.457 208.645 611.727 212.304C613.22 216.635 614.601 220.928 615.871 225.184C617.215 229.365 618.372 233.285 619.343 236.944C620.388 240.603 621.209 243.888 621.807 246.8C622.479 249.712 622.889 251.989 623.039 253.632Z" fill="#FF007A" fill-opacity="0.854902"/>
<path d="M658.616 246.24C658.691 246.389 658.728 246.613 658.728 246.912C658.728 247.36 658.392 248.032 657.72 248.928C657.496 249.227 657.011 249.712 656.264 250.384C655.517 251.056 654.509 251.728 653.24 252.4C651.971 253.072 650.403 253.669 648.536 254.192C646.744 254.715 644.616 254.976 642.152 254.976C640.435 254.976 638.755 254.603 637.112 253.856C635.469 253.035 634.013 251.877 632.744 250.384C631.475 248.816 630.429 246.912 629.608 244.672C628.787 242.357 628.376 239.669 628.376 236.608C628.376 233.696 628.749 230.971 629.496 228.432C630.243 225.893 631.176 223.653 632.296 221.712C633.491 219.771 634.797 218.24 636.216 217.12C637.635 216 639.016 215.44 640.36 215.44C641.555 215.44 642.749 215.701 643.944 216.224C645.213 216.672 646.333 217.269 647.304 218.016C648.349 218.763 649.171 219.621 649.768 220.592C650.365 221.488 650.664 222.421 650.664 223.392C650.664 224.512 650.141 225.669 649.096 226.864C648.125 228.059 646.931 229.179 645.512 230.224C644.093 231.195 642.675 232.016 641.256 232.688C639.837 233.285 638.717 233.584 637.896 233.584C637.448 233.584 637.037 233.397 636.664 233.024C636.365 232.576 636.216 232.053 636.216 231.456C636.216 230.411 636.664 229.589 637.56 228.992C638.531 228.395 639.576 227.872 640.696 227.424C641.816 226.901 642.824 226.304 643.72 225.632C644.691 224.96 645.176 224.027 645.176 222.832C645.176 222.683 644.989 222.309 644.616 221.712C644.243 221.115 643.235 220.816 641.592 220.816C640.845 220.816 639.987 221.264 639.016 222.16C638.045 222.981 637.112 224.139 636.216 225.632C635.32 227.051 634.573 228.768 633.976 230.784C633.379 232.725 633.08 234.853 633.08 237.168C633.08 239.109 633.416 240.864 634.088 242.432C634.835 244 635.768 245.344 636.888 246.464C638.008 247.509 639.315 248.331 640.808 248.928C642.301 249.525 643.832 249.824 645.4 249.824C646.52 249.824 647.715 249.6 648.984 249.152C650.328 248.629 651.56 248.107 652.68 247.584C653.875 246.987 654.883 246.464 655.704 246.016C656.6 245.493 657.16 245.232 657.384 245.232C657.608 245.232 657.832 245.344 658.056 245.568C658.355 245.792 658.541 246.016 658.616 246.24Z" fill="#FF007A" fill-opacity="0.854902"/>
<path d="M699.231 247.584C699.231 249.003 698.783 249.973 697.887 250.496C697.066 251.019 696.17 251.28 695.199 251.28C693.482 251.28 691.54 250.533 689.375 249.04C687.21 247.472 684.932 245.717 682.543 243.776C682.468 243.925 682.244 244.747 681.871 246.24C681.572 247.659 681.124 249.227 680.527 250.944C680.004 252.661 679.332 254.229 678.511 255.648C677.69 257.067 676.756 257.776 675.711 257.776C674.964 257.776 674.367 257.515 673.919 256.992C673.471 256.395 673.247 255.984 673.247 255.76C673.247 255.237 673.508 254.267 674.031 252.848C674.554 251.355 675.114 249.787 675.711 248.144C676.308 246.427 676.868 244.821 677.391 243.328C677.914 241.835 678.175 240.752 678.175 240.08C678.175 239.781 677.578 238.848 676.383 237.28C675.188 235.712 673.882 233.883 672.463 231.792C671.044 229.627 669.738 227.349 668.543 224.96C667.348 222.571 666.751 220.368 666.751 218.352C666.751 217.829 666.975 217.307 667.423 216.784C667.871 216.261 668.282 216 668.655 216C669.103 216 669.7 216.187 670.447 216.56C671.268 216.859 671.754 217.307 671.903 217.904C672.65 220.368 673.62 223.019 674.815 225.856C676.01 228.619 677.802 231.307 680.191 233.92C680.415 233.099 680.676 231.979 680.975 230.56C681.274 229.141 681.61 227.611 681.983 225.968C682.356 224.325 682.73 222.683 683.103 221.04C683.551 219.397 683.962 217.904 684.335 216.56C684.783 215.216 685.194 214.133 685.567 213.312C685.94 212.491 686.314 212.08 686.687 212.08C687.06 212.08 687.62 212.229 688.367 212.528C689.188 212.752 689.599 213.275 689.599 214.096C689.599 214.096 689.487 214.731 689.263 216C689.039 217.195 688.74 218.651 688.367 220.368C687.994 222.085 687.583 223.952 687.135 225.968C686.687 227.909 686.239 229.664 685.791 231.232C685.716 231.456 685.567 231.867 685.343 232.464C685.194 233.061 685.007 233.696 684.783 234.368C684.634 235.04 684.484 235.675 684.335 236.272C684.186 236.795 684.111 237.131 684.111 237.28C684.111 237.952 684.634 238.773 685.679 239.744C686.799 240.64 688.031 241.536 689.375 242.432C690.719 243.253 691.988 243.963 693.183 244.56C694.452 245.157 695.236 245.456 695.535 245.456C695.759 245.456 696.058 245.419 696.431 245.344C696.804 245.269 697.103 245.232 697.327 245.232C697.924 245.232 698.372 245.568 698.671 246.24C699.044 246.912 699.231 247.36 699.231 247.584Z" fill="#FF007A" fill-opacity="0.854902"/>
<path d="M737.332 207.376C736.361 208.496 734.98 209.616 733.188 210.736C731.396 211.781 729.604 212.752 727.812 213.648C726.02 214.544 724.452 215.328 723.108 216C721.764 216.597 721.092 217.008 721.092 217.232C721.092 217.456 721.241 218.128 721.54 219.248C721.839 220.368 722.175 221.712 722.548 223.28C722.996 224.773 723.444 226.341 723.892 227.984C724.34 229.627 724.713 231.083 725.012 232.352C725.161 233.099 725.348 234.069 725.572 235.264C725.796 236.459 725.983 237.653 726.132 238.848C726.356 240.043 726.543 241.125 726.692 242.096C726.841 242.992 726.916 243.477 726.916 243.552C726.916 244.672 726.729 245.829 726.356 247.024C725.983 248.219 725.385 248.816 724.564 248.816C724.116 248.816 723.705 248.629 723.332 248.256C722.959 247.883 722.623 247.472 722.324 247.024C722.025 246.501 721.801 246.016 721.652 245.568C721.503 245.12 721.428 244.784 721.428 244.56C721.428 244.411 721.428 244.187 721.428 243.888C721.503 243.589 721.54 243.253 721.54 242.88C721.54 241.461 721.316 239.408 720.868 236.72C720.719 235.899 720.42 234.629 719.972 232.912C719.524 231.195 719.076 229.44 718.628 227.648C718.105 225.557 717.508 223.28 716.836 220.816C716.537 219.771 716.351 219.248 716.276 219.248C715.753 219.248 714.857 219.584 713.588 220.256C712.393 220.853 711.012 221.637 709.444 222.608C707.876 223.504 706.233 224.512 704.516 225.632C702.799 226.677 701.193 227.685 699.7 228.656C698.207 229.552 696.937 230.336 695.892 231.008C694.772 231.605 694.1 231.904 693.876 231.904C692.905 231.904 692.121 231.568 691.524 230.896C690.927 230.224 690.628 229.477 690.628 228.656C690.628 228.208 691.263 227.573 692.532 226.752C693.727 225.856 695.257 224.885 697.124 223.84C698.916 222.795 700.895 221.712 703.06 220.592C705.151 219.472 707.092 218.464 708.884 217.568C710.751 216.672 712.281 215.925 713.476 215.328C714.745 214.731 715.38 214.432 715.38 214.432C714.708 210.997 714.148 207.936 713.7 205.248C713.327 202.933 712.953 200.805 712.58 198.864C712.281 196.923 712.132 195.877 712.132 195.728C712.132 194.757 712.319 194.048 712.692 193.6C713.14 193.077 713.625 192.816 714.148 192.816C714.969 192.816 715.492 193.376 715.716 194.496C716.537 198.528 717.284 202.112 717.956 205.248C718.703 208.384 719.412 210.923 720.084 212.864C720.756 212.715 721.913 212.304 723.556 211.632C725.199 210.885 726.916 210.101 728.708 209.28C730.5 208.459 732.105 207.749 733.524 207.152C735.017 206.48 735.876 206.144 736.1 206.144C736.548 206.144 736.809 206.293 736.884 206.592C737.033 206.891 737.183 207.152 737.332 207.376Z" fill="#FF007A" fill-opacity="0.854902"/>
<path d="M623.039 253.632C623.039 254.379 622.703 255.051 622.031 255.648C621.359 256.245 620.612 256.544 619.791 256.544C619.641 256.544 619.417 256.469 619.119 256.32C618.82 256.096 618.596 255.909 618.447 255.76C615.311 252.773 611.988 249.824 608.479 246.912C604.969 244 601.423 241.013 597.839 237.952C594.255 234.891 590.708 231.68 587.199 228.32C583.764 224.96 580.516 221.301 577.455 217.344C578.425 221.376 579.732 225.669 581.375 230.224C583.017 234.704 584.585 238.923 586.079 242.88C587.647 246.837 588.991 250.272 590.111 253.184C591.231 256.021 591.791 257.813 591.791 258.56C591.791 259.456 591.417 260.165 590.671 260.688C589.999 261.285 589.289 261.584 588.543 261.584C588.095 261.584 587.609 261.099 587.087 260.128C586.564 259.232 585.967 258.037 585.295 256.544C584.697 255.051 584.063 253.408 583.391 251.616C582.793 249.749 582.196 247.92 581.599 246.128C581.001 244.261 580.441 242.544 579.919 240.976C579.396 239.333 578.985 237.989 578.687 236.944L575.663 227.872C574.991 225.931 574.319 223.952 573.647 221.936C572.975 219.845 572.34 217.904 571.743 216.112C571.22 214.32 570.772 212.752 570.399 211.408C570.1 210.064 569.951 209.168 569.951 208.72C569.951 207.899 570.063 207.077 570.287 206.256C570.511 205.36 570.921 204.912 571.519 204.912C571.892 204.912 572.153 205.024 572.303 205.248C572.452 205.397 572.601 205.472 572.751 205.472L574.095 204.912C574.468 204.912 575.103 205.397 575.999 206.368C576.969 207.264 578.052 208.459 579.247 209.952C580.516 211.445 581.86 213.125 583.279 214.992C584.697 216.859 586.116 218.688 587.535 220.48C589.028 222.272 590.409 223.952 591.679 225.52C593.023 227.088 594.217 228.32 595.263 229.216C596.905 230.709 598.548 232.128 600.191 233.472C601.833 234.816 603.476 236.197 605.119 237.616C606.836 238.96 608.628 240.416 610.495 241.984C612.361 243.552 614.415 245.344 616.655 247.36C616.729 247.435 616.916 247.472 617.215 247.472C617.364 247.472 617.439 247.285 617.439 246.912C617.439 246.539 617.439 246.091 617.439 245.568C617.439 244.523 617.14 242.656 616.543 239.968C615.945 237.205 615.087 234.032 613.967 230.448C612.921 226.789 611.689 222.907 610.271 218.8C608.852 214.619 607.321 210.624 605.679 206.816C604.111 202.933 602.431 199.424 600.639 196.288C598.921 193.152 597.241 190.725 595.599 189.008C595.151 188.56 594.815 187.888 594.591 186.992C594.441 186.096 594.367 185.349 594.367 184.752C594.367 184.229 594.703 183.669 595.375 183.072C596.121 182.4 596.793 182.064 597.391 182.064C598.287 182.064 599.295 182.96 600.415 184.752C601.535 186.544 602.729 188.896 603.999 191.808C605.268 194.645 606.537 197.856 607.807 201.44C609.151 205.024 610.457 208.645 611.727 212.304C613.22 216.635 614.601 220.928 615.871 225.184C617.215 229.365 618.372 233.285 619.343 236.944C620.388 240.603 621.209 243.888 621.807 246.8C622.479 249.712 622.889 251.989 623.039 253.632Z" stroke="white" stroke-width="16" mask="url(#path-2-outside-1_1_2)"/>
<path d="M658.616 246.24C658.691 246.389 658.728 246.613 658.728 246.912C658.728 247.36 658.392 248.032 657.72 248.928C657.496 249.227 657.011 249.712 656.264 250.384C655.517 251.056 654.509 251.728 653.24 252.4C651.971 253.072 650.403 253.669 648.536 254.192C646.744 254.715 644.616 254.976 642.152 254.976C640.435 254.976 638.755 254.603 637.112 253.856C635.469 253.035 634.013 251.877 632.744 250.384C631.475 248.816 630.429 246.912 629.608 244.672C628.787 242.357 628.376 239.669 628.376 236.608C628.376 233.696 628.749 230.971 629.496 228.432C630.243 225.893 631.176 223.653 632.296 221.712C633.491 219.771 634.797 218.24 636.216 217.12C637.635 216 639.016 215.44 640.36 215.44C641.555 215.44 642.749 215.701 643.944 216.224C645.213 216.672 646.333 217.269 647.304 218.016C648.349 218.763 649.171 219.621 649.768 220.592C650.365 221.488 650.664 222.421 650.664 223.392C650.664 224.512 650.141 225.669 649.096 226.864C648.125 228.059 646.931 229.179 645.512 230.224C644.093 231.195 642.675 232.016 641.256 232.688C639.837 233.285 638.717 233.584 637.896 233.584C637.448 233.584 637.037 233.397 636.664 233.024C636.365 232.576 636.216 232.053 636.216 231.456C636.216 230.411 636.664 229.589 637.56 228.992C638.531 228.395 639.576 227.872 640.696 227.424C641.816 226.901 642.824 226.304 643.72 225.632C644.691 224.96 645.176 224.027 645.176 222.832C645.176 222.683 644.989 222.309 644.616 221.712C644.243 221.115 643.235 220.816 641.592 220.816C640.845 220.816 639.987 221.264 639.016 222.16C638.045 222.981 637.112 224.139 636.216 225.632C635.32 227.051 634.573 228.768 633.976 230.784C633.379 232.725 633.08 234.853 633.08 237.168C633.08 239.109 633.416 240.864 634.088 242.432C634.835 244 635.768 245.344 636.888 246.464C638.008 247.509 639.315 248.331 640.808 248.928C642.301 249.525 643.832 249.824 645.4 249.824C646.52 249.824 647.715 249.6 648.984 249.152C650.328 248.629 651.56 248.107 652.68 247.584C653.875 246.987 654.883 246.464 655.704 246.016C656.6 245.493 657.16 245.232 657.384 245.232C657.608 245.232 657.832 245.344 658.056 245.568C658.355 245.792 658.541 246.016 658.616 246.24Z" stroke="white" stroke-width="16" mask="url(#path-2-outside-1_1_2)"/>
<path d="M699.231 247.584C699.231 249.003 698.783 249.973 697.887 250.496C697.066 251.019 696.17 251.28 695.199 251.28C693.482 251.28 691.54 250.533 689.375 249.04C687.21 247.472 684.932 245.717 682.543 243.776C682.468 243.925 682.244 244.747 681.871 246.24C681.572 247.659 681.124 249.227 680.527 250.944C680.004 252.661 679.332 254.229 678.511 255.648C677.69 257.067 676.756 257.776 675.711 257.776C674.964 257.776 674.367 257.515 673.919 256.992C673.471 256.395 673.247 255.984 673.247 255.76C673.247 255.237 673.508 254.267 674.031 252.848C674.554 251.355 675.114 249.787 675.711 248.144C676.308 246.427 676.868 244.821 677.391 243.328C677.914 241.835 678.175 240.752 678.175 240.08C678.175 239.781 677.578 238.848 676.383 237.28C675.188 235.712 673.882 233.883 672.463 231.792C671.044 229.627 669.738 227.349 668.543 224.96C667.348 222.571 666.751 220.368 666.751 218.352C666.751 217.829 666.975 217.307 667.423 216.784C667.871 216.261 668.282 216 668.655 216C669.103 216 669.7 216.187 670.447 216.56C671.268 216.859 671.754 217.307 671.903 217.904C672.65 220.368 673.62 223.019 674.815 225.856C676.01 228.619 677.802 231.307 680.191 233.92C680.415 233.099 680.676 231.979 680.975 230.56C681.274 229.141 681.61 227.611 681.983 225.968C682.356 224.325 682.73 222.683 683.103 221.04C683.551 219.397 683.962 217.904 684.335 216.56C684.783 215.216 685.194 214.133 685.567 213.312C685.94 212.491 686.314 212.08 686.687 212.08C687.06 212.08 687.62 212.229 688.367 212.528C689.188 212.752 689.599 213.275 689.599 214.096C689.599 214.096 689.487 214.731 689.263 216C689.039 217.195 688.74 218.651 688.367 220.368C687.994 222.085 687.583 223.952 687.135 225.968C686.687 227.909 686.239 229.664 685.791 231.232C685.716 231.456 685.567 231.867 685.343 232.464C685.194 233.061 685.007 233.696 684.783 234.368C684.634 235.04 684.484 235.675 684.335 236.272C684.186 236.795 684.111 237.131 684.111 237.28C684.111 237.952 684.634 238.773 685.679 239.744C686.799 240.64 688.031 241.536 689.375 242.432C690.719 243.253 691.988 243.963 693.183 244.56C694.452 245.157 695.236 245.456 695.535 245.456C695.759 245.456 696.058 245.419 696.431 245.344C696.804 245.269 697.103 245.232 697.327 245.232C697.924 245.232 698.372 245.568 698.671 246.24C699.044 246.912 699.231 247.36 699.231 247.584Z" stroke="white" stroke-width="16" mask="url(#path-2-outside-1_1_2)"/>
<path d="M737.332 207.376C736.361 208.496 734.98 209.616 733.188 210.736C731.396 211.781 729.604 212.752 727.812 213.648C726.02 214.544 724.452 215.328 723.108 216C721.764 216.597 721.092 217.008 721.092 217.232C721.092 217.456 721.241 218.128 721.54 219.248C721.839 220.368 722.175 221.712 722.548 223.28C722.996 224.773 723.444 226.341 723.892 227.984C724.34 229.627 724.713 231.083 725.012 232.352C725.161 233.099 725.348 234.069 725.572 235.264C725.796 236.459 725.983 237.653 726.132 238.848C726.356 240.043 726.543 241.125 726.692 242.096C726.841 242.992 726.916 243.477 726.916 243.552C726.916 244.672 726.729 245.829 726.356 247.024C725.983 248.219 725.385 248.816 724.564 248.816C724.116 248.816 723.705 248.629 723.332 248.256C722.959 247.883 722.623 247.472 722.324 247.024C722.025 246.501 721.801 246.016 721.652 245.568C721.503 245.12 721.428 244.784 721.428 244.56C721.428 244.411 721.428 244.187 721.428 243.888C721.503 243.589 721.54 243.253 721.54 242.88C721.54 241.461 721.316 239.408 720.868 236.72C720.719 235.899 720.42 234.629 719.972 232.912C719.524 231.195 719.076 229.44 718.628 227.648C718.105 225.557 717.508 223.28 716.836 220.816C716.537 219.771 716.351 219.248 716.276 219.248C715.753 219.248 714.857 219.584 713.588 220.256C712.393 220.853 711.012 221.637 709.444 222.608C707.876 223.504 706.233 224.512 704.516 225.632C702.799 226.677 701.193 227.685 699.7 228.656C698.207 229.552 696.937 230.336 695.892 231.008C694.772 231.605 694.1 231.904 693.876 231.904C692.905 231.904 692.121 231.568 691.524 230.896C690.927 230.224 690.628 229.477 690.628 228.656C690.628 228.208 691.263 227.573 692.532 226.752C693.727 225.856 695.257 224.885 697.124 223.84C698.916 222.795 700.895 221.712 703.06 220.592C705.151 219.472 707.092 218.464 708.884 217.568C710.751 216.672 712.281 215.925 713.476 215.328C714.745 214.731 715.38 214.432 715.38 214.432C714.708 210.997 714.148 207.936 713.7 205.248C713.327 202.933 712.953 200.805 712.58 198.864C712.281 196.923 712.132 195.877 712.132 195.728C712.132 194.757 712.319 194.048 712.692 193.6C713.14 193.077 713.625 192.816 714.148 192.816C714.969 192.816 715.492 193.376 715.716 194.496C716.537 198.528 717.284 202.112 717.956 205.248C718.703 208.384 719.412 210.923 720.084 212.864C720.756 212.715 721.913 212.304 723.556 211.632C725.199 210.885 726.916 210.101 728.708 209.28C730.5 208.459 732.105 207.749 733.524 207.152C735.017 206.48 735.876 206.144 736.1 206.144C736.548 206.144 736.809 206.293 736.884 206.592C737.033 206.891 737.183 207.152 737.332 207.376Z" stroke="white" stroke-width="16" mask="url(#path-2-outside-1_1_2)"/>
<path d="M224.263 136.201C224.263 136.201 218.623 150.04 218.623 150.961V225.683H249.128V150.957C249.128 150.961 244.043 136.201 244.043 136.201H224.263Z" fill="url(#paint0_linear_1_2)"/>
<path d="M223.707 136.201C223.707 136.201 218.623 150.04 218.623 150.957H249.128C249.128 150.461 244.043 136.201 244.043 136.201H223.707Z" fill="url(#paint1_linear_1_2)"/>
<path d="M181 160.499C181.504 160.515 218.623 160.499 218.623 160.499C218.623 147.467 206.58 136.201 206.421 128.067H193.201C193.201 136.201 180.996 147.467 181 160.499Z" fill="url(#paint2_linear_1_2)"/>
<path d="M249.128 225.683H218.623V229.749H249.128V225.683Z" fill="#C0BFBC"/>
<path d="M223.707 131.057V136.201H244.043V131.057H223.707Z" fill="url(#paint3_linear_1_2)"/>
<path d="M233.875 168.776C226.249 168.776 226.249 178.392 226.249 178.392H218.623V193.104H249.128V178.392H241.501C241.501 178.392 241.501 168.776 233.875 168.776ZM233.875 170.809C233.875 170.809 239.42 177.573 237.391 180.919C235.36 184.263 232.385 184.263 230.356 180.919C228.327 177.573 233.875 170.809 233.875 170.809Z" fill="url(#paint4_linear_1_2)"/>
<path d="M218.623 225.683H188.551C188.424 225.683 188.292 225.679 188.165 225.671C188.035 225.667 187.907 225.655 187.78 225.639C187.649 225.627 187.525 225.611 187.399 225.587C187.272 225.567 187.152 225.544 187.025 225.516C186.903 225.492 186.779 225.46 186.66 225.424C186.541 225.392 186.421 225.356 186.303 225.317C186.064 225.237 185.833 225.147 185.608 225.043C185.381 224.944 185.159 224.828 184.944 224.701C184.733 224.579 184.527 224.443 184.324 224.296C184.121 224.149 183.928 223.995 183.744 223.828C183.557 223.664 183.375 223.489 183.208 223.303C183.037 223.12 182.875 222.925 182.72 222.727C182.565 222.524 182.421 222.319 182.287 222.1C182.152 221.885 182.025 221.663 181.909 221.432C181.795 221.201 181.687 220.964 181.592 220.717C181.496 220.475 181.409 220.229 181.337 219.971C181.267 219.716 181.203 219.459 181.155 219.192C181.103 218.927 181.064 218.656 181.04 218.381C181.016 218.108 181 217.829 181 217.548V221.191V221.195C181 221.488 181.016 221.781 181.044 222.068V222.072C181.072 222.357 181.115 222.64 181.171 222.917C181.223 223.196 181.293 223.469 181.373 223.736V223.74C181.453 224.007 181.548 224.264 181.652 224.523C181.755 224.777 181.873 225.027 182.005 225.269C182.387 225.992 182.871 226.656 183.435 227.236C184.94 228.78 187.021 229.737 189.333 229.749H218.623V225.683Z" fill="#E66100"/>
<path d="M190.564 136.201C190.56 136.205 190.556 136.209 190.552 136.213C186.961 143.133 180.996 151.379 181 160.495V217.548C181 217.829 181.016 218.108 181.04 218.381C181.064 218.656 181.103 218.927 181.151 219.192C181.203 219.459 181.267 219.716 181.337 219.975C181.409 220.229 181.496 220.475 181.592 220.717C181.687 220.964 181.795 221.201 181.909 221.432C182.025 221.663 182.152 221.885 182.287 222.104C182.421 222.319 182.565 222.524 182.72 222.727C182.875 222.929 183.037 223.12 183.204 223.307C183.375 223.489 183.557 223.664 183.741 223.828C183.928 223.995 184.121 224.149 184.324 224.296C184.527 224.443 184.733 224.579 184.944 224.705C185.159 224.828 185.381 224.944 185.608 225.047C185.833 225.147 186.064 225.237 186.303 225.317C186.421 225.356 186.541 225.392 186.66 225.428C186.779 225.46 186.903 225.492 187.025 225.516C187.152 225.544 187.272 225.567 187.399 225.587C187.525 225.611 187.649 225.627 187.776 225.639C187.907 225.655 188.035 225.667 188.161 225.671C188.292 225.679 188.424 225.683 188.551 225.683H218.623V160.495C218.623 151.379 212.736 143.133 209.141 136.213C209.137 136.209 209.133 136.205 209.129 136.201H190.564Z" fill="url(#paint5_linear_1_2)"/>
<path d="M257.263 149.365C252.936 151.477 249.128 156.188 249.128 161.087V229.749H278.417C283.036 229.729 286.751 225.921 286.751 221.195V161.087C286.751 156.177 282.957 151.473 278.616 149.365H257.263Z" fill="url(#paint6_linear_1_2)"/>
<path d="M193.201 124H206.421V128.067H193.201V124Z" fill="url(#paint7_linear_1_2)"/>
<path d="M286.751 217.548C286.751 222.056 283.381 225.683 279.199 225.683H249.128V229.749H278.417C283.036 229.729 286.751 225.921 286.751 221.195V217.548Z" fill="#C01C28"/>
<path d="M257.263 147.331H278.616V149.396H257.263V147.331Z" fill="url(#paint8_linear_1_2)"/>
<path d="M257.263 140.269H278.616V147.331H257.263V140.269Z" fill="url(#paint9_linear_1_2)"/>
<path d="M274.548 212.964H286.751V217.548H274.548V212.964Z" fill="url(#paint10_linear_1_2)"/>
<path d="M199.811 166.707C194.195 166.707 189.643 171.259 189.643 176.875C189.643 182.491 194.195 187.043 199.811 187.043C205.428 187.043 209.98 182.491 209.98 176.875C209.98 171.259 205.428 166.707 199.811 166.707Z" fill="#33D17A" fill-opacity="0.854902"/>
<defs>
<linearGradient id="paint0_linear_1_2" x1="218.623" y1="180.942" x2="249.128" y2="180.942" gradientUnits="userSpaceOnUse">
<stop stop-color="#DEDDDA"/>
<stop offset="0.25" stop-color="#F6F5F4"/>
<stop offset="0.75" stop-color="white"/>
<stop offset="1" stop-color="#DEDDDA" stop-opacity="0.854902"/>
</linearGradient>
<linearGradient id="paint1_linear_1_2" x1="218.623" y1="143.78" x2="249.216" y2="143.78" gradientUnits="userSpaceOnUse">
<stop stop-color="#C0BFBC"/>
<stop offset="0.25" stop-color="#DEDDDA"/>
<stop offset="0.75" stop-color="#F6F5F4"/>
<stop offset="1" stop-color="#C0BFBC"/>
</linearGradient>
<linearGradient id="paint2_linear_1_2" x1="181" y1="155.437" x2="218.623" y2="155.437" gradientUnits="userSpaceOnUse">
<stop stop-color="#C0BFBC"/>
<stop offset="0.25" stop-color="#DEDDDA"/>
<stop offset="0.75" stop-color="#DEDDDA"/>
<stop offset="1" stop-color="#C0BFBC"/>
</linearGradient>
<linearGradient id="paint3_linear_1_2" x1="223.707" y1="133.629" x2="244.043" y2="133.629" gradientUnits="userSpaceOnUse">
<stop offset="1" stop-color="#3483E2"/>
</linearGradient>
<linearGradient id="paint4_linear_1_2" x1="218.623" y1="180.94" x2="249.128" y2="180.94" gradientUnits="userSpaceOnUse">
<stop offset="1" stop-color="#3483E2"/>
</linearGradient>
<linearGradient id="paint5_linear_1_2" x1="181" y1="188.029" x2="218.623" y2="188.029" gradientUnits="userSpaceOnUse">
<stop stop-color="#FFA348"/>
<stop offset="0.25" stop-color="#FFBE6F"/>
<stop offset="0.75" stop-color="#FFBE6F"/>
<stop offset="1" stop-color="#FFA348"/>
</linearGradient>
<linearGradient id="paint6_linear_1_2" x1="249.128" y1="188.634" x2="286.751" y2="188.634" gradientUnits="userSpaceOnUse">
<stop stop-color="#E01B24"/>
<stop offset="0.25" stop-color="#ED333B"/>
<stop offset="0.75" stop-color="#F66151"/>
<stop offset="1" stop-color="#E01B24"/>
</linearGradient>
<linearGradient id="paint7_linear_1_2" x1="193.201" y1="126.033" x2="206.42" y2="126.033" gradientUnits="userSpaceOnUse">
<stop stop-color="#33D17A"/>
<stop offset="0.388454" stop-color="#57E389"/>
<stop offset="0.75" stop-color="#57E389"/>
<stop offset="1" stop-color="#2EC27E" stop-opacity="0.854902"/>
</linearGradient>
<linearGradient id="paint8_linear_1_2" x1="249.128" y1="148.364" x2="286.751" y2="148.364" gradientUnits="userSpaceOnUse">
<stop stop-color="#3D3846"/>
<stop offset="0.25" stop-color="#5E5C64"/>
<stop offset="0.75" stop-color="#77767B"/>
<stop offset="1" stop-color="#77767B"/>
</linearGradient>
<linearGradient id="paint9_linear_1_2" x1="257.263" y1="143.801" x2="278.616" y2="143.801" gradientUnits="userSpaceOnUse">
<stop offset="1" stop-color="#DCDBD8"/>
</linearGradient>
<linearGradient id="paint10_linear_1_2" x1="274.548" y1="215.256" x2="286.749" y2="215.256" gradientUnits="userSpaceOnUse">
<stop offset="1" stop-color="#DCDBD8"/>
</linearGradient>
</defs>
</svg>
