<?xml version="1.0" encoding="UTF-8" standalone="no"?><!-- Generator: Gravit.io --><svg xmlns="http://www.w3.org/2000/svg" xmlns:xlink="http://www.w3.org/1999/xlink" style="isolation:isolate" viewBox="0 0 364 102" width="364pt" height="102pt"><defs><clipPath id="_clipPath_11i94h7l6kjws9LreH9aXGTGeDIPtCZU"><rect width="364" height="102"/></clipPath></defs><g clip-path="url(#_clipPath_11i94h7l6kjws9LreH9aXGTGeDIPtCZU)"><g><g><path d=" M 18.361 2 C 15.817 1.993 13.05 2.377 12.245 3.054 C 11.868 3.371 11.868 3.407 12.183 6.63 C 12.312 7.945 12.457 9.498 12.432 9.565 C 13.242 12.048 19.522 10.663 20.69 10.369 C 22.015 10.453 23.189 9.595 23.399 9.203 C 23.517 8.982 23.244 3.461 23.096 3.071 C 23.032 2.903 22.832 2.723 22.567 2.595 C 21.737 2.193 20.102 2.005 18.361 2 L 18.361 2 Z  M 57.425 2.029 C 56.203 2.034 55.072 2.096 54.549 2.217 C 53.624 2.432 52.949 2.755 52.848 3.03 C 52.657 3.549 52.454 9.004 52.617 9.252 C 54.984 12.371 63.319 13.059 63.583 8.847 C 63.594 8.562 63.696 7.374 63.809 6.207 C 64.07 3.497 64.069 3.379 63.789 3.117 C 63.473 2.822 62.69 2.535 61.496 2.276 C 60.719 2.107 58.996 2.022 57.425 2.029 L 57.425 2.029 Z  M 57.665 2.23 C 60.062 2.221 62.722 2.595 63.158 3.317 C 63.41 3.733 62.562 4.191 61.188 4.381 C 58.037 4.816 53.639 4.114 53.639 3.175 C 53.639 2.544 55.55 2.238 57.665 2.23 Z  M 23.146 6.177 M 52.242 12.683 L 52.242 13.026 C 52.242 13.96 51.92 18.86 51.833 19.252 C 51.637 20.134 51.465 20.287 48.662 22.091 C 46.201 23.674 44.486 25.449 43.666 27.262 C 43.167 28.366 42.951 29.954 42.771 33.839 C 42.721 34.922 42.66 35.842 42.636 35.884 C 42.521 36.088 42.787 37.565 43.032 38.087 C 47.719 43.68 62.255 46.258 68.305 40.286 C 69.243 39.319 69.364 38.865 69.754 34.814 C 70.1 31.224 70.072 29.456 69.654 28.33 C 68.899 26.3 67.236 24.302 64.612 22.274 C 62.394 20.561 62.427 20.674 62.867 16.16 C 63.003 14.761 63.115 13.517 63.115 13.396 L 63.115 13.176 C 60.044 13.011 55.198 12.311 52.242 12.683 L 52.242 12.683 Z  M 23.656 12.704 C 23.623 12.71 23.57 12.746 23.488 12.806 C 18.75 12.84 16.902 13.401 13.337 13.416 L 12.839 13.164 L 12.839 13.39 C 12.839 13.515 12.951 14.761 13.087 16.16 C 13.535 20.748 13.611 20.519 10.931 22.617 C 8.55 24.479 6.988 26.437 6.237 28.498 C 5.661 30.079 6.22 38.125 6.998 39.452 C 12.088 44.634 28.689 46.52 32.922 38.087 C 33.163 37.574 33.434 36.089 33.322 35.891 C 33.3 35.852 33.239 34.932 33.187 33.846 C 32.996 29.9 32.786 28.363 32.288 27.262 C 31.406 25.311 29.506 23.443 26.505 21.575 C 24.573 20.373 24.296 20.099 24.115 19.214 C 24.026 18.776 23.715 13.957 23.713 12.981 C 23.713 12.774 23.711 12.696 23.656 12.704 L 23.656 12.704 Z  M 33.634 55.613 C 27.006 62.616 13.483 62.187 9.276 57.769 C 9.146 57.616 9.054 57.564 9.052 57.645 C 9.044 57.955 11.857 79.264 11.988 79.889 C 12.733 83.427 15.97 85.902 20.477 86.377 C 25.616 86.918 30.911 84.745 33.019 81.229 C 33.749 80.013 33.993 79.191 34.06 77.732 C 34.124 76.336 33.808 57.373 33.703 56.311 L 33.634 55.613 Z  M 42.329 55.613 L 42.255 56.261 C 42.153 57.165 41.827 76.293 41.889 77.759 C 42.077 82.197 46.359 85.758 52.245 86.372 C 58.191 86.993 63.035 84.313 63.966 79.889 C 64.096 79.271 66.909 57.964 66.903 57.645 C 66.902 57.57 66.778 57.65 66.629 57.824 C 56.313 60 46.418 62.976 42.329 55.613 L 42.329 55.613 Z " fill="rgb(144,144,144)"/><linearGradient id="_lgradient_0" x1="0.4887134013564298" y1="-0.0915659498216903" x2="0.4887134013564296" y2="1.019752383690331" gradientTransform="matrix(50.455,0,0,2.292,12.756,2.22)" gradientUnits="userSpaceOnUse"><stop offset="0%" stop-opacity="1" style="stop-color:rgb(192,191,188)"/><stop offset="100%" stop-opacity="1" style="stop-color:rgb(158,158,158)"/></linearGradient><path d=" M 14.643 4.373 C 13.395 4.194 12.551 3.712 12.799 3.319 C 13.675 1.93 22.497 1.834 22.297 3.216 C 22.163 4.147 17.74 4.815 14.643 4.373 Z  M 56.631 4.382 C 54.258 4.082 53.037 3.355 53.962 2.793 C 55.306 1.976 60.796 2.05 62.572 2.91 C 64.27 3.731 62.427 4.505 58.844 4.476 C 57.983 4.469 56.988 4.427 56.631 4.382 Z " fill="url(#_lgradient_0)"/></g><g><linearGradient id="_lgradient_1" x1="0.1906983164772063" y1="0.08654678362908119" x2="0.19069831647720614" y2="0.9967245757183159" gradientTransform="matrix(62.567,0,0,59.692,6.675,25.463)" gradientUnits="userSpaceOnUse"><stop offset="0%" stop-opacity="1" style="stop-color:rgb(129,61,156)"/><stop offset="85.169935%" stop-opacity="1" style="stop-color:rgb(97,53,131)"/><stop offset="100%" stop-opacity="1" style="stop-color:rgb(77,42,104)"/></linearGradient><path d=" M 55.242 25.464 C 49.92 25.44 45.218 26.847 44.017 29.218 C 43.529 30.182 43.605 28.28 43.01 54.466 C 42.451 79.036 42.451 77.749 43.003 79.114 C 44.298 82.32 47.992 84.651 52.461 85.083 C 54.019 85.233 55.544 85.135 57.011 84.788 C 59.916 84.102 62.276 82.26 63.075 80.054 C 63.401 79.154 63.479 78.602 65.261 64.491 C 68.124 41.819 68.3 40.428 68.765 36.809 C 69.342 32.314 69.379 31.119 68.964 30.33 C 68.009 28.515 65.768 27.197 62.097 26.293 C 59.846 25.738 57.489 25.473 55.242 25.464 L 55.242 25.464 Z  M 20.949 25.488 C 14.966 25.464 8.55 27.143 7.01 30.289 C 6.458 31.415 6.276 29.514 9.006 51.124 C 12.874 81.748 12.521 79.128 12.92 80.177 C 13.899 82.752 16.985 84.706 20.67 85.083 C 26.038 85.631 31.365 83.042 32.951 79.114 C 33.502 77.75 33.503 79.089 32.945 54.506 C 32.348 28.18 32.428 30.142 31.912 29.186 C 30.567 26.695 25.906 25.507 20.949 25.488 L 20.949 25.488 Z " fill="url(#_lgradient_1)"/><path d=" M 20.782 25.616 C 16.949 25.617 12.956 26.334 10.15 27.739 C 4.122 30.757 6.815 34.838 15.433 35.743 C 16.451 35.85 20.288 35.798 21.468 35.662 C 30.665 34.597 35.064 30.099 29.635 27.31 C 27.424 26.174 24.165 25.616 20.782 25.616 Z  M 54.853 25.623 C 52.429 25.64 50.076 25.941 48.157 26.552 C 40.349 29.036 43.988 34.354 54.393 35.664 C 55.9 35.853 60.588 35.795 61.961 35.57 C 69.481 34.334 71.374 30.61 65.915 27.79 C 63.137 26.355 58.895 25.594 54.853 25.623 Z " fill="rgb(145,65,172)"/></g><g><linearGradient id="_lgradient_2" x1="0.1013798124071309" y1="-0.027219094979966663" x2="0.1013798124071307" y2="1.0002295490323974" gradientTransform="matrix(51.32,0,0,5.291,12.316,8.85)" gradientUnits="userSpaceOnUse"><stop offset="0%" stop-opacity="1" style="stop-color:rgb(145,65,172)"/><stop offset="100%" stop-opacity="1" style="stop-color:rgb(123,60,152)"/></linearGradient><path d=" M 15.981 14.067 C 14.32 13.89 12.921 13.402 12.749 12.939 C 12.704 12.818 12.615 12.135 12.55 11.422 C 12.485 10.708 12.406 9.948 12.374 9.731 L 12.316 9.337 L 12.628 9.649 C 13.323 10.344 14.673 10.624 17.328 10.624 C 20.523 10.624 22.925 10.045 23.434 9.154 C 23.577 8.902 23.678 9.873 23.701 11.727 C 23.714 12.738 23.696 12.767 22.747 13.25 C 21.488 13.893 18.141 14.297 15.981 14.067 L 15.981 14.067 Z  M 56.581 14.055 C 54.28 13.815 52.261 13.068 52.231 12.446 C 52.217 12.166 52.218 12.153 52.298 10.335 L 52.364 8.85 L 52.565 9.168 C 53.148 10.089 55.371 10.619 58.626 10.614 C 61.415 10.61 62.653 10.348 63.36 9.614 L 63.636 9.327 L 63.579 9.826 C 63.548 10.1 63.472 10.885 63.409 11.571 C 63.347 12.257 63.236 12.913 63.163 13.028 C 62.641 13.851 59.429 14.352 56.581 14.055 Z " fill="url(#_lgradient_2)"/><path d=" M 17.677 61.356 C 13.554 60.964 10.107 59.286 8.819 57.043 C 8.381 56.281 8.293 55.685 7.298 46.697 C 6.423 38.793 6.248 36.654 6.619 38.397 C 7.698 43.467 20.771 45.128 29.145 41.259 C 31.629 40.112 33.082 38.537 33.273 36.785 L 33.352 36.061 L 33.432 36.641 C 33.635 38.106 34.151 53.703 34.019 54.366 C 33.394 57.487 29.416 60.131 23.87 61.112 C 22.338 61.383 19.242 61.505 17.677 61.356 Z  M 53.788 61.349 C 50.679 61.06 47.233 59.946 45.151 58.558 C 44.358 58.029 42.924 56.643 42.633 56.123 C 41.727 54.507 41.754 55.087 42.126 45.421 C 42.302 40.858 42.481 36.885 42.525 36.593 L 42.605 36.061 L 42.682 36.785 C 43.083 40.521 49.466 43.348 57.479 43.339 C 64.098 43.331 68.693 41.416 69.336 38.397 C 69.705 36.662 69.531 38.785 68.656 46.695 C 67.661 55.683 67.574 56.281 67.136 57.043 C 65.374 60.108 59.792 61.909 53.788 61.349 L 53.788 61.349 Z " fill="rgb(145,65,172)"/></g><g><linearGradient id="_lgradient_3" x1="-0.06468336969062394" y1="0.48782211407652726" x2="0.9009473626825066" y2="0.465841651380382" gradientTransform="matrix(9.891,0,0,23.779,8.715,6.919)" gradientUnits="userSpaceOnUse"><stop offset="0%" stop-opacity="1" style="stop-color:rgb(222,221,218)"/><stop offset="100%" stop-opacity="0" style="stop-color:rgb(192,191,188)"/></linearGradient><path d=" M 16.756 7.3 L 18.607 30.63 C 18.607 30.63 6.528 31.517 9.066 26.908 C 11.159 23.105 14.855 21.144 14.855 21.144 L 13.726 6.919 C 14.689 7.322 15.711 7.382 16.756 7.3 Z " fill="url(#_lgradient_3)"/><linearGradient id="_lgradient_4" x1="0.05785508721394361" y1="0.44828799262562635" x2="0.9436451598027347" y2="0.5400067045206121" gradientTransform="matrix(10.102,0,0,23.428,46.426,7.006)" gradientUnits="userSpaceOnUse"><stop offset="0%" stop-opacity="1" style="stop-color:rgb(222,221,218)"/><stop offset="100%" stop-opacity="0" style="stop-color:rgb(192,191,188)"/></linearGradient><path d=" M 56.527 7.734 L 55.403 30.434 C 55.403 30.434 43.965 29.848 46.91 25.709 C 49.34 22.295 53.047 20.847 53.047 20.847 L 53.732 7.006 C 54.586 7.509 55.536 7.689 56.527 7.734 L 56.527 7.734 Z " fill="url(#_lgradient_4)"/></g></g><g><g><path d=" M 37.924 7.343 C 35.22 7.351 32.528 7.816 31.807 8.733 C 31.606 8.987 31.603 9.07 31.66 12.402 L 31.717 15.811 C 34.657 20.964 43.308 18.893 44.237 15.811 L 44.295 12.397 L 44.353 8.983 L 44.112 8.696 C 43.344 7.784 40.628 7.335 37.924 7.343 Z  M 31.863 19.73 L 31.929 23.257 C 32.018 27.991 32.161 27.583 29.847 29.156 C 25.882 31.852 23.874 34.172 23.138 36.909 C 22.939 37.649 22.908 45.181 23.098 46.735 C 24.117 60.397 50.893 62.168 52.857 46.735 C 53.046 45.181 53.015 37.649 52.816 36.909 C 52.075 34.154 49.907 31.67 45.983 29.081 C 43.818 27.654 43.921 27.958 44.018 23.264 L 44.091 19.731 C 41.503 19.037 35.374 19.755 31.863 19.73 L 31.863 19.73 Z  M 24.46 67.683 L 24.431 68.082 C 24.401 68.504 25.638 88.126 25.802 89.829 C 25.997 91.841 26.383 93.058 27.233 94.337 C 29.07 97.1 32.208 98.914 36.082 99.453 C 37.982 99.717 40.954 99.406 42.835 98.746 C 47.234 97.201 49.732 94.172 50.147 89.879 C 50.315 88.14 51.554 68.511 51.523 68.082 L 51.494 67.683 C 44.141 74.137 28.471 72.644 24.46 67.683 L 24.46 67.683 Z " fill="rgb(144,144,144)"/><linearGradient id="_lgradient_5" x1="0.5018748683059071" y1="0.00800643787431543" x2="0.5018748683059069" y2="1.0091138465607479" gradientTransform="matrix(10.744,0,0,3.036,32.595,7.62)" gradientUnits="userSpaceOnUse"><stop offset="0%" stop-opacity="1" style="stop-color:rgb(192,191,188)"/><stop offset="100%" stop-opacity="1" style="stop-color:rgb(152,152,152)"/></linearGradient><path d=" M 36.231 10.568 C 32.308 10.181 31.329 8.775 34.432 7.981 C 37.41 7.219 42.785 7.737 43.285 8.833 C 43.833 10.037 40.117 10.95 36.231 10.568 Z " fill="url(#_lgradient_5)"/></g><g><linearGradient id="_lgradient_6" x1="0.48739307899902706" y1="-0.0008317099143564377" x2="0.4873930789990269" y2="0.9994465336920526" gradientTransform="matrix(28.378,0,0,59.814,23.794,38.129)" gradientUnits="userSpaceOnUse"><stop offset="0%" stop-opacity="1" style="stop-color:rgb(192,28,40)"/><stop offset="85.760236%" stop-opacity="1" style="stop-color:rgb(165,29,45)"/><stop offset="100%" stop-opacity="1" style="stop-color:rgb(122,22,33)"/></linearGradient><path d=" M 36.331 97.891 C 31.183 97.245 27.452 94.163 26.764 89.99 C 26.592 88.945 26.718 90.889 25.457 69.728 C 24.88 60.044 24.271 49.855 24.104 47.084 C 23.737 40.977 23.709 39.482 23.95 38.669 C 24.045 38.347 24.144 38.106 24.17 38.131 C 26.826 42.243 51.147 36.969 51.903 38.401 C 52.152 38.947 52.23 40.208 52.13 42.096 C 51.687 50.546 49.319 89.226 49.202 89.935 C 48.521 94.044 45.025 97.061 40.072 97.813 C 39.218 97.943 37.097 97.987 36.331 97.891 L 36.331 97.891 Z " fill="url(#_lgradient_6)"/><path d=" M 35.184 45.686 C 24.575 44.6 20.371 38.727 27.563 35.04 C 30.448 33.561 33.425 32.969 37.977 32.969 C 41.735 32.969 43.704 33.254 46.406 34.188 C 53.819 36.753 53.768 42.033 46.307 44.531 C 43.263 45.551 38.597 46.035 35.184 45.686 L 35.184 45.686 Z " fill="rgb(224,27,36)"/></g><g><path d=" M 35.583 73.427 C 30.131 72.933 25.251 70.062 24.052 66.641 L 23.717 65.688 L 23.315 56.411 C 22.898 46.802 22.865 45.691 23.014 46.036 C 23.061 46.146 23.103 46.444 23.107 46.699 C 23.195 52.564 36.272 56.116 46.014 52.921 C 50.233 51.538 52.81 49.191 52.848 46.699 C 52.851 46.444 52.893 46.146 52.94 46.036 C 53.089 45.691 53.057 46.796 52.639 56.411 L 52.237 65.688 L 51.903 66.641 C 50.319 71.159 43.202 74.118 35.583 73.427 L 35.583 73.427 Z " fill="rgb(224,27,36)"/><linearGradient id="_lgradient_7" x1="0.5189264987487521" y1="-0.002413395222002457" x2="0.5189264987487519" y2="1.0068952252145622" gradientTransform="matrix(12.591,0,0,5.525,31.681,15.811)" gradientUnits="userSpaceOnUse"><stop offset="0%" stop-opacity="1" style="stop-color:rgb(224,27,36)"/><stop offset="100%" stop-opacity="1" style="stop-color:rgb(188,28,41)"/></linearGradient><path d=" M 35.843 21.24 C 33.801 20.958 32.146 20.279 31.902 19.623 C 31.857 19.502 31.789 18.594 31.751 17.606 L 31.681 15.811 L 32.011 16.128 C 34.019 18.058 41.913 18.056 43.943 16.125 L 44.272 15.811 L 44.206 17.657 C 44.122 19.973 43.988 20.192 42.324 20.746 C 40.849 21.237 37.609 21.484 35.843 21.24 L 35.843 21.24 Z " fill="url(#_lgradient_7)"/></g><linearGradient id="_lgradient_8" x1="0.012725386460747057" y1="0.4641448048327418" x2="0.9987969801561923" y2="0.517116957350546" gradientTransform="matrix(10.614,0,0,27.081,25.589,12.476)" gradientUnits="userSpaceOnUse"><stop offset="0%" stop-opacity="1" style="stop-color:rgb(222,221,218)"/><stop offset="100%" stop-opacity="0" style="stop-color:rgb(192,191,188)"/></linearGradient><path d=" M 36.203 13.161 L 36.203 39.558 C 36.203 39.558 22.901 39.535 26.08 34.565 C 28.702 30.465 32.918 28.572 32.918 28.572 L 32.918 12.476 C 33.937 13.011 35.05 13.165 36.203 13.161 Z " fill="url(#_lgradient_8)"/></g><path d=" M 111.89 51.33 L 111.89 51.33 Q 116.79 52.24 119.835 54.865 L 119.835 54.865 L 119.835 54.865 Q 122.88 57.49 122.88 62.88 L 122.88 62.88 L 122.88 62.88 Q 122.88 70.51 117.42 73.73 L 117.42 73.73 L 117.42 73.73 Q 111.96 76.95 102.23 76.95 L 102.23 76.95 L 87.11 76.95 L 87.11 28.51 L 100.34 28.51 L 100.34 28.51 Q 110.28 28.51 115.53 31.45 L 115.53 31.45 L 115.53 31.45 Q 120.78 34.39 120.78 40.9 L 120.78 40.9 L 120.78 40.9 Q 120.78 45.17 118.225 47.795 L 118.225 47.795 L 118.225 47.795 Q 115.67 50.42 111.89 51.33 L 111.89 51.33 L 111.89 51.33 Z  M 101.32 35.93 L 97.4 35.93 L 97.4 48.18 L 102.44 48.18 L 102.44 48.18 Q 106.22 48.18 108.25 46.605 L 108.25 46.605 L 108.25 46.605 Q 110.28 45.03 110.28 41.81 L 110.28 41.81 L 110.28 41.81 Q 110.28 38.59 108.11 37.26 L 108.11 37.26 L 108.11 37.26 Q 105.94 35.93 101.32 35.93 L 101.32 35.93 L 101.32 35.93 Z  M 102.3 69.32 L 102.3 69.32 Q 107.13 69.32 109.65 67.885 L 109.65 67.885 L 109.65 67.885 Q 112.17 66.45 112.17 62.46 L 112.17 62.46 L 112.17 62.46 Q 112.17 55.18 103.21 55.18 L 103.21 55.18 L 97.4 55.18 L 97.4 69.32 L 102.3 69.32 L 102.3 69.32 Z  M 145.56 38.73 L 145.56 38.73 Q 153.89 38.73 158.58 43.945 L 158.58 43.945 L 158.58 43.945 Q 163.27 49.16 163.27 58.4 L 163.27 58.4 L 163.27 58.4 Q 163.27 64.28 161.135 68.725 L 161.135 68.725 L 161.135 68.725 Q 159 73.17 154.975 75.62 L 154.975 75.62 L 154.975 75.62 Q 150.95 78.07 145.49 78.07 L 145.49 78.07 L 145.49 78.07 Q 137.16 78.07 132.435 72.855 L 132.435 72.855 L 132.435 72.855 Q 127.71 67.64 127.71 58.4 L 127.71 58.4 L 127.71 58.4 Q 127.71 52.52 129.845 48.075 L 129.845 48.075 L 129.845 48.075 Q 131.98 43.63 136.005 41.18 L 136.005 41.18 L 136.005 41.18 Q 140.03 38.73 145.56 38.73 L 145.56 38.73 L 145.56 38.73 Z  M 145.56 46.15 L 145.56 46.15 Q 141.78 46.15 139.925 49.125 L 139.925 49.125 L 139.925 49.125 Q 138.07 52.1 138.07 58.4 L 138.07 58.4 L 138.07 58.4 Q 138.07 64.7 139.925 67.675 L 139.925 67.675 L 139.925 67.675 Q 141.78 70.65 145.49 70.65 L 145.49 70.65 L 145.49 70.65 Q 149.2 70.65 151.055 67.675 L 151.055 67.675 L 151.055 67.675 Q 152.91 64.7 152.91 58.4 L 152.91 58.4 L 152.91 58.4 Q 152.91 52.1 151.09 49.125 L 151.09 49.125 L 151.09 49.125 Q 149.27 46.15 145.56 46.15 L 145.56 46.15 L 145.56 46.15 Z  M 189.59 68.9 L 193.02 75.2 L 193.02 75.2 Q 190.99 76.6 188.435 77.335 L 188.435 77.335 L 188.435 77.335 Q 185.88 78.07 183.36 78.07 L 183.36 78.07 L 183.36 78.07 Q 177.62 78 174.68 74.78 L 174.68 74.78 L 174.68 74.78 Q 171.74 71.56 171.74 65.33 L 171.74 65.33 L 171.74 46.85 L 166.21 46.85 L 166.21 39.85 L 171.74 39.85 L 171.74 31.73 L 181.68 30.54 L 181.68 39.85 L 190.22 39.85 L 189.24 46.85 L 181.68 46.85 L 181.68 65.12 L 181.68 65.12 Q 181.68 67.78 182.59 68.97 L 182.59 68.97 L 182.59 68.97 Q 183.5 70.16 185.39 70.16 L 185.39 70.16 L 185.39 70.16 Q 187.28 70.16 189.59 68.9 L 189.59 68.9 L 189.59 68.9 Z  M 216.19 68.9 L 219.62 75.2 L 219.62 75.2 Q 217.59 76.6 215.035 77.335 L 215.035 77.335 L 215.035 77.335 Q 212.48 78.07 209.96 78.07 L 209.96 78.07 L 209.96 78.07 Q 204.22 78 201.28 74.78 L 201.28 74.78 L 201.28 74.78 Q 198.34 71.56 198.34 65.33 L 198.34 65.33 L 198.34 46.85 L 192.81 46.85 L 192.81 39.85 L 198.34 39.85 L 198.34 31.73 L 208.28 30.54 L 208.28 39.85 L 216.82 39.85 L 215.84 46.85 L 208.28 46.85 L 208.28 65.12 L 208.28 65.12 Q 208.28 67.78 209.19 68.97 L 209.19 68.97 L 209.19 68.97 Q 210.1 70.16 211.99 70.16 L 211.99 70.16 L 211.99 70.16 Q 213.88 70.16 216.19 68.9 L 216.19 68.9 L 216.19 68.9 Z  M 233.27 78.07 L 233.27 78.07 Q 228.72 78.07 226.2 75.445 L 226.2 75.445 L 226.2 75.445 Q 223.68 72.82 223.68 67.99 L 223.68 67.99 L 223.68 25.08 L 233.62 23.96 L 233.62 67.71 L 233.62 67.71 Q 233.62 70.16 235.65 70.16 L 235.65 70.16 L 235.65 70.16 Q 236.77 70.16 237.61 69.74 L 237.61 69.74 L 239.64 76.81 L 239.64 76.81 Q 236.77 78.07 233.27 78.07 L 233.27 78.07 L 233.27 78.07 Z  M 276.11 57.56 L 276.11 57.56 Q 276.11 58.26 275.9 61.41 L 275.9 61.41 L 252.73 61.41 L 252.73 61.41 Q 253.22 66.45 255.46 68.55 L 255.46 68.55 L 255.46 68.55 Q 257.7 70.65 261.55 70.65 L 261.55 70.65 L 261.55 70.65 Q 263.93 70.65 266.03 69.88 L 266.03 69.88 L 266.03 69.88 Q 268.13 69.11 270.58 67.43 L 270.58 67.43 L 274.71 73.03 L 274.71 73.03 Q 268.48 78.07 260.64 78.07 L 260.64 78.07 L 260.64 78.07 Q 251.89 78.07 247.2 72.82 L 247.2 72.82 L 247.2 72.82 Q 242.51 67.57 242.51 58.61 L 242.51 58.61 L 242.51 58.61 Q 242.51 52.94 244.505 48.425 L 244.505 48.425 L 244.505 48.425 Q 246.5 43.91 250.315 41.32 L 250.315 41.32 L 250.315 41.32 Q 254.13 38.73 259.38 38.73 L 259.38 38.73 L 259.38 38.73 Q 267.29 38.73 271.7 43.7 L 271.7 43.7 L 271.7 43.7 Q 276.11 48.67 276.11 57.56 L 276.11 57.56 L 276.11 57.56 Z  M 266.24 55.18 L 266.24 54.76 L 266.24 54.76 Q 266.24 45.52 259.59 45.52 L 259.59 45.52 L 259.59 45.52 Q 256.51 45.52 254.795 47.795 L 254.795 47.795 L 254.795 47.795 Q 253.08 50.07 252.73 55.18 L 252.73 55.18 L 266.24 55.18 L 266.24 55.18 Z  M 295.64 38.73 L 295.64 38.73 Q 303.48 38.73 309.08 43.21 L 309.08 43.21 L 305.3 48.88 L 305.3 48.88 Q 300.61 45.94 296.06 45.94 L 296.06 45.94 L 296.06 45.94 Q 293.61 45.94 292.28 46.85 L 292.28 46.85 L 292.28 46.85 Q 290.95 47.76 290.95 49.3 L 290.95 49.3 L 290.95 49.3 Q 290.95 50.42 291.545 51.19 L 291.545 51.19 L 291.545 51.19 Q 292.14 51.96 293.785 52.66 L 293.785 52.66 L 293.785 52.66 Q 295.43 53.36 298.72 54.34 L 298.72 54.34 L 298.72 54.34 Q 304.6 55.95 307.47 58.645 L 307.47 58.645 L 307.47 58.645 Q 310.34 61.34 310.34 66.03 L 310.34 66.03 L 310.34 66.03 Q 310.34 69.74 308.205 72.47 L 308.205 72.47 L 308.205 72.47 Q 306.07 75.2 302.43 76.635 L 302.43 76.635 L 302.43 76.635 Q 298.79 78.07 294.31 78.07 L 294.31 78.07 L 294.31 78.07 Q 289.62 78.07 285.77 76.635 L 285.77 76.635 L 285.77 76.635 Q 281.92 75.2 279.19 72.68 L 279.19 72.68 L 284.09 67.22 L 284.09 67.22 Q 288.78 70.86 294.03 70.86 L 294.03 70.86 L 294.03 70.86 Q 296.83 70.86 298.475 69.775 L 298.475 69.775 L 298.475 69.775 Q 300.12 68.69 300.12 66.8 L 300.12 66.8 L 300.12 66.8 Q 300.12 65.33 299.49 64.49 L 299.49 64.49 L 299.49 64.49 Q 298.86 63.65 297.18 62.915 L 297.18 62.915 L 297.18 62.915 Q 295.5 62.18 291.93 61.2 L 291.93 61.2 L 291.93 61.2 Q 286.33 59.66 283.635 56.825 L 283.635 56.825 L 283.635 56.825 Q 280.94 53.99 280.94 49.79 L 280.94 49.79 L 280.94 49.79 Q 280.94 46.64 282.76 44.12 L 282.76 44.12 L 282.76 44.12 Q 284.58 41.6 287.905 40.165 L 287.905 40.165 L 287.905 40.165 Q 291.23 38.73 295.64 38.73 L 295.64 38.73 L 295.64 38.73 Z " fill="rgb(37,35,38)"/></g></svg>
