<?xml version="1.0" encoding="UTF-8" standalone="no"?><!-- Generator: Gravit.io --><svg xmlns="http://www.w3.org/2000/svg" xmlns:xlink="http://www.w3.org/1999/xlink" style="isolation:isolate" viewBox="0 0 364 102" width="364pt" height="102pt"><defs><clipPath id="_clipPath_5ljjap3fVZmWwTufLJ3iB6pXXg8SxkUK"><rect width="364" height="102"/></clipPath></defs><g clip-path="url(#_clipPath_5ljjap3fVZmWwTufLJ3iB6pXXg8SxkUK)"><clipPath id="_clipPath_hXYG2ucnxVAev7NZVrDkv4bcS057eVOR"><rect x="19" y="0" width="364" height="102" transform="matrix(1,0,0,1,0,0)" fill="rgb(255,255,255)"/></clipPath><g clip-path="url(#_clipPath_hXYG2ucnxVAev7NZVrDkv4bcS057eVOR)"><g><g><path d=" M 130.89 51.33 L 130.89 51.33 Q 135.79 52.24 138.835 54.865 L 138.835 54.865 L 138.835 54.865 Q 141.88 57.49 141.88 62.88 L 141.88 62.88 L 141.88 62.88 Q 141.88 70.51 136.42 73.73 L 136.42 73.73 L 136.42 73.73 Q 130.96 76.95 121.23 76.95 L 121.23 76.95 L 106.11 76.95 L 106.11 28.51 L 119.34 28.51 L 119.34 28.51 Q 129.28 28.51 134.53 31.45 L 134.53 31.45 L 134.53 31.45 Q 139.78 34.39 139.78 40.9 L 139.78 40.9 L 139.78 40.9 Q 139.78 45.17 137.225 47.795 L 137.225 47.795 L 137.225 47.795 Q 134.67 50.42 130.89 51.33 L 130.89 51.33 L 130.89 51.33 Z  M 120.32 35.93 L 116.4 35.93 L 116.4 48.18 L 121.44 48.18 L 121.44 48.18 Q 125.22 48.18 127.25 46.605 L 127.25 46.605 L 127.25 46.605 Q 129.28 45.03 129.28 41.81 L 129.28 41.81 L 129.28 41.81 Q 129.28 38.59 127.11 37.26 L 127.11 37.26 L 127.11 37.26 Q 124.94 35.93 120.32 35.93 L 120.32 35.93 L 120.32 35.93 Z  M 121.3 69.32 L 121.3 69.32 Q 126.13 69.32 128.65 67.885 L 128.65 67.885 L 128.65 67.885 Q 131.17 66.45 131.17 62.46 L 131.17 62.46 L 131.17 62.46 Q 131.17 55.18 122.21 55.18 L 122.21 55.18 L 116.4 55.18 L 116.4 69.32 L 121.3 69.32 L 121.3 69.32 Z  M 164.56 38.73 L 164.56 38.73 Q 172.89 38.73 177.58 43.945 L 177.58 43.945 L 177.58 43.945 Q 182.27 49.16 182.27 58.4 L 182.27 58.4 L 182.27 58.4 Q 182.27 64.28 180.135 68.725 L 180.135 68.725 L 180.135 68.725 Q 178 73.17 173.975 75.62 L 173.975 75.62 L 173.975 75.62 Q 169.95 78.07 164.49 78.07 L 164.49 78.07 L 164.49 78.07 Q 156.16 78.07 151.435 72.855 L 151.435 72.855 L 151.435 72.855 Q 146.71 67.64 146.71 58.4 L 146.71 58.4 L 146.71 58.4 Q 146.71 52.52 148.845 48.075 L 148.845 48.075 L 148.845 48.075 Q 150.98 43.63 155.005 41.18 L 155.005 41.18 L 155.005 41.18 Q 159.03 38.73 164.56 38.73 L 164.56 38.73 L 164.56 38.73 Z  M 164.56 46.15 L 164.56 46.15 Q 160.78 46.15 158.925 49.125 L 158.925 49.125 L 158.925 49.125 Q 157.07 52.1 157.07 58.4 L 157.07 58.4 L 157.07 58.4 Q 157.07 64.7 158.925 67.675 L 158.925 67.675 L 158.925 67.675 Q 160.78 70.65 164.49 70.65 L 164.49 70.65 L 164.49 70.65 Q 168.2 70.65 170.055 67.675 L 170.055 67.675 L 170.055 67.675 Q 171.91 64.7 171.91 58.4 L 171.91 58.4 L 171.91 58.4 Q 171.91 52.1 170.09 49.125 L 170.09 49.125 L 170.09 49.125 Q 168.27 46.15 164.56 46.15 L 164.56 46.15 L 164.56 46.15 Z  M 208.59 68.9 L 212.02 75.2 L 212.02 75.2 Q 209.99 76.6 207.435 77.335 L 207.435 77.335 L 207.435 77.335 Q 204.88 78.07 202.36 78.07 L 202.36 78.07 L 202.36 78.07 Q 196.62 78 193.68 74.78 L 193.68 74.78 L 193.68 74.78 Q 190.74 71.56 190.74 65.33 L 190.74 65.33 L 190.74 46.85 L 185.21 46.85 L 185.21 39.85 L 190.74 39.85 L 190.74 31.73 L 200.68 30.54 L 200.68 39.85 L 209.22 39.85 L 208.24 46.85 L 200.68 46.85 L 200.68 65.12 L 200.68 65.12 Q 200.68 67.78 201.59 68.97 L 201.59 68.97 L 201.59 68.97 Q 202.5 70.16 204.39 70.16 L 204.39 70.16 L 204.39 70.16 Q 206.28 70.16 208.59 68.9 L 208.59 68.9 L 208.59 68.9 Z  M 235.19 68.9 L 238.62 75.2 L 238.62 75.2 Q 236.59 76.6 234.035 77.335 L 234.035 77.335 L 234.035 77.335 Q 231.48 78.07 228.96 78.07 L 228.96 78.07 L 228.96 78.07 Q 223.22 78 220.28 74.78 L 220.28 74.78 L 220.28 74.78 Q 217.34 71.56 217.34 65.33 L 217.34 65.33 L 217.34 46.85 L 211.81 46.85 L 211.81 39.85 L 217.34 39.85 L 217.34 31.73 L 227.28 30.54 L 227.28 39.85 L 235.82 39.85 L 234.84 46.85 L 227.28 46.85 L 227.28 65.12 L 227.28 65.12 Q 227.28 67.78 228.19 68.97 L 228.19 68.97 L 228.19 68.97 Q 229.1 70.16 230.99 70.16 L 230.99 70.16 L 230.99 70.16 Q 232.88 70.16 235.19 68.9 L 235.19 68.9 L 235.19 68.9 Z  M 252.27 78.07 L 252.27 78.07 Q 247.72 78.07 245.2 75.445 L 245.2 75.445 L 245.2 75.445 Q 242.68 72.82 242.68 67.99 L 242.68 67.99 L 242.68 25.08 L 252.62 23.96 L 252.62 67.71 L 252.62 67.71 Q 252.62 70.16 254.65 70.16 L 254.65 70.16 L 254.65 70.16 Q 255.77 70.16 256.61 69.74 L 256.61 69.74 L 258.64 76.81 L 258.64 76.81 Q 255.77 78.07 252.27 78.07 L 252.27 78.07 L 252.27 78.07 Z  M 295.11 57.56 L 295.11 57.56 Q 295.11 58.26 294.9 61.41 L 294.9 61.41 L 271.73 61.41 L 271.73 61.41 Q 272.22 66.45 274.46 68.55 L 274.46 68.55 L 274.46 68.55 Q 276.7 70.65 280.55 70.65 L 280.55 70.65 L 280.55 70.65 Q 282.93 70.65 285.03 69.88 L 285.03 69.88 L 285.03 69.88 Q 287.13 69.11 289.58 67.43 L 289.58 67.43 L 293.71 73.03 L 293.71 73.03 Q 287.48 78.07 279.64 78.07 L 279.64 78.07 L 279.64 78.07 Q 270.89 78.07 266.2 72.82 L 266.2 72.82 L 266.2 72.82 Q 261.51 67.57 261.51 58.61 L 261.51 58.61 L 261.51 58.61 Q 261.51 52.94 263.505 48.425 L 263.505 48.425 L 263.505 48.425 Q 265.5 43.91 269.315 41.32 L 269.315 41.32 L 269.315 41.32 Q 273.13 38.73 278.38 38.73 L 278.38 38.73 L 278.38 38.73 Q 286.29 38.73 290.7 43.7 L 290.7 43.7 L 290.7 43.7 Q 295.11 48.67 295.11 57.56 L 295.11 57.56 L 295.11 57.56 Z  M 285.24 55.18 L 285.24 54.76 L 285.24 54.76 Q 285.24 45.52 278.59 45.52 L 278.59 45.52 L 278.59 45.52 Q 275.51 45.52 273.795 47.795 L 273.795 47.795 L 273.795 47.795 Q 272.08 50.07 271.73 55.18 L 271.73 55.18 L 285.24 55.18 L 285.24 55.18 Z  M 314.64 38.73 L 314.64 38.73 Q 322.48 38.73 328.08 43.21 L 328.08 43.21 L 324.3 48.88 L 324.3 48.88 Q 319.61 45.94 315.06 45.94 L 315.06 45.94 L 315.06 45.94 Q 312.61 45.94 311.28 46.85 L 311.28 46.85 L 311.28 46.85 Q 309.95 47.76 309.95 49.3 L 309.95 49.3 L 309.95 49.3 Q 309.95 50.42 310.545 51.19 L 310.545 51.19 L 310.545 51.19 Q 311.14 51.96 312.785 52.66 L 312.785 52.66 L 312.785 52.66 Q 314.43 53.36 317.72 54.34 L 317.72 54.34 L 317.72 54.34 Q 323.6 55.95 326.47 58.645 L 326.47 58.645 L 326.47 58.645 Q 329.34 61.34 329.34 66.03 L 329.34 66.03 L 329.34 66.03 Q 329.34 69.74 327.205 72.47 L 327.205 72.47 L 327.205 72.47 Q 325.07 75.2 321.43 76.635 L 321.43 76.635 L 321.43 76.635 Q 317.79 78.07 313.31 78.07 L 313.31 78.07 L 313.31 78.07 Q 308.62 78.07 304.77 76.635 L 304.77 76.635 L 304.77 76.635 Q 300.92 75.2 298.19 72.68 L 298.19 72.68 L 303.09 67.22 L 303.09 67.22 Q 307.78 70.86 313.03 70.86 L 313.03 70.86 L 313.03 70.86 Q 315.83 70.86 317.475 69.775 L 317.475 69.775 L 317.475 69.775 Q 319.12 68.69 319.12 66.8 L 319.12 66.8 L 319.12 66.8 Q 319.12 65.33 318.49 64.49 L 318.49 64.49 L 318.49 64.49 Q 317.86 63.65 316.18 62.915 L 316.18 62.915 L 316.18 62.915 Q 314.5 62.18 310.93 61.2 L 310.93 61.2 L 310.93 61.2 Q 305.33 59.66 302.635 56.825 L 302.635 56.825 L 302.635 56.825 Q 299.94 53.99 299.94 49.79 L 299.94 49.79 L 299.94 49.79 Q 299.94 46.64 301.76 44.12 L 301.76 44.12 L 301.76 44.12 Q 303.58 41.6 306.905 40.165 L 306.905 40.165 L 306.905 40.165 Q 310.23 38.73 314.64 38.73 L 314.64 38.73 L 314.64 38.73 Z " fill="rgb(37,35,38)"/></g></g></g><linearGradient id="_lgradient_33" x1="0" y1="0.49999861363636366" x2="1" y2="0.49999861363636366" gradientTransform="matrix(22.879,0,0,67.111,38.217,20.495)" gradientUnits="userSpaceOnUse"><stop offset="0%" stop-opacity="1" style="stop-color:rgb(222,221,218)"/><stop offset="25%" stop-opacity="1" style="stop-color:rgb(246,245,244)"/><stop offset="75%" stop-opacity="1" style="stop-color:rgb(255,255,255)"/><stop offset="100%" stop-opacity="0.854902" style="stop-color:rgb(222,221,218)"/></linearGradient><path d=" M 42.447 20.495 C 42.447 20.495 38.217 30.874 38.217 31.565 L 38.217 87.606 L 61.096 87.606 L 61.096 31.562 C 61.096 31.565 57.282 20.495 57.282 20.495 L 42.447 20.495 Z " fill="url(#_lgradient_33)"/><linearGradient id="_lgradient_34" x1="6.333333333330415e-7" y1="0.5135935308559931" x2="1.0028826333333334" y2="0.5135935308559931" gradientTransform="matrix(22.879,0,0,11.067,38.217,20.495)" gradientUnits="userSpaceOnUse"><stop offset="0%" stop-opacity="1" style="stop-color:rgb(192,191,188)"/><stop offset="25%" stop-opacity="1" style="stop-color:rgb(222,221,218)"/><stop offset="75%" stop-opacity="1" style="stop-color:rgb(246,245,244)"/><stop offset="100%" stop-opacity="1" style="stop-color:rgb(192,191,188)"/></linearGradient><path d=" M 42.03 20.495 C 42.03 20.495 38.217 30.874 38.217 31.562 L 61.096 31.562 C 61.096 31.19 57.282 20.495 57.282 20.495 L 42.03 20.495 Z " fill="url(#_lgradient_34)"/><linearGradient id="_lgradient_35" x1="2.5757708133067325e-8" y1="0.8437538272132653" x2="1" y2="0.8437538272132653" gradientTransform="matrix(28.217,0,0,24.329,10,14.394)" gradientUnits="userSpaceOnUse"><stop offset="0%" stop-opacity="1" style="stop-color:rgb(192,191,188)"/><stop offset="25%" stop-opacity="1" style="stop-color:rgb(222,221,218)"/><stop offset="75%" stop-opacity="1" style="stop-color:rgb(222,221,218)"/><stop offset="100%" stop-opacity="1" style="stop-color:rgb(192,191,188)"/></linearGradient><path d=" M 10 38.718 C 10.378 38.73 38.217 38.718 38.217 38.718 C 38.217 28.944 29.185 20.495 29.066 14.394 L 19.151 14.394 C 19.151 20.495 9.997 28.944 10 38.718 Z " fill="url(#_lgradient_35)"/><path d=" M 61.096 87.606 L 38.217 87.606 L 38.217 90.656 L 61.096 90.656 L 61.096 87.606 Z " fill="rgb(192,191,188)"/><linearGradient id="_lgradient_36" x1="0" y1="0.5" x2="1" y2="0.5" gradientTransform="matrix(15.252,0,0,3.858,42.03,16.637)" gradientUnits="userSpaceOnUse"><stop offset="100%" stop-opacity="1" style="stop-color:rgb(26,95,180)"/><stop offset="100%" stop-opacity="1" style="stop-color:rgb(26,97,185)"/><stop offset="100%" stop-opacity="1" style="stop-color:rgb(29,114,217)"/><stop offset="100%" stop-opacity="1" style="stop-color:rgb(52,131,226)"/></linearGradient><path d=" M 42.03 16.637 L 42.03 20.495 L 57.282 20.495 L 57.282 16.637 L 42.03 16.637 Z " fill="url(#_lgradient_36)"/><linearGradient id="_lgradient_37" x1="0" y1="0.5" x2="1" y2="0.5" gradientTransform="matrix(22.879,0,0,18.246,38.217,44.926)" gradientUnits="userSpaceOnUse"><stop offset="100%" stop-opacity="1" style="stop-color:rgb(26,95,180)"/><stop offset="100%" stop-opacity="1" style="stop-color:rgb(26,97,185)"/><stop offset="100%" stop-opacity="1" style="stop-color:rgb(29,114,217)"/><stop offset="100%" stop-opacity="1" style="stop-color:rgb(52,131,226)"/></linearGradient><path d=" M 49.656 44.926 C 43.937 44.926 43.937 52.138 43.937 52.138 L 38.217 52.138 L 38.217 63.172 L 61.096 63.172 L 61.096 52.138 L 55.376 52.138 C 55.376 52.138 55.376 44.926 49.656 44.926 Z  M 49.656 46.451 C 49.656 46.451 53.815 51.524 52.293 54.033 C 50.77 56.541 48.539 56.541 47.017 54.033 C 45.495 51.524 49.656 46.451 49.656 46.451 Z " fill="url(#_lgradient_37)"/><path d=" M 38.217 87.606 L 15.663 87.606 C 15.568 87.606 15.469 87.603 15.374 87.597 C 15.276 87.594 15.18 87.585 15.085 87.573 C 14.987 87.564 14.894 87.552 14.799 87.534 C 14.704 87.519 14.614 87.502 14.519 87.481 C 14.427 87.463 14.334 87.439 14.245 87.412 C 14.156 87.388 14.066 87.361 13.977 87.332 C 13.798 87.272 13.625 87.204 13.456 87.126 C 13.286 87.052 13.119 86.965 12.958 86.87 C 12.8 86.778 12.645 86.676 12.493 86.566 C 12.341 86.456 12.196 86.34 12.058 86.215 C 11.918 86.092 11.781 85.961 11.656 85.821 C 11.528 85.684 11.406 85.538 11.29 85.389 C 11.174 85.237 11.066 85.083 10.965 84.919 C 10.864 84.758 10.769 84.591 10.682 84.418 C 10.596 84.245 10.515 84.067 10.444 83.882 C 10.372 83.7 10.307 83.516 10.253 83.322 C 10.2 83.131 10.152 82.938 10.116 82.738 C 10.077 82.539 10.048 82.336 10.03 82.13 C 10.012 81.925 10 81.716 10 81.505 L 10 84.237 L 10 84.24 C 10 84.46 10.012 84.68 10.033 84.895 L 10.033 84.898 C 10.054 85.112 10.086 85.324 10.128 85.532 C 10.167 85.741 10.22 85.946 10.28 86.146 L 10.28 86.149 C 10.34 86.349 10.411 86.542 10.489 86.736 C 10.566 86.927 10.655 87.114 10.754 87.296 C 11.04 87.838 11.403 88.336 11.826 88.771 C 12.955 89.929 14.516 90.647 16.25 90.656 L 38.217 90.656 L 38.217 87.606 Z " fill="rgb(230,97,0)"/><linearGradient id="_lgradient_38" x1="0.000003106737120117664" y1="0.5792014431818183" x2="1.0000029999998419" y2="0.5792014431818183" gradientTransform="matrix(28.217,0,0,67.111,10,20.495)" gradientUnits="userSpaceOnUse"><stop offset="0%" stop-opacity="1" style="stop-color:rgb(255,163,72)"/><stop offset="25%" stop-opacity="1" style="stop-color:rgb(255,190,111)"/><stop offset="75%" stop-opacity="1" style="stop-color:rgb(255,190,111)"/><stop offset="100%" stop-opacity="1" style="stop-color:rgb(255,163,72)"/></linearGradient><path d=" M 17.173 20.495 C 17.17 20.498 17.167 20.501 17.164 20.504 C 14.471 25.694 9.997 31.878 10 38.715 L 10 81.505 C 10 81.716 10.012 81.925 10.03 82.13 C 10.048 82.336 10.077 82.539 10.113 82.738 C 10.152 82.938 10.2 83.131 10.253 83.325 C 10.307 83.516 10.372 83.7 10.444 83.882 C 10.515 84.067 10.596 84.245 10.682 84.418 C 10.769 84.591 10.864 84.758 10.965 84.922 C 11.066 85.083 11.174 85.237 11.29 85.389 C 11.406 85.541 11.528 85.684 11.653 85.824 C 11.781 85.961 11.918 86.092 12.056 86.215 C 12.196 86.34 12.341 86.456 12.493 86.566 C 12.645 86.676 12.8 86.778 12.958 86.873 C 13.119 86.965 13.286 87.052 13.456 87.129 C 13.625 87.204 13.798 87.272 13.977 87.332 C 14.066 87.361 14.156 87.388 14.245 87.415 C 14.334 87.439 14.427 87.463 14.519 87.481 C 14.614 87.502 14.704 87.519 14.799 87.534 C 14.894 87.552 14.987 87.564 15.082 87.573 C 15.18 87.585 15.276 87.594 15.371 87.597 C 15.469 87.603 15.568 87.606 15.663 87.606 L 38.217 87.606 L 38.217 38.715 C 38.217 31.878 33.802 25.694 31.106 20.504 C 31.103 20.501 31.1 20.498 31.097 20.495 L 17.173 20.495 Z " fill="url(#_lgradient_38)"/><linearGradient id="_lgradient_39" x1="0.000012162162162265844" y1="0.4885086258262129" x2="1.000011972972973" y2="0.4885086258262129" gradientTransform="matrix(28.217,0,0,60.289,61.096,30.368)" gradientUnits="userSpaceOnUse"><stop offset="0%" stop-opacity="1" style="stop-color:rgb(224,27,36)"/><stop offset="25%" stop-opacity="1" style="stop-color:rgb(237,51,59)"/><stop offset="75%" stop-opacity="1" style="stop-color:rgb(246,97,81)"/><stop offset="100%" stop-opacity="1" style="stop-color:rgb(224,27,36)"/></linearGradient><path d=" M 67.197 30.368 C 63.952 31.952 61.096 35.485 61.096 39.159 L 61.096 90.656 L 83.063 90.656 C 86.527 90.641 89.313 87.785 89.313 84.24 L 89.313 39.159 C 89.313 35.477 86.468 31.949 83.212 30.368 L 67.197 30.368 Z " fill="url(#_lgradient_39)"/><linearGradient id="_lgradient_40" x1="0" y1="0.5" x2="1" y2="0.5" gradientTransform="matrix(9.914,0,0,3.05,19.151,11.344)" gradientUnits="userSpaceOnUse"><stop offset="0%" stop-opacity="1" style="stop-color:rgb(51,209,122)"/><stop offset="38.845400000000005%" stop-opacity="1" style="stop-color:rgb(87,227,137)"/><stop offset="75%" stop-opacity="1" style="stop-color:rgb(87,227,137)"/><stop offset="100%" stop-opacity="0.854902" style="stop-color:rgb(46,194,126)"/></linearGradient><path d=" M 19.151 11.344 L 29.066 11.344 L 29.066 14.394 L 19.151 14.394 L 19.151 11.344 Z " fill="url(#_lgradient_40)"/><path d=" M 89.313 81.505 C 89.313 84.886 86.786 87.606 83.649 87.606 L 61.096 87.606 L 61.096 90.656 L 83.063 90.656 C 86.527 90.641 89.313 87.785 89.313 84.24 L 89.313 81.505 Z " fill="rgb(192,28,40)"/><linearGradient id="_lgradient_41" x1="-0.3809523809523805" y1="0.5004809846153861" x2="1.3809523809523814" y2="0.5004809846153861" gradientTransform="matrix(16.015,0,0,1.549,67.197,28.842)" gradientUnits="userSpaceOnUse"><stop offset="0%" stop-opacity="1" style="stop-color:rgb(61,56,70)"/><stop offset="25%" stop-opacity="1" style="stop-color:rgb(94,92,100)"/><stop offset="75%" stop-opacity="1" style="stop-color:rgb(119,118,123)"/><stop offset="100%" stop-opacity="1" style="stop-color:rgb(119,118,123)"/></linearGradient><path d=" M 67.197 28.842 L 83.212 28.842 L 83.212 30.391 L 67.197 30.391 L 67.197 28.842 Z " fill="url(#_lgradient_41)"/><linearGradient id="_lgradient_42" x1="0" y1="0.5" x2="1" y2="0.5" gradientTransform="matrix(16.015,0,0,5.297,67.197,23.546)" gradientUnits="userSpaceOnUse"><stop offset="100%" stop-opacity="1" style="stop-color:rgb(154,153,150)"/><stop offset="100%" stop-opacity="1" style="stop-color:rgb(158,157,154)"/><stop offset="100%" stop-opacity="1" style="stop-color:rgb(193,192,189)"/><stop offset="100%" stop-opacity="1" style="stop-color:rgb(220,219,216)"/></linearGradient><path d=" M 67.197 23.546 L 83.212 23.546 L 83.212 28.842 L 67.197 28.842 L 67.197 23.546 Z " fill="url(#_lgradient_42)"/><linearGradient id="_lgradient_43" x1="0" y1="0.5" x2="1" y2="0.5" gradientTransform="matrix(9.151,0,0,3.438,80.161,78.067)" gradientUnits="userSpaceOnUse"><stop offset="100%" stop-opacity="1" style="stop-color:rgb(154,153,150)"/><stop offset="100%" stop-opacity="1" style="stop-color:rgb(158,157,154)"/><stop offset="100%" stop-opacity="1" style="stop-color:rgb(193,192,189)"/><stop offset="100%" stop-opacity="1" style="stop-color:rgb(220,219,216)"/></linearGradient><path d=" M 80.161 78.067 L 89.313 78.067 L 89.313 81.505 L 80.161 81.505 L 80.161 78.067 Z " fill="url(#_lgradient_43)"/><path d=" M 24.108 43.374 C 19.896 43.374 16.482 46.788 16.482 51 C 16.482 55.212 19.896 58.626 24.108 58.626 C 28.321 58.626 31.735 55.212 31.735 51 C 31.735 46.788 28.321 43.374 24.108 43.374 Z " fill="rgb(51,209,122)" fill-opacity="0.854902"/></g></svg>