<?xml version="1.0" encoding="UTF-8" standalone="no"?><!-- Generator: Gravit.io --><svg xmlns="http://www.w3.org/2000/svg" xmlns:xlink="http://www.w3.org/1999/xlink" style="isolation:isolate" viewBox="0 0 364 102" width="364pt" height="102pt"><defs><clipPath id="_clipPath_KKLqNIuZyzEbL16u4xjnYHrMNzqKmt37"><rect width="364" height="102"/></clipPath></defs><g clip-path="url(#_clipPath_KKLqNIuZyzEbL16u4xjnYHrMNzqKmt37)"><clipPath id="_clipPath_rY38rS3zndo1jALJIfZDX3gab15A6zvV"><rect x="10" y="0" width="364" height="102" transform="matrix(1,0,0,1,0,0)" fill="rgb(255,255,255)"/></clipPath><g clip-path="url(#_clipPath_rY38rS3zndo1jALJIfZDX3gab15A6zvV)"><g><g><path d=" M 121.89 51.33 L 121.89 51.33 Q 126.79 52.24 129.835 54.865 L 129.835 54.865 L 129.835 54.865 Q 132.88 57.49 132.88 62.88 L 132.88 62.88 L 132.88 62.88 Q 132.88 70.51 127.42 73.73 L 127.42 73.73 L 127.42 73.73 Q 121.96 76.95 112.23 76.95 L 112.23 76.95 L 97.11 76.95 L 97.11 28.51 L 110.34 28.51 L 110.34 28.51 Q 120.28 28.51 125.53 31.45 L 125.53 31.45 L 125.53 31.45 Q 130.78 34.39 130.78 40.9 L 130.78 40.9 L 130.78 40.9 Q 130.78 45.17 128.225 47.795 L 128.225 47.795 L 128.225 47.795 Q 125.67 50.42 121.89 51.33 L 121.89 51.33 L 121.89 51.33 L 121.89 51.33 Z  M 111.32 35.93 L 107.4 35.93 L 107.4 48.18 L 112.44 48.18 L 112.44 48.18 Q 116.22 48.18 118.25 46.605 L 118.25 46.605 L 118.25 46.605 Q 120.28 45.03 120.28 41.81 L 120.28 41.81 L 120.28 41.81 Q 120.28 38.59 118.11 37.26 L 118.11 37.26 L 118.11 37.26 Q 115.94 35.93 111.32 35.93 L 111.32 35.93 L 111.32 35.93 L 111.32 35.93 Z  M 112.3 69.32 L 112.3 69.32 Q 117.13 69.32 119.65 67.885 L 119.65 67.885 L 119.65 67.885 Q 122.17 66.45 122.17 62.46 L 122.17 62.46 L 122.17 62.46 Q 122.17 55.18 113.21 55.18 L 113.21 55.18 L 107.4 55.18 L 107.4 69.32 L 112.3 69.32 L 112.3 69.32 L 112.3 69.32 Z  M 155.56 38.73 L 155.56 38.73 Q 163.89 38.73 168.58 43.945 L 168.58 43.945 L 168.58 43.945 Q 173.27 49.16 173.27 58.4 L 173.27 58.4 L 173.27 58.4 Q 173.27 64.28 171.135 68.725 L 171.135 68.725 L 171.135 68.725 Q 169 73.17 164.975 75.62 L 164.975 75.62 L 164.975 75.62 Q 160.95 78.07 155.49 78.07 L 155.49 78.07 L 155.49 78.07 Q 147.16 78.07 142.435 72.855 L 142.435 72.855 L 142.435 72.855 Q 137.71 67.64 137.71 58.4 L 137.71 58.4 L 137.71 58.4 Q 137.71 52.52 139.845 48.075 L 139.845 48.075 L 139.845 48.075 Q 141.98 43.63 146.005 41.18 L 146.005 41.18 L 146.005 41.18 Q 150.03 38.73 155.56 38.73 L 155.56 38.73 L 155.56 38.73 L 155.56 38.73 Z  M 155.56 46.15 L 155.56 46.15 Q 151.78 46.15 149.925 49.125 L 149.925 49.125 L 149.925 49.125 Q 148.07 52.1 148.07 58.4 L 148.07 58.4 L 148.07 58.4 Q 148.07 64.7 149.925 67.675 L 149.925 67.675 L 149.925 67.675 Q 151.78 70.65 155.49 70.65 L 155.49 70.65 L 155.49 70.65 Q 159.2 70.65 161.055 67.675 L 161.055 67.675 L 161.055 67.675 Q 162.91 64.7 162.91 58.4 L 162.91 58.4 L 162.91 58.4 Q 162.91 52.1 161.09 49.125 L 161.09 49.125 L 161.09 49.125 Q 159.27 46.15 155.56 46.15 L 155.56 46.15 L 155.56 46.15 L 155.56 46.15 Z  M 199.59 68.9 L 203.02 75.2 L 203.02 75.2 Q 200.99 76.6 198.435 77.335 L 198.435 77.335 L 198.435 77.335 Q 195.88 78.07 193.36 78.07 L 193.36 78.07 L 193.36 78.07 Q 187.62 78 184.68 74.78 L 184.68 74.78 L 184.68 74.78 Q 181.74 71.56 181.74 65.33 L 181.74 65.33 L 181.74 46.85 L 176.21 46.85 L 176.21 39.85 L 181.74 39.85 L 181.74 31.73 L 191.68 30.54 L 191.68 39.85 L 200.22 39.85 L 199.24 46.85 L 191.68 46.85 L 191.68 65.12 L 191.68 65.12 Q 191.68 67.78 192.59 68.97 L 192.59 68.97 L 192.59 68.97 Q 193.5 70.16 195.39 70.16 L 195.39 70.16 L 195.39 70.16 Q 197.28 70.16 199.59 68.9 L 199.59 68.9 L 199.59 68.9 L 199.59 68.9 Z  M 226.19 68.9 L 229.62 75.2 L 229.62 75.2 Q 227.59 76.6 225.035 77.335 L 225.035 77.335 L 225.035 77.335 Q 222.48 78.07 219.96 78.07 L 219.96 78.07 L 219.96 78.07 Q 214.22 78 211.28 74.78 L 211.28 74.78 L 211.28 74.78 Q 208.34 71.56 208.34 65.33 L 208.34 65.33 L 208.34 46.85 L 202.81 46.85 L 202.81 39.85 L 208.34 39.85 L 208.34 31.73 L 218.28 30.54 L 218.28 39.85 L 226.82 39.85 L 225.84 46.85 L 218.28 46.85 L 218.28 65.12 L 218.28 65.12 Q 218.28 67.78 219.19 68.97 L 219.19 68.97 L 219.19 68.97 Q 220.1 70.16 221.99 70.16 L 221.99 70.16 L 221.99 70.16 Q 223.88 70.16 226.19 68.9 L 226.19 68.9 L 226.19 68.9 L 226.19 68.9 Z  M 243.27 78.07 L 243.27 78.07 Q 238.72 78.07 236.2 75.445 L 236.2 75.445 L 236.2 75.445 Q 233.68 72.82 233.68 67.99 L 233.68 67.99 L 233.68 25.08 L 243.62 23.96 L 243.62 67.71 L 243.62 67.71 Q 243.62 70.16 245.65 70.16 L 245.65 70.16 L 245.65 70.16 Q 246.77 70.16 247.61 69.74 L 247.61 69.74 L 249.64 76.81 L 249.64 76.81 Q 246.77 78.07 243.27 78.07 L 243.27 78.07 L 243.27 78.07 L 243.27 78.07 Z  M 286.11 57.56 L 286.11 57.56 Q 286.11 58.26 285.9 61.41 L 285.9 61.41 L 262.73 61.41 L 262.73 61.41 Q 263.22 66.45 265.46 68.55 L 265.46 68.55 L 265.46 68.55 Q 267.7 70.65 271.55 70.65 L 271.55 70.65 L 271.55 70.65 Q 273.93 70.65 276.03 69.88 L 276.03 69.88 L 276.03 69.88 Q 278.13 69.11 280.58 67.43 L 280.58 67.43 L 284.71 73.03 L 284.71 73.03 Q 278.48 78.07 270.64 78.07 L 270.64 78.07 L 270.64 78.07 Q 261.89 78.07 257.2 72.82 L 257.2 72.82 L 257.2 72.82 Q 252.51 67.57 252.51 58.61 L 252.51 58.61 L 252.51 58.61 Q 252.51 52.94 254.505 48.425 L 254.505 48.425 L 254.505 48.425 Q 256.5 43.91 260.315 41.32 L 260.315 41.32 L 260.315 41.32 Q 264.13 38.73 269.38 38.73 L 269.38 38.73 L 269.38 38.73 Q 277.29 38.73 281.7 43.7 L 281.7 43.7 L 281.7 43.7 Q 286.11 48.67 286.11 57.56 L 286.11 57.56 L 286.11 57.56 L 286.11 57.56 Z  M 276.24 55.18 L 276.24 54.76 L 276.24 54.76 Q 276.24 45.52 269.59 45.52 L 269.59 45.52 L 269.59 45.52 Q 266.51 45.52 264.795 47.795 L 264.795 47.795 L 264.795 47.795 Q 263.08 50.07 262.73 55.18 L 262.73 55.18 L 276.24 55.18 L 276.24 55.18 L 276.24 55.18 Z  M 305.64 38.73 L 305.64 38.73 Q 313.48 38.73 319.08 43.21 L 319.08 43.21 L 315.3 48.88 L 315.3 48.88 Q 310.61 45.94 306.06 45.94 L 306.06 45.94 L 306.06 45.94 Q 303.61 45.94 302.28 46.85 L 302.28 46.85 L 302.28 46.85 Q 300.95 47.76 300.95 49.3 L 300.95 49.3 L 300.95 49.3 Q 300.95 50.42 301.545 51.19 L 301.545 51.19 L 301.545 51.19 Q 302.14 51.96 303.785 52.66 L 303.785 52.66 L 303.785 52.66 Q 305.43 53.36 308.72 54.34 L 308.72 54.34 L 308.72 54.34 Q 314.6 55.95 317.47 58.645 L 317.47 58.645 L 317.47 58.645 Q 320.34 61.34 320.34 66.03 L 320.34 66.03 L 320.34 66.03 Q 320.34 69.74 318.205 72.47 L 318.205 72.47 L 318.205 72.47 Q 316.07 75.2 312.43 76.635 L 312.43 76.635 L 312.43 76.635 Q 308.79 78.07 304.31 78.07 L 304.31 78.07 L 304.31 78.07 Q 299.62 78.07 295.77 76.635 L 295.77 76.635 L 295.77 76.635 Q 291.92 75.2 289.19 72.68 L 289.19 72.68 L 294.09 67.22 L 294.09 67.22 Q 298.78 70.86 304.03 70.86 L 304.03 70.86 L 304.03 70.86 Q 306.83 70.86 308.475 69.775 L 308.475 69.775 L 308.475 69.775 Q 310.12 68.69 310.12 66.8 L 310.12 66.8 L 310.12 66.8 Q 310.12 65.33 309.49 64.49 L 309.49 64.49 L 309.49 64.49 Q 308.86 63.65 307.18 62.915 L 307.18 62.915 L 307.18 62.915 Q 305.5 62.18 301.93 61.2 L 301.93 61.2 L 301.93 61.2 Q 296.33 59.66 293.635 56.825 L 293.635 56.825 L 293.635 56.825 Q 290.94 53.99 290.94 49.79 L 290.94 49.79 L 290.94 49.79 Q 290.94 46.64 292.76 44.12 L 292.76 44.12 L 292.76 44.12 Q 294.58 41.6 297.905 40.165 L 297.905 40.165 L 297.905 40.165 Q 301.23 38.73 305.64 38.73 L 305.64 38.73 L 305.64 38.73 L 305.64 38.73 Z " fill="rgb(37,35,38)"/></g></g></g><linearGradient id="_lgradient_11" x1="0" y1="0.49999861363636366" x2="1" y2="0.49999861363636366" gradientTransform="matrix(20.481,0,0,60.077,35.26,23.692)" gradientUnits="userSpaceOnUse"><stop offset="0%" stop-opacity="1" style="stop-color:rgb(222,221,218)"/><stop offset="25%" stop-opacity="1" style="stop-color:rgb(246,245,244)"/><stop offset="75%" stop-opacity="1" style="stop-color:rgb(255,255,255)"/><stop offset="100%" stop-opacity="0.854902" style="stop-color:rgb(222,221,218)"/></linearGradient><path d=" M 39.046 23.692 C 39.046 23.692 35.26 32.983 35.26 33.602 L 35.26 83.769 L 55.74 83.769 L 55.74 33.599 C 55.74 33.602 52.327 23.692 52.327 23.692 L 39.046 23.692 Z " fill="url(#_lgradient_11)"/><linearGradient id="_lgradient_12" x1="6.333333333330415e-7" y1="0.5135935308559931" x2="1.0028826333333334" y2="0.5135935308559931" gradientTransform="matrix(20.481,0,0,9.907,35.26,23.692)" gradientUnits="userSpaceOnUse"><stop offset="0%" stop-opacity="1" style="stop-color:rgb(192,191,188)"/><stop offset="25%" stop-opacity="1" style="stop-color:rgb(222,221,218)"/><stop offset="75%" stop-opacity="1" style="stop-color:rgb(246,245,244)"/><stop offset="100%" stop-opacity="1" style="stop-color:rgb(192,191,188)"/></linearGradient><path d=" M 38.673 23.692 C 38.673 23.692 35.26 32.983 35.26 33.599 L 55.74 33.599 C 55.74 33.266 52.327 23.692 52.327 23.692 L 38.673 23.692 Z " fill="url(#_lgradient_12)"/><linearGradient id="_lgradient_13" x1="2.5757708133067325e-8" y1="0.8437538272132653" x2="1" y2="0.8437538272132653" gradientTransform="matrix(25.26,0,0,21.779,10,18.231)" gradientUnits="userSpaceOnUse"><stop offset="0%" stop-opacity="1" style="stop-color:rgb(192,191,188)"/><stop offset="25%" stop-opacity="1" style="stop-color:rgb(222,221,218)"/><stop offset="75%" stop-opacity="1" style="stop-color:rgb(222,221,218)"/><stop offset="100%" stop-opacity="1" style="stop-color:rgb(192,191,188)"/></linearGradient><path d=" M 10 40.005 C 10.339 40.016 35.26 40.005 35.26 40.005 C 35.26 31.255 27.174 23.692 27.067 18.231 L 18.192 18.231 C 18.192 23.692 9.997 31.255 10 40.005 Z " fill="url(#_lgradient_13)"/><path d=" M 55.74 83.769 L 35.26 83.769 L 35.26 86.5 L 55.74 86.5 L 55.74 83.769 Z " fill="rgb(192,191,188)"/><linearGradient id="_lgradient_14" x1="0" y1="0.5" x2="1" y2="0.5" gradientTransform="matrix(13.654,0,0,3.453,38.673,20.239)" gradientUnits="userSpaceOnUse"><stop offset="100%" stop-opacity="1" style="stop-color:rgb(26,95,180)"/><stop offset="100%" stop-opacity="1" style="stop-color:rgb(26,97,185)"/><stop offset="100%" stop-opacity="1" style="stop-color:rgb(29,114,217)"/><stop offset="100%" stop-opacity="1" style="stop-color:rgb(52,131,226)"/></linearGradient><path d=" M 38.673 20.239 L 38.673 23.692 L 52.327 23.692 L 52.327 20.239 L 38.673 20.239 Z " fill="url(#_lgradient_14)"/><linearGradient id="_lgradient_15" x1="0" y1="0.5" x2="1" y2="0.5" gradientTransform="matrix(20.481,0,0,16.334,35.26,45.562)" gradientUnits="userSpaceOnUse"><stop offset="100%" stop-opacity="1" style="stop-color:rgb(26,95,180)"/><stop offset="100%" stop-opacity="1" style="stop-color:rgb(26,97,185)"/><stop offset="100%" stop-opacity="1" style="stop-color:rgb(29,114,217)"/><stop offset="100%" stop-opacity="1" style="stop-color:rgb(52,131,226)"/></linearGradient><path d=" M 45.5 45.562 C 40.38 45.562 40.38 52.019 40.38 52.019 L 35.26 52.019 L 35.26 61.896 L 55.74 61.896 L 55.74 52.019 L 50.62 52.019 C 50.62 52.019 50.62 45.562 45.5 45.562 Z  M 45.5 46.928 C 45.5 46.928 49.223 51.469 47.86 53.715 C 46.497 55.96 44.5 55.96 43.137 53.715 C 41.775 51.469 45.5 46.928 45.5 46.928 Z " fill="url(#_lgradient_15)"/><path d=" M 35.26 83.769 L 15.07 83.769 C 14.984 83.769 14.896 83.767 14.811 83.761 C 14.723 83.759 14.638 83.751 14.552 83.74 C 14.464 83.732 14.381 83.721 14.296 83.705 C 14.211 83.692 14.131 83.676 14.045 83.657 C 13.963 83.641 13.88 83.62 13.8 83.596 C 13.72 83.575 13.64 83.551 13.56 83.524 C 13.4 83.471 13.245 83.409 13.093 83.34 C 12.941 83.273 12.792 83.196 12.648 83.111 C 12.507 83.028 12.368 82.937 12.232 82.839 C 12.096 82.74 11.965 82.636 11.843 82.524 C 11.717 82.415 11.595 82.297 11.483 82.172 C 11.368 82.049 11.259 81.918 11.155 81.785 C 11.051 81.649 10.955 81.51 10.864 81.364 C 10.773 81.22 10.688 81.07 10.611 80.916 C 10.533 80.761 10.461 80.601 10.397 80.436 C 10.333 80.273 10.275 80.108 10.227 79.934 C 10.179 79.764 10.136 79.59 10.104 79.412 C 10.069 79.233 10.043 79.052 10.027 78.868 C 10.011 78.684 10 78.497 10 78.308 L 10 80.753 L 10 80.756 C 10 80.953 10.011 81.15 10.029 81.342 L 10.029 81.345 C 10.048 81.537 10.077 81.726 10.115 81.913 C 10.149 82.1 10.197 82.284 10.251 82.463 L 10.251 82.465 C 10.304 82.644 10.368 82.817 10.437 82.991 C 10.507 83.161 10.587 83.329 10.675 83.492 C 10.931 83.977 11.256 84.423 11.635 84.812 C 12.645 85.849 14.043 86.492 15.595 86.5 L 35.26 86.5 L 35.26 83.769 Z " fill="rgb(230,97,0)"/><linearGradient id="_lgradient_16" x1="0.000003106737120117664" y1="0.5792014431818183" x2="1.0000029999998419" y2="0.5792014431818183" gradientTransform="matrix(25.26,0,0,60.077,10,23.692)" gradientUnits="userSpaceOnUse"><stop offset="0%" stop-opacity="1" style="stop-color:rgb(255,163,72)"/><stop offset="25%" stop-opacity="1" style="stop-color:rgb(255,190,111)"/><stop offset="75%" stop-opacity="1" style="stop-color:rgb(255,190,111)"/><stop offset="100%" stop-opacity="1" style="stop-color:rgb(255,163,72)"/></linearGradient><path d=" M 16.422 23.692 C 16.419 23.695 16.416 23.698 16.414 23.7 C 14.003 28.346 9.997 33.882 10 40.002 L 10 78.308 C 10 78.497 10.011 78.684 10.027 78.868 C 10.043 79.052 10.069 79.233 10.101 79.412 C 10.136 79.59 10.179 79.764 10.227 79.937 C 10.275 80.108 10.333 80.273 10.397 80.436 C 10.461 80.601 10.533 80.761 10.611 80.916 C 10.688 81.07 10.773 81.22 10.864 81.366 C 10.955 81.51 11.051 81.649 11.155 81.785 C 11.259 81.921 11.368 82.049 11.48 82.175 C 11.595 82.297 11.717 82.415 11.84 82.524 C 11.965 82.636 12.096 82.74 12.232 82.839 C 12.368 82.937 12.507 83.028 12.648 83.113 C 12.792 83.196 12.941 83.273 13.093 83.343 C 13.245 83.409 13.4 83.471 13.56 83.524 C 13.64 83.551 13.72 83.575 13.8 83.599 C 13.88 83.62 13.963 83.641 14.045 83.657 C 14.131 83.676 14.211 83.692 14.296 83.705 C 14.381 83.721 14.464 83.732 14.55 83.74 C 14.638 83.751 14.723 83.759 14.808 83.761 C 14.896 83.767 14.984 83.769 15.07 83.769 L 35.26 83.769 L 35.26 40.002 C 35.26 33.882 31.307 28.346 28.894 23.7 C 28.891 23.698 28.889 23.695 28.886 23.692 L 16.422 23.692 Z " fill="url(#_lgradient_16)"/><linearGradient id="_lgradient_17" x1="0.000012162162162265844" y1="0.4885086258262129" x2="1.000011972972973" y2="0.4885086258262129" gradientTransform="matrix(25.26,0,0,53.97,55.74,32.53)" gradientUnits="userSpaceOnUse"><stop offset="0%" stop-opacity="1" style="stop-color:rgb(224,27,36)"/><stop offset="25%" stop-opacity="1" style="stop-color:rgb(237,51,59)"/><stop offset="75%" stop-opacity="1" style="stop-color:rgb(246,97,81)"/><stop offset="100%" stop-opacity="1" style="stop-color:rgb(224,27,36)"/></linearGradient><path d=" M 61.202 32.53 C 58.298 33.949 55.74 37.111 55.74 40.4 L 55.74 86.5 L 75.405 86.5 C 78.507 86.487 81 83.929 81 80.756 L 81 40.4 C 81 37.103 78.453 33.946 75.538 32.53 L 61.202 32.53 Z " fill="url(#_lgradient_17)"/><linearGradient id="_lgradient_18" x1="0" y1="0.5" x2="1" y2="0.5" gradientTransform="matrix(8.875,0,0,2.731,18.192,15.5)" gradientUnits="userSpaceOnUse"><stop offset="0%" stop-opacity="1" style="stop-color:rgb(51,209,122)"/><stop offset="38.845400000000005%" stop-opacity="1" style="stop-color:rgb(87,227,137)"/><stop offset="75%" stop-opacity="1" style="stop-color:rgb(87,227,137)"/><stop offset="100%" stop-opacity="0.854902" style="stop-color:rgb(46,194,126)"/></linearGradient><path d=" M 18.192 15.5 L 27.067 15.5 L 27.067 18.231 L 18.192 18.231 L 18.192 15.5 Z " fill="url(#_lgradient_18)"/><path d=" M 81 78.308 C 81 81.334 78.739 83.769 75.93 83.769 L 55.74 83.769 L 55.74 86.5 L 75.405 86.5 C 78.507 86.487 81 83.929 81 80.756 L 81 78.308 Z " fill="rgb(192,28,40)"/><linearGradient id="_lgradient_19" x1="-0.3809523809523805" y1="0.5004809846153861" x2="1.3809523809523814" y2="0.5004809846153861" gradientTransform="matrix(14.337,0,0,1.387,61.202,31.165)" gradientUnits="userSpaceOnUse"><stop offset="0%" stop-opacity="1" style="stop-color:rgb(61,56,70)"/><stop offset="25%" stop-opacity="1" style="stop-color:rgb(94,92,100)"/><stop offset="75%" stop-opacity="1" style="stop-color:rgb(119,118,123)"/><stop offset="100%" stop-opacity="1" style="stop-color:rgb(119,118,123)"/></linearGradient><path d=" M 61.202 31.165 L 75.538 31.165 L 75.538 32.551 L 61.202 32.551 L 61.202 31.165 Z " fill="url(#_lgradient_19)"/><linearGradient id="_lgradient_20" x1="0" y1="0.5" x2="1" y2="0.5" gradientTransform="matrix(14.337,0,0,4.742,61.202,26.423)" gradientUnits="userSpaceOnUse"><stop offset="100%" stop-opacity="1" style="stop-color:rgb(154,153,150)"/><stop offset="100%" stop-opacity="1" style="stop-color:rgb(158,157,154)"/><stop offset="100%" stop-opacity="1" style="stop-color:rgb(193,192,189)"/><stop offset="100%" stop-opacity="1" style="stop-color:rgb(220,219,216)"/></linearGradient><path d=" M 61.202 26.423 L 75.538 26.423 L 75.538 31.165 L 61.202 31.165 L 61.202 26.423 Z " fill="url(#_lgradient_20)"/><linearGradient id="_lgradient_21" x1="0" y1="0.5" x2="1" y2="0.5" gradientTransform="matrix(8.192,0,0,3.077,72.808,75.23)" gradientUnits="userSpaceOnUse"><stop offset="100%" stop-opacity="1" style="stop-color:rgb(154,153,150)"/><stop offset="100%" stop-opacity="1" style="stop-color:rgb(158,157,154)"/><stop offset="100%" stop-opacity="1" style="stop-color:rgb(193,192,189)"/><stop offset="100%" stop-opacity="1" style="stop-color:rgb(220,219,216)"/></linearGradient><path d=" M 72.808 75.23 L 81 75.23 L 81 78.308 L 72.808 78.308 L 72.808 75.23 Z " fill="url(#_lgradient_21)"/><path d=" M 22.63 44.173 C 18.859 44.173 15.803 47.229 15.803 51 C 15.803 54.771 18.859 57.827 22.63 57.827 C 26.401 57.827 29.457 54.771 29.457 51 C 29.457 47.229 26.401 44.173 22.63 44.173 Z " fill="rgb(51,209,122)" fill-opacity="0.854902"/></g></svg>