<?xml version="1.0" encoding="UTF-8" standalone="no"?><!-- Generator: Gravit.io --><svg xmlns="http://www.w3.org/2000/svg" xmlns:xlink="http://www.w3.org/1999/xlink" style="isolation:isolate" viewBox="0 0 364 102" width="364pt" height="102pt"><defs><clipPath id="_clipPath_WYYhUPsRMds9NNutouXExLgjCNTRXYnJ"><rect width="364" height="102"/></clipPath></defs><g clip-path="url(#_clipPath_WYYhUPsRMds9NNutouXExLgjCNTRXYnJ)"><clipPath id="_clipPath_P9TdMobS0kfKIefVaDaiTnUSR8qNQapX"><rect x="10" y="0" width="364" height="102" transform="matrix(1,0,0,1,0,0)" fill="rgb(255,255,255)"/></clipPath><g clip-path="url(#_clipPath_P9TdMobS0kfKIefVaDaiTnUSR8qNQapX)"><g><path d=" M 121.89 51.33 L 121.89 51.33 Q 126.79 52.24 129.835 54.865 L 129.835 54.865 L 129.835 54.865 Q 132.88 57.49 132.88 62.88 L 132.88 62.88 L 132.88 62.88 Q 132.88 70.51 127.42 73.73 L 127.42 73.73 L 127.42 73.73 Q 121.96 76.95 112.23 76.95 L 112.23 76.95 L 97.11 76.95 L 97.11 28.51 L 110.34 28.51 L 110.34 28.51 Q 120.28 28.51 125.53 31.45 L 125.53 31.45 L 125.53 31.45 Q 130.78 34.39 130.78 40.9 L 130.78 40.9 L 130.78 40.9 Q 130.78 45.17 128.225 47.795 L 128.225 47.795 L 128.225 47.795 Q 125.67 50.42 121.89 51.33 L 121.89 51.33 L 121.89 51.33 Z  M 111.32 35.93 L 107.4 35.93 L 107.4 48.18 L 112.44 48.18 L 112.44 48.18 Q 116.22 48.18 118.25 46.605 L 118.25 46.605 L 118.25 46.605 Q 120.28 45.03 120.28 41.81 L 120.28 41.81 L 120.28 41.81 Q 120.28 38.59 118.11 37.26 L 118.11 37.26 L 118.11 37.26 Q 115.94 35.93 111.32 35.93 L 111.32 35.93 L 111.32 35.93 Z  M 112.3 69.32 L 112.3 69.32 Q 117.13 69.32 119.65 67.885 L 119.65 67.885 L 119.65 67.885 Q 122.17 66.45 122.17 62.46 L 122.17 62.46 L 122.17 62.46 Q 122.17 55.18 113.21 55.18 L 113.21 55.18 L 107.4 55.18 L 107.4 69.32 L 112.3 69.32 L 112.3 69.32 Z  M 155.56 38.73 L 155.56 38.73 Q 163.89 38.73 168.58 43.945 L 168.58 43.945 L 168.58 43.945 Q 173.27 49.16 173.27 58.4 L 173.27 58.4 L 173.27 58.4 Q 173.27 64.28 171.135 68.725 L 171.135 68.725 L 171.135 68.725 Q 169 73.17 164.975 75.62 L 164.975 75.62 L 164.975 75.62 Q 160.95 78.07 155.49 78.07 L 155.49 78.07 L 155.49 78.07 Q 147.16 78.07 142.435 72.855 L 142.435 72.855 L 142.435 72.855 Q 137.71 67.64 137.71 58.4 L 137.71 58.4 L 137.71 58.4 Q 137.71 52.52 139.845 48.075 L 139.845 48.075 L 139.845 48.075 Q 141.98 43.63 146.005 41.18 L 146.005 41.18 L 146.005 41.18 Q 150.03 38.73 155.56 38.73 L 155.56 38.73 L 155.56 38.73 Z  M 155.56 46.15 L 155.56 46.15 Q 151.78 46.15 149.925 49.125 L 149.925 49.125 L 149.925 49.125 Q 148.07 52.1 148.07 58.4 L 148.07 58.4 L 148.07 58.4 Q 148.07 64.7 149.925 67.675 L 149.925 67.675 L 149.925 67.675 Q 151.78 70.65 155.49 70.65 L 155.49 70.65 L 155.49 70.65 Q 159.2 70.65 161.055 67.675 L 161.055 67.675 L 161.055 67.675 Q 162.91 64.7 162.91 58.4 L 162.91 58.4 L 162.91 58.4 Q 162.91 52.1 161.09 49.125 L 161.09 49.125 L 161.09 49.125 Q 159.27 46.15 155.56 46.15 L 155.56 46.15 L 155.56 46.15 Z  M 199.59 68.9 L 203.02 75.2 L 203.02 75.2 Q 200.99 76.6 198.435 77.335 L 198.435 77.335 L 198.435 77.335 Q 195.88 78.07 193.36 78.07 L 193.36 78.07 L 193.36 78.07 Q 187.62 78 184.68 74.78 L 184.68 74.78 L 184.68 74.78 Q 181.74 71.56 181.74 65.33 L 181.74 65.33 L 181.74 46.85 L 176.21 46.85 L 176.21 39.85 L 181.74 39.85 L 181.74 31.73 L 191.68 30.54 L 191.68 39.85 L 200.22 39.85 L 199.24 46.85 L 191.68 46.85 L 191.68 65.12 L 191.68 65.12 Q 191.68 67.78 192.59 68.97 L 192.59 68.97 L 192.59 68.97 Q 193.5 70.16 195.39 70.16 L 195.39 70.16 L 195.39 70.16 Q 197.28 70.16 199.59 68.9 L 199.59 68.9 L 199.59 68.9 Z  M 226.19 68.9 L 229.62 75.2 L 229.62 75.2 Q 227.59 76.6 225.035 77.335 L 225.035 77.335 L 225.035 77.335 Q 222.48 78.07 219.96 78.07 L 219.96 78.07 L 219.96 78.07 Q 214.22 78 211.28 74.78 L 211.28 74.78 L 211.28 74.78 Q 208.34 71.56 208.34 65.33 L 208.34 65.33 L 208.34 46.85 L 202.81 46.85 L 202.81 39.85 L 208.34 39.85 L 208.34 31.73 L 218.28 30.54 L 218.28 39.85 L 226.82 39.85 L 225.84 46.85 L 218.28 46.85 L 218.28 65.12 L 218.28 65.12 Q 218.28 67.78 219.19 68.97 L 219.19 68.97 L 219.19 68.97 Q 220.1 70.16 221.99 70.16 L 221.99 70.16 L 221.99 70.16 Q 223.88 70.16 226.19 68.9 L 226.19 68.9 L 226.19 68.9 Z  M 243.27 78.07 L 243.27 78.07 Q 238.72 78.07 236.2 75.445 L 236.2 75.445 L 236.2 75.445 Q 233.68 72.82 233.68 67.99 L 233.68 67.99 L 233.68 25.08 L 243.62 23.96 L 243.62 67.71 L 243.62 67.71 Q 243.62 70.16 245.65 70.16 L 245.65 70.16 L 245.65 70.16 Q 246.77 70.16 247.61 69.74 L 247.61 69.74 L 249.64 76.81 L 249.64 76.81 Q 246.77 78.07 243.27 78.07 L 243.27 78.07 L 243.27 78.07 Z  M 286.11 57.56 L 286.11 57.56 Q 286.11 58.26 285.9 61.41 L 285.9 61.41 L 262.73 61.41 L 262.73 61.41 Q 263.22 66.45 265.46 68.55 L 265.46 68.55 L 265.46 68.55 Q 267.7 70.65 271.55 70.65 L 271.55 70.65 L 271.55 70.65 Q 273.93 70.65 276.03 69.88 L 276.03 69.88 L 276.03 69.88 Q 278.13 69.11 280.58 67.43 L 280.58 67.43 L 284.71 73.03 L 284.71 73.03 Q 278.48 78.07 270.64 78.07 L 270.64 78.07 L 270.64 78.07 Q 261.89 78.07 257.2 72.82 L 257.2 72.82 L 257.2 72.82 Q 252.51 67.57 252.51 58.61 L 252.51 58.61 L 252.51 58.61 Q 252.51 52.94 254.505 48.425 L 254.505 48.425 L 254.505 48.425 Q 256.5 43.91 260.315 41.32 L 260.315 41.32 L 260.315 41.32 Q 264.13 38.73 269.38 38.73 L 269.38 38.73 L 269.38 38.73 Q 277.29 38.73 281.7 43.7 L 281.7 43.7 L 281.7 43.7 Q 286.11 48.67 286.11 57.56 L 286.11 57.56 L 286.11 57.56 Z  M 276.24 55.18 L 276.24 54.76 L 276.24 54.76 Q 276.24 45.52 269.59 45.52 L 269.59 45.52 L 269.59 45.52 Q 266.51 45.52 264.795 47.795 L 264.795 47.795 L 264.795 47.795 Q 263.08 50.07 262.73 55.18 L 262.73 55.18 L 276.24 55.18 L 276.24 55.18 Z  M 305.64 38.73 L 305.64 38.73 Q 313.48 38.73 319.08 43.21 L 319.08 43.21 L 315.3 48.88 L 315.3 48.88 Q 310.61 45.94 306.06 45.94 L 306.06 45.94 L 306.06 45.94 Q 303.61 45.94 302.28 46.85 L 302.28 46.85 L 302.28 46.85 Q 300.95 47.76 300.95 49.3 L 300.95 49.3 L 300.95 49.3 Q 300.95 50.42 301.545 51.19 L 301.545 51.19 L 301.545 51.19 Q 302.14 51.96 303.785 52.66 L 303.785 52.66 L 303.785 52.66 Q 305.43 53.36 308.72 54.34 L 308.72 54.34 L 308.72 54.34 Q 314.6 55.95 317.47 58.645 L 317.47 58.645 L 317.47 58.645 Q 320.34 61.34 320.34 66.03 L 320.34 66.03 L 320.34 66.03 Q 320.34 69.74 318.205 72.47 L 318.205 72.47 L 318.205 72.47 Q 316.07 75.2 312.43 76.635 L 312.43 76.635 L 312.43 76.635 Q 308.79 78.07 304.31 78.07 L 304.31 78.07 L 304.31 78.07 Q 299.62 78.07 295.77 76.635 L 295.77 76.635 L 295.77 76.635 Q 291.92 75.2 289.19 72.68 L 289.19 72.68 L 294.09 67.22 L 294.09 67.22 Q 298.78 70.86 304.03 70.86 L 304.03 70.86 L 304.03 70.86 Q 306.83 70.86 308.475 69.775 L 308.475 69.775 L 308.475 69.775 Q 310.12 68.69 310.12 66.8 L 310.12 66.8 L 310.12 66.8 Q 310.12 65.33 309.49 64.49 L 309.49 64.49 L 309.49 64.49 Q 308.86 63.65 307.18 62.915 L 307.18 62.915 L 307.18 62.915 Q 305.5 62.18 301.93 61.2 L 301.93 61.2 L 301.93 61.2 Q 296.33 59.66 293.635 56.825 L 293.635 56.825 L 293.635 56.825 Q 290.94 53.99 290.94 49.79 L 290.94 49.79 L 290.94 49.79 Q 290.94 46.64 292.76 44.12 L 292.76 44.12 L 292.76 44.12 Q 294.58 41.6 297.905 40.165 L 297.905 40.165 L 297.905 40.165 Q 301.23 38.73 305.64 38.73 L 305.64 38.73 L 305.64 38.73 Z " fill="rgb(37,35,38)"/></g></g><linearGradient id="_lgradient_0" x1="0" y1="0.5631455706116791" x2="0.999999184424381" y2="0.5618206133589493" gradientTransform="matrix(21.065,0,0,79.143,31.365,20.339)" gradientUnits="userSpaceOnUse"><stop offset="0%" stop-opacity="1" style="stop-color:rgb(230,97,0)"/><stop offset="13.386600000000001%" stop-opacity="1" style="stop-color:rgb(255,120,0)"/><stop offset="73.32600000000001%" stop-opacity="1" style="stop-color:rgb(255,190,111)"/><stop offset="100%" stop-opacity="1" style="stop-color:rgb(255,163,72)"/></linearGradient><path d=" M 38.386 20.339 C 38.345 20.785 38.277 21.196 38.208 21.598 C 38.28 21.2 38.345 20.785 38.386 20.339 Z  M 45.408 20.339 C 45.449 20.775 45.511 21.179 45.583 21.57 C 45.514 21.176 45.449 20.775 45.408 20.339 Z  M 38.143 21.954 C 38.085 22.242 38.009 22.516 37.937 22.784 C 38.013 22.516 38.081 22.242 38.143 21.954 Z  M 34.094 28.718 C 32.637 30.056 31.365 31.064 31.365 32.778 L 31.365 99.483 L 52.429 99.483 L 52.429 32.778 C 52.429 31.064 51.157 30.056 49.7 28.718 L 34.094 28.718 Z " fill="url(#_lgradient_0)"/><linearGradient id="_lgradient_1" x1="0.18646493315605106" y1="0.5719072986880949" x2="0.8668983734447977" y2="0.5719072986880949" gradientTransform="matrix(16.769,0,0,12.277,33.504,16.979)" gradientUnits="userSpaceOnUse"><stop offset="0%" stop-opacity="1" style="stop-color:rgb(222,221,218)"/><stop offset="38.845400000000005%" stop-opacity="1" style="stop-color:rgb(222,221,218)"/><stop offset="75%" stop-opacity="1" style="stop-color:rgb(255,255,255)"/><stop offset="100%" stop-opacity="1" style="stop-color:rgb(222,221,218)"/></linearGradient><path d=" M 38.386 16.979 L 38.386 20.339 C 37.944 24.951 35.181 27.543 33.504 29.257 L 50.273 29.24 C 48.651 27.495 45.85 24.951 45.408 20.339 L 45.408 16.979 L 38.386 16.979 Z " fill="url(#_lgradient_1)"/><path d=" M 31.365 95.972 L 52.429 95.972 L 52.429 99.483 L 31.365 99.483 L 31.365 95.972 Z " fill="rgb(198,70,0)"/><path d=" M 38.386 4.692 L 38.386 16.979 L 45.408 16.979 L 45.408 4.692 L 38.386 4.692 Z " fill="rgb(165,29,45)"/><path d=" M 38.386 1.616 L 38.386 5.127 L 45.408 5.127 L 45.408 1.616 L 38.386 1.616 Z " fill="rgb(0,0,0)"/><linearGradient id="_lgradient_2" x1="-0.03866670833333341" y1="0.5055035555555554" x2="0.9999817764987486" y2="0.4972487003902756" gradientTransform="matrix(21.065,0,0,31.597,31.365,46.821)" gradientUnits="userSpaceOnUse"><stop offset="0%" stop-opacity="1" style="stop-color:rgb(154,153,150)"/><stop offset="15.611%" stop-opacity="1" style="stop-color:rgb(192,191,188)"/><stop offset="35.6461%" stop-opacity="1" style="stop-color:rgb(222,221,218)"/><stop offset="65.0737%" stop-opacity="1" style="stop-color:rgb(222,221,218)"/><stop offset="91.0869%" stop-opacity="1" style="stop-color:rgb(192,191,188)"/><stop offset="100%" stop-opacity="1" style="stop-color:rgb(154,153,150)"/></linearGradient><path d=" M 31.365 46.821 L 52.429 46.821 L 52.429 78.418 L 31.365 78.418 L 31.365 46.821 Z " fill="url(#_lgradient_2)"/><path d=" M 34.876 53.842 L 34.876 64.375 L 48.919 64.375 L 48.919 60.864 L 45.408 60.864 L 45.408 57.353 L 41.897 57.353 L 41.897 53.842 L 34.876 53.842 Z " fill="rgb(0,0,0)" fill-opacity="0.386307"/><linearGradient id="_lgradient_3" x1="0.032258064516129115" y1="0.6190476190476191" x2="0.9999999999999999" y2="0.6190476190476191" gradientTransform="matrix(27.209,0,0,73.726,4.156,25.756)" gradientUnits="userSpaceOnUse"><stop offset="0%" stop-opacity="1" style="stop-color:rgb(165,29,45)"/><stop offset="40%" stop-opacity="1" style="stop-color:rgb(192,28,40)"/><stop offset="67.9906%" stop-opacity="1" style="stop-color:rgb(237,51,59)"/><stop offset="100%" stop-opacity="1" style="stop-color:rgb(192,28,40)"/></linearGradient><path d=" M 12.055 25.756 L 12.055 46.821 L 9.422 46.821 C 6.505 46.821 4.156 48.953 4.156 51.6 L 4.156 99.483 L 31.365 99.483 L 31.365 51.6 C 31.365 48.953 29.016 46.821 26.099 46.821 L 22.588 46.821 L 22.588 25.756 L 12.055 25.756 Z " fill="url(#_lgradient_3)"/><path d=" M 4.156 95.972 L 31.365 95.972 L 31.365 99.483 L 4.156 99.483 L 4.156 95.972 Z " fill="rgb(114,20,31)"/><path d=" M 12.055 25.756 L 22.588 25.756 L 22.588 46.821 L 12.055 46.821 L 12.055 25.756 Z " fill="rgb(61,56,70)"/><linearGradient id="_lgradient_4" x1="0.1875" y1="0.45833333333333304" x2="1" y2="0.45833333333333304" gradientTransform="matrix(15.798,0,0,21.065,15.566,60.864)" gradientUnits="userSpaceOnUse"><stop offset="18.75%" stop-opacity="1" style="stop-color:rgb(0,0,0)"/><stop offset="100%" stop-opacity="1" style="stop-color:rgb(36,31,49)"/></linearGradient><path d=" M 15.566 60.864 L 31.365 60.864 L 31.365 81.929 L 15.566 81.929 L 15.566 60.864 Z " fill="url(#_lgradient_4)"/><path d=" M 12.055 24.001 L 22.588 24.001 L 22.588 27.512 L 12.055 27.512 L 12.055 24.001 Z " fill="rgb(36,31,49)"/><path d=" M 52.429 60.864 L 73.494 60.864 L 73.494 99.483 L 52.429 99.483 L 52.429 60.864 Z " fill="rgb(46,194,126)"/><path d=" M 62.962 43.31 C 62.962 43.31 52.429 45.066 52.429 60.864 L 80.516 60.864 C 80.516 45.066 69.983 43.31 69.983 43.31 L 62.962 43.31 Z  M 52.429 95.972 L 52.429 99.483 L 80.516 99.483 L 80.516 95.972 L 52.429 95.972 Z " fill="rgb(38,162,105)"/><linearGradient id="_lgradient_5" x1="0.2499432812500002" y1="0.1875" x2="0.9689629272462734" y2="0.18379309944685776" gradientTransform="matrix(28.086,0,0,56.172,52.429,43.31)" gradientUnits="userSpaceOnUse"><stop offset="0%" stop-opacity="1" style="stop-color:rgb(38,162,105)"/><stop offset="72.42530000000001%" stop-opacity="1" style="stop-color:rgb(51,209,122)"/><stop offset="100%" stop-opacity="1" style="stop-color:rgb(38,162,105)"/></linearGradient><path d=" M 62.962 43.31 C 62.962 43.31 52.429 45.066 52.429 60.864 L 80.516 60.864 C 80.516 45.066 69.983 43.31 69.983 43.31 L 62.962 43.31 Z  M 52.429 95.972 L 52.429 99.483 L 80.516 99.483 L 80.516 95.972 L 52.429 95.972 Z " fill="url(#_lgradient_5)"/><linearGradient id="_lgradient_6" x1="0" y1="0.5" x2="1" y2="0.5" gradientTransform="matrix(28.086,0,0,35.108,52.429,60.864)" gradientUnits="userSpaceOnUse"><stop offset="0%" stop-opacity="1" style="stop-color:rgb(229,165,10)"/><stop offset="37.5%" stop-opacity="1" style="stop-color:rgb(246,211,45)"/><stop offset="75.36739999999999%" stop-opacity="1" style="stop-color:rgb(249,240,107)"/><stop offset="100%" stop-opacity="1" style="stop-color:rgb(229,165,10)"/></linearGradient><path d=" M 52.429 60.864 L 80.516 60.864 L 80.516 95.972 L 52.429 95.972 L 52.429 60.864 Z " fill="url(#_lgradient_6)"/><linearGradient id="_lgradient_7" x1="0.0017737141913496401" y1="0.5714285714285713" x2="0.9985467306723823" y2="0.5714285714285713" gradientTransform="matrix(10.566,0,0,24.575,61.188,18.735)" gradientUnits="userSpaceOnUse"><stop offset="0%" stop-opacity="1" style="stop-color:rgb(229,165,10)"/><stop offset="43.357%" stop-opacity="1" style="stop-color:rgb(246,211,45)"/><stop offset="75.36739999999999%" stop-opacity="1" style="stop-color:rgb(249,240,107)"/><stop offset="100%" stop-opacity="1" style="stop-color:rgb(229,165,10)"/></linearGradient><path d=" M 61.206 18.735 C 61.076 25.595 61.621 28.297 62.962 31.022 L 62.962 43.31 L 69.983 43.31 L 69.983 31.022 C 71.619 28.211 71.821 23.74 71.739 18.735 L 61.206 18.735 Z " fill="url(#_lgradient_7)"/><linearGradient id="_lgradient_8" x1="0" y1="0.5" x2="1" y2="0.5" gradientTransform="matrix(10.532,0,0,1.755,12.055,29.267)" gradientUnits="userSpaceOnUse"><stop offset="100%" stop-opacity="0" style="stop-color:rgb(36,31,49)"/><stop offset="100%" stop-opacity="0.10714280357145538" style="stop-color:rgb(45,40,57)"/><stop offset="100%" stop-opacity="0.9285714285714286" style="stop-color:rgb(113,112,118)"/></linearGradient><path d=" M 12.055 29.267 L 22.588 29.267 L 22.588 31.022 L 12.055 31.022 L 12.055 29.267 Z " fill="url(#_lgradient_8)"/><linearGradient id="_lgradient_9" x1="0" y1="0.5" x2="1" y2="0.5" gradientTransform="matrix(10.532,0,0,1.755,12.055,32.778)" gradientUnits="userSpaceOnUse"><stop offset="100%" stop-opacity="0" style="stop-color:rgb(36,31,49)"/><stop offset="100%" stop-opacity="0.10714280357145538" style="stop-color:rgb(45,40,57)"/><stop offset="100%" stop-opacity="0.9285714285714286" style="stop-color:rgb(113,112,118)"/></linearGradient><path d=" M 12.055 32.778 L 22.588 32.778 L 22.588 34.533 L 12.055 34.533 L 12.055 32.778 Z " fill="url(#_lgradient_9)"/><linearGradient id="_lgradient_10" x1="0" y1="0.5" x2="1" y2="0.5" gradientTransform="matrix(10.532,0,0,1.755,12.055,36.289)" gradientUnits="userSpaceOnUse"><stop offset="100%" stop-opacity="0" style="stop-color:rgb(36,31,49)"/><stop offset="100%" stop-opacity="0.10714280357145538" style="stop-color:rgb(45,40,57)"/><stop offset="100%" stop-opacity="0.9285714285714286" style="stop-color:rgb(113,112,118)"/></linearGradient><path d=" M 12.055 36.289 L 22.588 36.289 L 22.588 38.044 L 12.055 38.044 L 12.055 36.289 Z " fill="url(#_lgradient_10)"/><linearGradient id="_lgradient_11" x1="0" y1="0.5" x2="1" y2="0.5" gradientTransform="matrix(10.532,0,0,1.755,12.055,39.799)" gradientUnits="userSpaceOnUse"><stop offset="100%" stop-opacity="0" style="stop-color:rgb(36,31,49)"/><stop offset="100%" stop-opacity="0.10714280357145538" style="stop-color:rgb(45,40,57)"/><stop offset="100%" stop-opacity="0.9285714285714286" style="stop-color:rgb(113,112,118)"/></linearGradient><path d=" M 12.055 39.799 L 22.588 39.799 L 22.588 41.555 L 12.055 41.555 L 12.055 39.799 Z " fill="url(#_lgradient_11)"/><linearGradient id="_lgradient_12" x1="0" y1="0.5" x2="1" y2="0.5" gradientTransform="matrix(10.532,0,0,1.755,12.055,43.31)" gradientUnits="userSpaceOnUse"><stop offset="100%" stop-opacity="0" style="stop-color:rgb(36,31,49)"/><stop offset="100%" stop-opacity="0.10714280357145538" style="stop-color:rgb(45,40,57)"/><stop offset="100%" stop-opacity="0.9285714285714286" style="stop-color:rgb(113,112,118)"/></linearGradient><path d=" M 12.055 43.31 L 22.588 43.31 L 22.588 45.066 L 12.055 45.066 L 12.055 43.31 Z " fill="url(#_lgradient_12)"/><path d=" M 61.206 18.735 L 61.206 22.246 L 71.739 22.246 L 71.739 18.735 L 61.206 18.735 Z " fill="rgb(200,144,8)" fill-opacity="0.545226"/><path d=" M 52.429 60.864 L 52.429 64.375 L 80.516 64.375 L 80.516 60.864 L 52.429 60.864 Z " fill="rgb(200,144,8)" fill-opacity="0.545226"/><path d=" M 52.429 95.972 L 80.516 95.972 L 80.516 99.483 L 52.429 99.483 L 52.429 95.972 Z " fill="rgb(18,78,51)"/></g></svg>